<?xml version="1.0" encoding="utf-8"?>
<svg xmlns="http://www.w3.org/2000/svg" xmlns:xlink="http://www.w3.org/1999/xlink" width="600" height="400" viewBox="0 0 2400 1600">
<defs>
  <clipPath id="clip140">
    <rect x="0" y="0" width="2400" height="1600"/>
  </clipPath>
</defs>
<path clip-path="url(#clip140)" d="M0 1600 L2400 1600 L2400 0 L0 0  Z" fill="#ffffff" fill-rule="evenodd" fill-opacity="1"/>
<defs>
  <clipPath id="clip141">
    <rect x="480" y="0" width="1681" height="1600"/>
  </clipPath>
</defs>
<path clip-path="url(#clip140)" d="M287.366 1486.45 L2352.76 1486.45 L2352.76 47.2441 L287.366 47.2441  Z" fill="#ffffff" fill-rule="evenodd" fill-opacity="1"/>
<defs>
  <clipPath id="clip142">
    <rect x="287" y="47" width="2066" height="1440"/>
  </clipPath>
</defs>
<polyline clip-path="url(#clip142)" style="stroke:#000000; stroke-linecap:round; stroke-linejoin:round; stroke-width:2; stroke-opacity:0.1; fill:none" points="626.177,1486.45 626.177,47.2441 "/>
<polyline clip-path="url(#clip142)" style="stroke:#000000; stroke-linecap:round; stroke-linejoin:round; stroke-width:2; stroke-opacity:0.1; fill:none" points="976.624,1486.45 976.624,47.2441 "/>
<polyline clip-path="url(#clip142)" style="stroke:#000000; stroke-linecap:round; stroke-linejoin:round; stroke-width:2; stroke-opacity:0.1; fill:none" points="1327.07,1486.45 1327.07,47.2441 "/>
<polyline clip-path="url(#clip142)" style="stroke:#000000; stroke-linecap:round; stroke-linejoin:round; stroke-width:2; stroke-opacity:0.1; fill:none" points="1677.52,1486.45 1677.52,47.2441 "/>
<polyline clip-path="url(#clip142)" style="stroke:#000000; stroke-linecap:round; stroke-linejoin:round; stroke-width:2; stroke-opacity:0.1; fill:none" points="2027.96,1486.45 2027.96,47.2441 "/>
<polyline clip-path="url(#clip140)" style="stroke:#000000; stroke-linecap:round; stroke-linejoin:round; stroke-width:4; stroke-opacity:1; fill:none" points="287.366,1486.45 2352.76,1486.45 "/>
<polyline clip-path="url(#clip140)" style="stroke:#000000; stroke-linecap:round; stroke-linejoin:round; stroke-width:4; stroke-opacity:1; fill:none" points="626.177,1486.45 626.177,1467.55 "/>
<polyline clip-path="url(#clip140)" style="stroke:#000000; stroke-linecap:round; stroke-linejoin:round; stroke-width:4; stroke-opacity:1; fill:none" points="976.624,1486.45 976.624,1467.55 "/>
<polyline clip-path="url(#clip140)" style="stroke:#000000; stroke-linecap:round; stroke-linejoin:round; stroke-width:4; stroke-opacity:1; fill:none" points="1327.07,1486.45 1327.07,1467.55 "/>
<polyline clip-path="url(#clip140)" style="stroke:#000000; stroke-linecap:round; stroke-linejoin:round; stroke-width:4; stroke-opacity:1; fill:none" points="1677.52,1486.45 1677.52,1467.55 "/>
<polyline clip-path="url(#clip140)" style="stroke:#000000; stroke-linecap:round; stroke-linejoin:round; stroke-width:4; stroke-opacity:1; fill:none" points="2027.96,1486.45 2027.96,1467.55 "/>
<path clip-path="url(#clip140)" d="M570.703 1544.91 L578.342 1544.91 L578.342 1518.55 L570.032 1520.21 L570.032 1515.95 L578.296 1514.29 L582.972 1514.29 L582.972 1544.91 L590.61 1544.91 L590.61 1548.85 L570.703 1548.85 L570.703 1544.91 Z" fill="#000000" fill-rule="evenodd" fill-opacity="1" /><path clip-path="url(#clip140)" d="M600.194 1548.13 L600.194 1543.87 Q601.953 1544.7 603.758 1545.14 Q605.564 1545.58 607.3 1545.58 Q611.93 1545.58 614.36 1542.48 Q616.814 1539.36 617.161 1533.01 Q615.819 1535.01 613.758 1536.07 Q611.698 1537.13 609.198 1537.13 Q604.013 1537.13 600.981 1534.01 Q597.971 1530.86 597.971 1525.42 Q597.971 1520.1 601.12 1516.88 Q604.268 1513.66 609.499 1513.66 Q615.495 1513.66 618.643 1518.27 Q621.814 1522.85 621.814 1531.6 Q621.814 1539.77 617.925 1544.66 Q614.059 1549.52 607.508 1549.52 Q605.749 1549.52 603.944 1549.17 Q602.138 1548.82 600.194 1548.13 M609.499 1533.48 Q612.647 1533.48 614.476 1531.32 Q616.328 1529.17 616.328 1525.42 Q616.328 1521.7 614.476 1519.54 Q612.647 1517.37 609.499 1517.37 Q606.351 1517.37 604.499 1519.54 Q602.671 1521.7 602.671 1525.42 Q602.671 1529.17 604.499 1531.32 Q606.351 1533.48 609.499 1533.48 Z" fill="#000000" fill-rule="evenodd" fill-opacity="1" /><path clip-path="url(#clip140)" d="M640.217 1517.37 Q636.606 1517.37 634.777 1520.93 Q632.971 1524.47 632.971 1531.6 Q632.971 1538.71 634.777 1542.27 Q636.606 1545.82 640.217 1545.82 Q643.851 1545.82 645.656 1542.27 Q647.485 1538.71 647.485 1531.6 Q647.485 1524.47 645.656 1520.93 Q643.851 1517.37 640.217 1517.37 M640.217 1513.66 Q646.027 1513.66 649.082 1518.27 Q652.161 1522.85 652.161 1531.6 Q652.161 1540.33 649.082 1544.94 Q646.027 1549.52 640.217 1549.52 Q634.406 1549.52 631.328 1544.94 Q628.272 1540.33 628.272 1531.6 Q628.272 1522.85 631.328 1518.27 Q634.406 1513.66 640.217 1513.66 Z" fill="#000000" fill-rule="evenodd" fill-opacity="1" /><path clip-path="url(#clip140)" d="M670.378 1517.37 Q666.767 1517.37 664.939 1520.93 Q663.133 1524.47 663.133 1531.6 Q663.133 1538.71 664.939 1542.27 Q666.767 1545.82 670.378 1545.82 Q674.013 1545.82 675.818 1542.27 Q677.647 1538.71 677.647 1531.6 Q677.647 1524.47 675.818 1520.93 Q674.013 1517.37 670.378 1517.37 M670.378 1513.66 Q676.189 1513.66 679.244 1518.27 Q682.323 1522.85 682.323 1531.6 Q682.323 1540.33 679.244 1544.94 Q676.189 1549.52 670.378 1549.52 Q664.568 1549.52 661.49 1544.94 Q658.434 1540.33 658.434 1531.6 Q658.434 1522.85 661.49 1518.27 Q664.568 1513.66 670.378 1513.66 Z" fill="#000000" fill-rule="evenodd" fill-opacity="1" /><path clip-path="url(#clip140)" d="M921.647 1544.91 L929.286 1544.91 L929.286 1518.55 L920.976 1520.21 L920.976 1515.95 L929.24 1514.29 L933.915 1514.29 L933.915 1544.91 L941.554 1544.91 L941.554 1548.85 L921.647 1548.85 L921.647 1544.91 Z" fill="#000000" fill-rule="evenodd" fill-opacity="1" /><path clip-path="url(#clip140)" d="M951.138 1548.13 L951.138 1543.87 Q952.897 1544.7 954.702 1545.14 Q956.508 1545.58 958.244 1545.58 Q962.874 1545.58 965.304 1542.48 Q967.758 1539.36 968.105 1533.01 Q966.763 1535.01 964.702 1536.07 Q962.642 1537.13 960.142 1537.13 Q954.957 1537.13 951.925 1534.01 Q948.915 1530.86 948.915 1525.42 Q948.915 1520.1 952.064 1516.88 Q955.212 1513.66 960.443 1513.66 Q966.438 1513.66 969.587 1518.27 Q972.758 1522.85 972.758 1531.6 Q972.758 1539.77 968.869 1544.66 Q965.003 1549.52 958.452 1549.52 Q956.693 1549.52 954.888 1549.17 Q953.082 1548.82 951.138 1548.13 M960.443 1533.48 Q963.591 1533.48 965.42 1531.32 Q967.272 1529.17 967.272 1525.42 Q967.272 1521.7 965.42 1519.54 Q963.591 1517.37 960.443 1517.37 Q957.295 1517.37 955.443 1519.54 Q953.614 1521.7 953.614 1525.42 Q953.614 1529.17 955.443 1531.32 Q957.295 1533.48 960.443 1533.48 Z" fill="#000000" fill-rule="evenodd" fill-opacity="1" /><path clip-path="url(#clip140)" d="M985.188 1544.91 L1001.51 1544.91 L1001.51 1548.85 L979.563 1548.85 L979.563 1544.91 Q982.225 1542.16 986.809 1537.53 Q991.415 1532.88 992.596 1531.53 Q994.841 1529.01 995.721 1527.27 Q996.623 1525.51 996.623 1523.82 Q996.623 1521.07 994.679 1519.33 Q992.758 1517.6 989.656 1517.6 Q987.457 1517.6 985.003 1518.36 Q982.573 1519.13 979.795 1520.68 L979.795 1515.95 Q982.619 1514.82 985.073 1514.24 Q987.526 1513.66 989.563 1513.66 Q994.934 1513.66 998.128 1516.35 Q1001.32 1519.03 1001.32 1523.52 Q1001.32 1525.65 1000.51 1527.57 Q999.725 1529.47 997.619 1532.07 Q997.04 1532.74 993.938 1535.95 Q990.836 1539.15 985.188 1544.91 Z" fill="#000000" fill-rule="evenodd" fill-opacity="1" /><path clip-path="url(#clip140)" d="M1011.37 1514.29 L1029.73 1514.29 L1029.73 1518.22 L1015.65 1518.22 L1015.65 1526.7 Q1016.67 1526.35 1017.69 1526.19 Q1018.71 1526 1019.73 1526 Q1025.51 1526 1028.89 1529.17 Q1032.27 1532.34 1032.27 1537.76 Q1032.27 1543.34 1028.8 1546.44 Q1025.33 1549.52 1019.01 1549.52 Q1016.83 1549.52 1014.56 1549.15 Q1012.32 1548.78 1009.91 1548.04 L1009.91 1543.34 Q1011.99 1544.47 1014.22 1545.03 Q1016.44 1545.58 1018.92 1545.58 Q1022.92 1545.58 1025.26 1543.48 Q1027.6 1541.37 1027.6 1537.76 Q1027.6 1534.15 1025.26 1532.04 Q1022.92 1529.94 1018.92 1529.94 Q1017.04 1529.94 1015.17 1530.35 Q1013.31 1530.77 1011.37 1531.65 L1011.37 1514.29 Z" fill="#000000" fill-rule="evenodd" fill-opacity="1" /><path clip-path="url(#clip140)" d="M1271.6 1544.91 L1279.23 1544.91 L1279.23 1518.55 L1270.92 1520.21 L1270.92 1515.95 L1279.19 1514.29 L1283.86 1514.29 L1283.86 1544.91 L1291.5 1544.91 L1291.5 1548.85 L1271.6 1548.85 L1271.6 1544.91 Z" fill="#000000" fill-rule="evenodd" fill-opacity="1" /><path clip-path="url(#clip140)" d="M1301.09 1548.13 L1301.09 1543.87 Q1302.85 1544.7 1304.65 1545.14 Q1306.46 1545.58 1308.19 1545.58 Q1312.82 1545.58 1315.25 1542.48 Q1317.71 1539.36 1318.05 1533.01 Q1316.71 1535.01 1314.65 1536.07 Q1312.59 1537.13 1310.09 1537.13 Q1304.91 1537.13 1301.87 1534.01 Q1298.86 1530.86 1298.86 1525.42 Q1298.86 1520.1 1302.01 1516.88 Q1305.16 1513.66 1310.39 1513.66 Q1316.39 1513.66 1319.54 1518.27 Q1322.71 1522.85 1322.71 1531.6 Q1322.71 1539.77 1318.82 1544.66 Q1314.95 1549.52 1308.4 1549.52 Q1306.64 1549.52 1304.84 1549.17 Q1303.03 1548.82 1301.09 1548.13 M1310.39 1533.48 Q1313.54 1533.48 1315.37 1531.32 Q1317.22 1529.17 1317.22 1525.42 Q1317.22 1521.7 1315.37 1519.54 Q1313.54 1517.37 1310.39 1517.37 Q1307.24 1517.37 1305.39 1519.54 Q1303.56 1521.7 1303.56 1525.42 Q1303.56 1529.17 1305.39 1531.32 Q1307.24 1533.48 1310.39 1533.48 Z" fill="#000000" fill-rule="evenodd" fill-opacity="1" /><path clip-path="url(#clip140)" d="M1331.16 1514.29 L1349.51 1514.29 L1349.51 1518.22 L1335.44 1518.22 L1335.44 1526.7 Q1336.46 1526.35 1337.47 1526.19 Q1338.49 1526 1339.51 1526 Q1345.3 1526 1348.68 1529.17 Q1352.06 1532.34 1352.06 1537.76 Q1352.06 1543.34 1348.59 1546.44 Q1345.11 1549.52 1338.79 1549.52 Q1336.62 1549.52 1334.35 1549.15 Q1332.1 1548.78 1329.7 1548.04 L1329.7 1543.34 Q1331.78 1544.47 1334 1545.03 Q1336.22 1545.58 1338.7 1545.58 Q1342.71 1545.58 1345.04 1543.48 Q1347.38 1541.37 1347.38 1537.76 Q1347.38 1534.15 1345.04 1532.04 Q1342.71 1529.94 1338.7 1529.94 Q1336.83 1529.94 1334.95 1530.35 Q1333.1 1530.77 1331.16 1531.65 L1331.16 1514.29 Z" fill="#000000" fill-rule="evenodd" fill-opacity="1" /><path clip-path="url(#clip140)" d="M1371.27 1517.37 Q1367.66 1517.37 1365.83 1520.93 Q1364.03 1524.47 1364.03 1531.6 Q1364.03 1538.71 1365.83 1542.27 Q1367.66 1545.82 1371.27 1545.82 Q1374.91 1545.82 1376.71 1542.27 Q1378.54 1538.71 1378.54 1531.6 Q1378.54 1524.47 1376.71 1520.93 Q1374.91 1517.37 1371.27 1517.37 M1371.27 1513.66 Q1377.08 1513.66 1380.14 1518.27 Q1383.22 1522.85 1383.22 1531.6 Q1383.22 1540.33 1380.14 1544.94 Q1377.08 1549.52 1371.27 1549.52 Q1365.46 1549.52 1362.38 1544.94 Q1359.33 1540.33 1359.33 1531.6 Q1359.33 1522.85 1362.38 1518.27 Q1365.46 1513.66 1371.27 1513.66 Z" fill="#000000" fill-rule="evenodd" fill-opacity="1" /><path clip-path="url(#clip140)" d="M1622.54 1544.91 L1630.18 1544.91 L1630.18 1518.55 L1621.87 1520.21 L1621.87 1515.95 L1630.13 1514.29 L1634.81 1514.29 L1634.81 1544.91 L1642.45 1544.91 L1642.45 1548.85 L1622.54 1548.85 L1622.54 1544.91 Z" fill="#000000" fill-rule="evenodd" fill-opacity="1" /><path clip-path="url(#clip140)" d="M1652.03 1548.13 L1652.03 1543.87 Q1653.79 1544.7 1655.59 1545.14 Q1657.4 1545.58 1659.14 1545.58 Q1663.77 1545.58 1666.2 1542.48 Q1668.65 1539.36 1669 1533.01 Q1667.66 1535.01 1665.59 1536.07 Q1663.53 1537.13 1661.03 1537.13 Q1655.85 1537.13 1652.82 1534.01 Q1649.81 1530.86 1649.81 1525.42 Q1649.81 1520.1 1652.96 1516.88 Q1656.1 1513.66 1661.34 1513.66 Q1667.33 1513.66 1670.48 1518.27 Q1673.65 1522.85 1673.65 1531.6 Q1673.65 1539.77 1669.76 1544.66 Q1665.9 1549.52 1659.34 1549.52 Q1657.59 1549.52 1655.78 1549.17 Q1653.97 1548.82 1652.03 1548.13 M1661.34 1533.48 Q1664.48 1533.48 1666.31 1531.32 Q1668.16 1529.17 1668.16 1525.42 Q1668.16 1521.7 1666.31 1519.54 Q1664.48 1517.37 1661.34 1517.37 Q1658.19 1517.37 1656.34 1519.54 Q1654.51 1521.7 1654.51 1525.42 Q1654.51 1529.17 1656.34 1531.32 Q1658.19 1533.48 1661.34 1533.48 Z" fill="#000000" fill-rule="evenodd" fill-opacity="1" /><path clip-path="url(#clip140)" d="M1680.87 1514.29 L1703.09 1514.29 L1703.09 1516.28 L1690.55 1548.85 L1685.66 1548.85 L1697.47 1518.22 L1680.87 1518.22 L1680.87 1514.29 Z" fill="#000000" fill-rule="evenodd" fill-opacity="1" /><path clip-path="url(#clip140)" d="M1712.26 1514.29 L1730.62 1514.29 L1730.62 1518.22 L1716.54 1518.22 L1716.54 1526.7 Q1717.56 1526.35 1718.58 1526.19 Q1719.6 1526 1720.62 1526 Q1726.4 1526 1729.78 1529.17 Q1733.16 1532.34 1733.16 1537.76 Q1733.16 1543.34 1729.69 1546.44 Q1726.22 1549.52 1719.9 1549.52 Q1717.72 1549.52 1715.46 1549.15 Q1713.21 1548.78 1710.8 1548.04 L1710.8 1543.34 Q1712.89 1544.47 1715.11 1545.03 Q1717.33 1545.58 1719.81 1545.58 Q1723.81 1545.58 1726.15 1543.48 Q1728.49 1541.37 1728.49 1537.76 Q1728.49 1534.15 1726.15 1532.04 Q1723.81 1529.94 1719.81 1529.94 Q1717.93 1529.94 1716.06 1530.35 Q1714.21 1530.77 1712.26 1531.65 L1712.26 1514.29 Z" fill="#000000" fill-rule="evenodd" fill-opacity="1" /><path clip-path="url(#clip140)" d="M1976.57 1544.91 L1992.89 1544.91 L1992.89 1548.85 L1970.95 1548.85 L1970.95 1544.91 Q1973.61 1542.16 1978.19 1537.53 Q1982.8 1532.88 1983.98 1531.53 Q1986.23 1529.01 1987.11 1527.27 Q1988.01 1525.51 1988.01 1523.82 Q1988.01 1521.07 1986.06 1519.33 Q1984.14 1517.6 1981.04 1517.6 Q1978.84 1517.6 1976.39 1518.36 Q1973.96 1519.13 1971.18 1520.68 L1971.18 1515.95 Q1974 1514.82 1976.46 1514.24 Q1978.91 1513.66 1980.95 1513.66 Q1986.32 1513.66 1989.51 1516.35 Q1992.71 1519.03 1992.71 1523.52 Q1992.71 1525.65 1991.9 1527.57 Q1991.11 1529.47 1989 1532.07 Q1988.43 1532.74 1985.32 1535.95 Q1982.22 1539.15 1976.57 1544.91 Z" fill="#000000" fill-rule="evenodd" fill-opacity="1" /><path clip-path="url(#clip140)" d="M2012.71 1517.37 Q2009.1 1517.37 2007.27 1520.93 Q2005.46 1524.47 2005.46 1531.6 Q2005.46 1538.71 2007.27 1542.27 Q2009.1 1545.82 2012.71 1545.82 Q2016.34 1545.82 2018.15 1542.27 Q2019.98 1538.71 2019.98 1531.6 Q2019.98 1524.47 2018.15 1520.93 Q2016.34 1517.37 2012.71 1517.37 M2012.71 1513.66 Q2018.52 1513.66 2021.57 1518.27 Q2024.65 1522.85 2024.65 1531.6 Q2024.65 1540.33 2021.57 1544.94 Q2018.52 1549.52 2012.71 1549.52 Q2006.9 1549.52 2003.82 1544.94 Q2000.76 1540.33 2000.76 1531.6 Q2000.76 1522.85 2003.82 1518.27 Q2006.9 1513.66 2012.71 1513.66 Z" fill="#000000" fill-rule="evenodd" fill-opacity="1" /><path clip-path="url(#clip140)" d="M2042.87 1517.37 Q2039.26 1517.37 2037.43 1520.93 Q2035.62 1524.47 2035.62 1531.6 Q2035.62 1538.71 2037.43 1542.27 Q2039.26 1545.82 2042.87 1545.82 Q2046.5 1545.82 2048.31 1542.27 Q2050.14 1538.71 2050.14 1531.6 Q2050.14 1524.47 2048.31 1520.93 Q2046.5 1517.37 2042.87 1517.37 M2042.87 1513.66 Q2048.68 1513.66 2051.74 1518.27 Q2054.81 1522.85 2054.81 1531.6 Q2054.81 1540.33 2051.74 1544.94 Q2048.68 1549.52 2042.87 1549.52 Q2037.06 1549.52 2033.98 1544.94 Q2030.93 1540.33 2030.93 1531.6 Q2030.93 1522.85 2033.98 1518.27 Q2037.06 1513.66 2042.87 1513.66 Z" fill="#000000" fill-rule="evenodd" fill-opacity="1" /><path clip-path="url(#clip140)" d="M2073.03 1517.37 Q2069.42 1517.37 2067.59 1520.93 Q2065.79 1524.47 2065.79 1531.6 Q2065.79 1538.71 2067.59 1542.27 Q2069.42 1545.82 2073.03 1545.82 Q2076.67 1545.82 2078.47 1542.27 Q2080.3 1538.71 2080.3 1531.6 Q2080.3 1524.47 2078.47 1520.93 Q2076.67 1517.37 2073.03 1517.37 M2073.03 1513.66 Q2078.84 1513.66 2081.9 1518.27 Q2084.98 1522.85 2084.98 1531.6 Q2084.98 1540.33 2081.9 1544.94 Q2078.84 1549.52 2073.03 1549.52 Q2067.22 1549.52 2064.14 1544.94 Q2061.09 1540.33 2061.09 1531.6 Q2061.09 1522.85 2064.14 1518.27 Q2067.22 1513.66 2073.03 1513.66 Z" fill="#000000" fill-rule="evenodd" fill-opacity="1" /><polyline clip-path="url(#clip142)" style="stroke:#000000; stroke-linecap:round; stroke-linejoin:round; stroke-width:2; stroke-opacity:0.1; fill:none" points="287.366,1359.17 2352.76,1359.17 "/>
<polyline clip-path="url(#clip142)" style="stroke:#000000; stroke-linecap:round; stroke-linejoin:round; stroke-width:2; stroke-opacity:0.1; fill:none" points="287.366,1137.38 2352.76,1137.38 "/>
<polyline clip-path="url(#clip142)" style="stroke:#000000; stroke-linecap:round; stroke-linejoin:round; stroke-width:2; stroke-opacity:0.1; fill:none" points="287.366,915.602 2352.76,915.602 "/>
<polyline clip-path="url(#clip142)" style="stroke:#000000; stroke-linecap:round; stroke-linejoin:round; stroke-width:2; stroke-opacity:0.1; fill:none" points="287.366,693.82 2352.76,693.82 "/>
<polyline clip-path="url(#clip142)" style="stroke:#000000; stroke-linecap:round; stroke-linejoin:round; stroke-width:2; stroke-opacity:0.1; fill:none" points="287.366,472.038 2352.76,472.038 "/>
<polyline clip-path="url(#clip142)" style="stroke:#000000; stroke-linecap:round; stroke-linejoin:round; stroke-width:2; stroke-opacity:0.1; fill:none" points="287.366,250.256 2352.76,250.256 "/>
<polyline clip-path="url(#clip140)" style="stroke:#000000; stroke-linecap:round; stroke-linejoin:round; stroke-width:4; stroke-opacity:1; fill:none" points="287.366,1486.45 287.366,47.2441 "/>
<polyline clip-path="url(#clip140)" style="stroke:#000000; stroke-linecap:round; stroke-linejoin:round; stroke-width:4; stroke-opacity:1; fill:none" points="287.366,1359.17 306.264,1359.17 "/>
<polyline clip-path="url(#clip140)" style="stroke:#000000; stroke-linecap:round; stroke-linejoin:round; stroke-width:4; stroke-opacity:1; fill:none" points="287.366,1137.38 306.264,1137.38 "/>
<polyline clip-path="url(#clip140)" style="stroke:#000000; stroke-linecap:round; stroke-linejoin:round; stroke-width:4; stroke-opacity:1; fill:none" points="287.366,915.602 306.264,915.602 "/>
<polyline clip-path="url(#clip140)" style="stroke:#000000; stroke-linecap:round; stroke-linejoin:round; stroke-width:4; stroke-opacity:1; fill:none" points="287.366,693.82 306.264,693.82 "/>
<polyline clip-path="url(#clip140)" style="stroke:#000000; stroke-linecap:round; stroke-linejoin:round; stroke-width:4; stroke-opacity:1; fill:none" points="287.366,472.038 306.264,472.038 "/>
<polyline clip-path="url(#clip140)" style="stroke:#000000; stroke-linecap:round; stroke-linejoin:round; stroke-width:4; stroke-opacity:1; fill:none" points="287.366,250.256 306.264,250.256 "/>
<path clip-path="url(#clip140)" d="M114.26 1359.62 L143.936 1359.62 L143.936 1363.55 L114.26 1363.55 L114.26 1359.62 Z" fill="#000000" fill-rule="evenodd" fill-opacity="1" /><path clip-path="url(#clip140)" d="M164.028 1344.96 Q160.417 1344.96 158.589 1348.53 Q156.783 1352.07 156.783 1359.2 Q156.783 1366.31 158.589 1369.87 Q160.417 1373.41 164.028 1373.41 Q167.663 1373.41 169.468 1369.87 Q171.297 1366.31 171.297 1359.2 Q171.297 1352.07 169.468 1348.53 Q167.663 1344.96 164.028 1344.96 M164.028 1341.26 Q169.839 1341.26 172.894 1345.87 Q175.973 1350.45 175.973 1359.2 Q175.973 1367.93 172.894 1372.53 Q169.839 1377.12 164.028 1377.12 Q158.218 1377.12 155.14 1372.53 Q152.084 1367.93 152.084 1359.2 Q152.084 1350.45 155.14 1345.87 Q158.218 1341.26 164.028 1341.26 Z" fill="#000000" fill-rule="evenodd" fill-opacity="1" /><path clip-path="url(#clip140)" d="M184.19 1370.57 L189.075 1370.57 L189.075 1376.45 L184.19 1376.45 L184.19 1370.57 Z" fill="#000000" fill-rule="evenodd" fill-opacity="1" /><path clip-path="url(#clip140)" d="M199.306 1341.89 L217.662 1341.89 L217.662 1345.82 L203.588 1345.82 L203.588 1354.29 Q204.607 1353.95 205.625 1353.78 Q206.644 1353.6 207.662 1353.6 Q213.449 1353.6 216.829 1356.77 Q220.209 1359.94 220.209 1365.36 Q220.209 1370.94 216.736 1374.04 Q213.264 1377.12 206.945 1377.12 Q204.769 1377.12 202.5 1376.75 Q200.255 1376.38 197.848 1375.64 L197.848 1370.94 Q199.931 1372.07 202.153 1372.63 Q204.375 1373.18 206.852 1373.18 Q210.857 1373.18 213.195 1371.08 Q215.533 1368.97 215.533 1365.36 Q215.533 1361.75 213.195 1359.64 Q210.857 1357.53 206.852 1357.53 Q204.977 1357.53 203.102 1357.95 Q201.25 1358.37 199.306 1359.25 L199.306 1341.89 Z" fill="#000000" fill-rule="evenodd" fill-opacity="1" /><path clip-path="url(#clip140)" d="M239.422 1344.96 Q235.81 1344.96 233.982 1348.53 Q232.176 1352.07 232.176 1359.2 Q232.176 1366.31 233.982 1369.87 Q235.81 1373.41 239.422 1373.41 Q243.056 1373.41 244.861 1369.87 Q246.69 1366.31 246.69 1359.2 Q246.69 1352.07 244.861 1348.53 Q243.056 1344.96 239.422 1344.96 M239.422 1341.26 Q245.232 1341.26 248.287 1345.87 Q251.366 1350.45 251.366 1359.2 Q251.366 1367.93 248.287 1372.53 Q245.232 1377.12 239.422 1377.12 Q233.611 1377.12 230.533 1372.53 Q227.477 1367.93 227.477 1359.2 Q227.477 1350.45 230.533 1345.87 Q233.611 1341.26 239.422 1341.26 Z" fill="#000000" fill-rule="evenodd" fill-opacity="1" /><path clip-path="url(#clip140)" d="M115.256 1137.84 L144.931 1137.84 L144.931 1141.77 L115.256 1141.77 L115.256 1137.84 Z" fill="#000000" fill-rule="evenodd" fill-opacity="1" /><path clip-path="url(#clip140)" d="M165.024 1123.18 Q161.413 1123.18 159.584 1126.75 Q157.778 1130.29 157.778 1137.42 Q157.778 1144.53 159.584 1148.09 Q161.413 1151.63 165.024 1151.63 Q168.658 1151.63 170.464 1148.09 Q172.292 1144.53 172.292 1137.42 Q172.292 1130.29 170.464 1126.75 Q168.658 1123.18 165.024 1123.18 M165.024 1119.48 Q170.834 1119.48 173.889 1124.09 Q176.968 1128.67 176.968 1137.42 Q176.968 1146.15 173.889 1150.75 Q170.834 1155.34 165.024 1155.34 Q159.214 1155.34 156.135 1150.75 Q153.079 1146.15 153.079 1137.42 Q153.079 1128.67 156.135 1124.09 Q159.214 1119.48 165.024 1119.48 Z" fill="#000000" fill-rule="evenodd" fill-opacity="1" /><path clip-path="url(#clip140)" d="M185.186 1148.78 L190.07 1148.78 L190.07 1154.66 L185.186 1154.66 L185.186 1148.78 Z" fill="#000000" fill-rule="evenodd" fill-opacity="1" /><path clip-path="url(#clip140)" d="M204.283 1150.73 L220.602 1150.73 L220.602 1154.66 L198.658 1154.66 L198.658 1150.73 Q201.32 1147.97 205.903 1143.34 Q210.51 1138.69 211.69 1137.35 Q213.936 1134.83 214.815 1133.09 Q215.718 1131.33 215.718 1129.64 Q215.718 1126.89 213.774 1125.15 Q211.852 1123.41 208.75 1123.41 Q206.551 1123.41 204.098 1124.18 Q201.667 1124.94 198.889 1126.49 L198.889 1121.77 Q201.713 1120.64 204.167 1120.06 Q206.621 1119.48 208.658 1119.48 Q214.028 1119.48 217.223 1122.16 Q220.417 1124.85 220.417 1129.34 Q220.417 1131.47 219.607 1133.39 Q218.82 1135.29 216.713 1137.88 Q216.135 1138.55 213.033 1141.77 Q209.931 1144.97 204.283 1150.73 Z" fill="#000000" fill-rule="evenodd" fill-opacity="1" /><path clip-path="url(#clip140)" d="M230.463 1120.1 L248.82 1120.1 L248.82 1124.04 L234.746 1124.04 L234.746 1132.51 Q235.764 1132.16 236.783 1132 Q237.801 1131.82 238.82 1131.82 Q244.607 1131.82 247.986 1134.99 Q251.366 1138.16 251.366 1143.58 Q251.366 1149.15 247.894 1152.26 Q244.421 1155.34 238.102 1155.34 Q235.926 1155.34 233.658 1154.97 Q231.412 1154.59 229.005 1153.85 L229.005 1149.15 Q231.088 1150.29 233.31 1150.84 Q235.533 1151.4 238.009 1151.4 Q242.014 1151.4 244.352 1149.29 Q246.69 1147.19 246.69 1143.58 Q246.69 1139.97 244.352 1137.86 Q242.014 1135.75 238.009 1135.75 Q236.135 1135.75 234.26 1136.17 Q232.408 1136.59 230.463 1137.47 L230.463 1120.1 Z" fill="#000000" fill-rule="evenodd" fill-opacity="1" /><path clip-path="url(#clip140)" d="M164.028 901.401 Q160.417 901.401 158.589 904.966 Q156.783 908.507 156.783 915.637 Q156.783 922.743 158.589 926.308 Q160.417 929.85 164.028 929.85 Q167.663 929.85 169.468 926.308 Q171.297 922.743 171.297 915.637 Q171.297 908.507 169.468 904.966 Q167.663 901.401 164.028 901.401 M164.028 897.697 Q169.839 897.697 172.894 902.304 Q175.973 906.887 175.973 915.637 Q175.973 924.364 172.894 928.97 Q169.839 933.553 164.028 933.553 Q158.218 933.553 155.14 928.97 Q152.084 924.364 152.084 915.637 Q152.084 906.887 155.14 902.304 Q158.218 897.697 164.028 897.697 Z" fill="#000000" fill-rule="evenodd" fill-opacity="1" /><path clip-path="url(#clip140)" d="M184.19 927.003 L189.075 927.003 L189.075 932.882 L184.19 932.882 L184.19 927.003 Z" fill="#000000" fill-rule="evenodd" fill-opacity="1" /><path clip-path="url(#clip140)" d="M209.26 901.401 Q205.649 901.401 203.82 904.966 Q202.014 908.507 202.014 915.637 Q202.014 922.743 203.82 926.308 Q205.649 929.85 209.26 929.85 Q212.894 929.85 214.699 926.308 Q216.528 922.743 216.528 915.637 Q216.528 908.507 214.699 904.966 Q212.894 901.401 209.26 901.401 M209.26 897.697 Q215.07 897.697 218.125 902.304 Q221.204 906.887 221.204 915.637 Q221.204 924.364 218.125 928.97 Q215.07 933.553 209.26 933.553 Q203.449 933.553 200.371 928.97 Q197.315 924.364 197.315 915.637 Q197.315 906.887 200.371 902.304 Q203.449 897.697 209.26 897.697 Z" fill="#000000" fill-rule="evenodd" fill-opacity="1" /><path clip-path="url(#clip140)" d="M239.422 901.401 Q235.81 901.401 233.982 904.966 Q232.176 908.507 232.176 915.637 Q232.176 922.743 233.982 926.308 Q235.81 929.85 239.422 929.85 Q243.056 929.85 244.861 926.308 Q246.69 922.743 246.69 915.637 Q246.69 908.507 244.861 904.966 Q243.056 901.401 239.422 901.401 M239.422 897.697 Q245.232 897.697 248.287 902.304 Q251.366 906.887 251.366 915.637 Q251.366 924.364 248.287 928.97 Q245.232 933.553 239.422 933.553 Q233.611 933.553 230.533 928.97 Q227.477 924.364 227.477 915.637 Q227.477 906.887 230.533 902.304 Q233.611 897.697 239.422 897.697 Z" fill="#000000" fill-rule="evenodd" fill-opacity="1" /><path clip-path="url(#clip140)" d="M165.024 679.619 Q161.413 679.619 159.584 683.184 Q157.778 686.725 157.778 693.855 Q157.778 700.961 159.584 704.526 Q161.413 708.068 165.024 708.068 Q168.658 708.068 170.464 704.526 Q172.292 700.961 172.292 693.855 Q172.292 686.725 170.464 683.184 Q168.658 679.619 165.024 679.619 M165.024 675.915 Q170.834 675.915 173.889 680.522 Q176.968 685.105 176.968 693.855 Q176.968 702.582 173.889 707.188 Q170.834 711.771 165.024 711.771 Q159.214 711.771 156.135 707.188 Q153.079 702.582 153.079 693.855 Q153.079 685.105 156.135 680.522 Q159.214 675.915 165.024 675.915 Z" fill="#000000" fill-rule="evenodd" fill-opacity="1" /><path clip-path="url(#clip140)" d="M185.186 705.221 L190.07 705.221 L190.07 711.1 L185.186 711.1 L185.186 705.221 Z" fill="#000000" fill-rule="evenodd" fill-opacity="1" /><path clip-path="url(#clip140)" d="M204.283 707.165 L220.602 707.165 L220.602 711.1 L198.658 711.1 L198.658 707.165 Q201.32 704.41 205.903 699.781 Q210.51 695.128 211.69 693.785 Q213.936 691.262 214.815 689.526 Q215.718 687.767 215.718 686.077 Q215.718 683.323 213.774 681.586 Q211.852 679.85 208.75 679.85 Q206.551 679.85 204.098 680.614 Q201.667 681.378 198.889 682.929 L198.889 678.207 Q201.713 677.073 204.167 676.494 Q206.621 675.915 208.658 675.915 Q214.028 675.915 217.223 678.6 Q220.417 681.285 220.417 685.776 Q220.417 687.906 219.607 689.827 Q218.82 691.725 216.713 694.318 Q216.135 694.989 213.033 698.207 Q209.931 701.401 204.283 707.165 Z" fill="#000000" fill-rule="evenodd" fill-opacity="1" /><path clip-path="url(#clip140)" d="M230.463 676.54 L248.82 676.54 L248.82 680.475 L234.746 680.475 L234.746 688.947 Q235.764 688.6 236.783 688.438 Q237.801 688.253 238.82 688.253 Q244.607 688.253 247.986 691.424 Q251.366 694.596 251.366 700.012 Q251.366 705.591 247.894 708.693 Q244.421 711.771 238.102 711.771 Q235.926 711.771 233.658 711.401 Q231.412 711.031 229.005 710.29 L229.005 705.591 Q231.088 706.725 233.31 707.281 Q235.533 707.836 238.009 707.836 Q242.014 707.836 244.352 705.73 Q246.69 703.623 246.69 700.012 Q246.69 696.401 244.352 694.295 Q242.014 692.188 238.009 692.188 Q236.135 692.188 234.26 692.605 Q232.408 693.022 230.463 693.901 L230.463 676.54 Z" fill="#000000" fill-rule="evenodd" fill-opacity="1" /><path clip-path="url(#clip140)" d="M164.028 457.837 Q160.417 457.837 158.589 461.402 Q156.783 464.943 156.783 472.073 Q156.783 479.179 158.589 482.744 Q160.417 486.286 164.028 486.286 Q167.663 486.286 169.468 482.744 Q171.297 479.179 171.297 472.073 Q171.297 464.943 169.468 461.402 Q167.663 457.837 164.028 457.837 M164.028 454.133 Q169.839 454.133 172.894 458.74 Q175.973 463.323 175.973 472.073 Q175.973 480.8 172.894 485.406 Q169.839 489.989 164.028 489.989 Q158.218 489.989 155.14 485.406 Q152.084 480.8 152.084 472.073 Q152.084 463.323 155.14 458.74 Q158.218 454.133 164.028 454.133 Z" fill="#000000" fill-rule="evenodd" fill-opacity="1" /><path clip-path="url(#clip140)" d="M184.19 483.439 L189.075 483.439 L189.075 489.318 L184.19 489.318 L184.19 483.439 Z" fill="#000000" fill-rule="evenodd" fill-opacity="1" /><path clip-path="url(#clip140)" d="M199.306 454.758 L217.662 454.758 L217.662 458.693 L203.588 458.693 L203.588 467.165 Q204.607 466.818 205.625 466.656 Q206.644 466.471 207.662 466.471 Q213.449 466.471 216.829 469.642 Q220.209 472.814 220.209 478.23 Q220.209 483.809 216.736 486.911 Q213.264 489.989 206.945 489.989 Q204.769 489.989 202.5 489.619 Q200.255 489.249 197.848 488.508 L197.848 483.809 Q199.931 484.943 202.153 485.499 Q204.375 486.054 206.852 486.054 Q210.857 486.054 213.195 483.948 Q215.533 481.841 215.533 478.23 Q215.533 474.619 213.195 472.513 Q210.857 470.406 206.852 470.406 Q204.977 470.406 203.102 470.823 Q201.25 471.24 199.306 472.119 L199.306 454.758 Z" fill="#000000" fill-rule="evenodd" fill-opacity="1" /><path clip-path="url(#clip140)" d="M239.422 457.837 Q235.81 457.837 233.982 461.402 Q232.176 464.943 232.176 472.073 Q232.176 479.179 233.982 482.744 Q235.81 486.286 239.422 486.286 Q243.056 486.286 244.861 482.744 Q246.69 479.179 246.69 472.073 Q246.69 464.943 244.861 461.402 Q243.056 457.837 239.422 457.837 M239.422 454.133 Q245.232 454.133 248.287 458.74 Q251.366 463.323 251.366 472.073 Q251.366 480.8 248.287 485.406 Q245.232 489.989 239.422 489.989 Q233.611 489.989 230.533 485.406 Q227.477 480.8 227.477 472.073 Q227.477 463.323 230.533 458.74 Q233.611 454.133 239.422 454.133 Z" fill="#000000" fill-rule="evenodd" fill-opacity="1" /><path clip-path="url(#clip140)" d="M165.024 236.055 Q161.413 236.055 159.584 239.62 Q157.778 243.161 157.778 250.291 Q157.778 257.397 159.584 260.962 Q161.413 264.504 165.024 264.504 Q168.658 264.504 170.464 260.962 Q172.292 257.397 172.292 250.291 Q172.292 243.161 170.464 239.62 Q168.658 236.055 165.024 236.055 M165.024 232.351 Q170.834 232.351 173.889 236.958 Q176.968 241.541 176.968 250.291 Q176.968 259.018 173.889 263.624 Q170.834 268.207 165.024 268.207 Q159.214 268.207 156.135 263.624 Q153.079 259.018 153.079 250.291 Q153.079 241.541 156.135 236.958 Q159.214 232.351 165.024 232.351 Z" fill="#000000" fill-rule="evenodd" fill-opacity="1" /><path clip-path="url(#clip140)" d="M185.186 261.656 L190.07 261.656 L190.07 267.536 L185.186 267.536 L185.186 261.656 Z" fill="#000000" fill-rule="evenodd" fill-opacity="1" /><path clip-path="url(#clip140)" d="M199.075 232.976 L221.297 232.976 L221.297 234.967 L208.75 267.536 L203.866 267.536 L215.672 236.911 L199.075 236.911 L199.075 232.976 Z" fill="#000000" fill-rule="evenodd" fill-opacity="1" /><path clip-path="url(#clip140)" d="M230.463 232.976 L248.82 232.976 L248.82 236.911 L234.746 236.911 L234.746 245.383 Q235.764 245.036 236.783 244.874 Q237.801 244.689 238.82 244.689 Q244.607 244.689 247.986 247.86 Q251.366 251.032 251.366 256.448 Q251.366 262.027 247.894 265.129 Q244.421 268.207 238.102 268.207 Q235.926 268.207 233.658 267.837 Q231.412 267.467 229.005 266.726 L229.005 262.027 Q231.088 263.161 233.31 263.717 Q235.533 264.272 238.009 264.272 Q242.014 264.272 244.352 262.166 Q246.69 260.059 246.69 256.448 Q246.69 252.837 244.352 250.731 Q242.014 248.624 238.009 248.624 Q236.135 248.624 234.26 249.041 Q232.408 249.457 230.463 250.337 L230.463 232.976 Z" fill="#000000" fill-rule="evenodd" fill-opacity="1" /><path clip-path="url(#clip140)" d="M19.7307 790.94 Q19.7307 793.486 21.5131 795.237 Q23.2636 796.988 25.8099 796.988 Q28.3244 796.988 30.0749 795.237 Q31.7937 793.486 31.7937 790.94 Q31.7937 788.394 30.0749 786.643 Q28.3244 784.893 25.8099 784.893 Q23.2955 784.893 21.5131 786.675 Q19.7307 788.426 19.7307 790.94 M15.6248 790.94 Q15.6248 788.903 16.4205 787.025 Q17.1844 785.147 18.6485 783.779 Q20.0808 782.315 21.895 781.583 Q23.7092 780.851 25.8099 780.851 Q30.0113 780.851 32.9395 783.811 Q35.8359 786.739 35.8359 791.004 Q35.8359 795.301 32.9713 798.165 Q30.1068 801.03 25.8099 801.03 Q21.5449 801.03 18.5848 798.102 Q15.6248 795.173 15.6248 790.94 Z" fill="#000000" fill-rule="evenodd" fill-opacity="1" /><path clip-path="url(#clip140)" d="M20.1444 732.662 L26.9239 732.662 Q23.9002 735.909 22.4043 739.601 Q20.9083 743.261 20.9083 747.399 Q20.9083 755.547 25.9054 759.876 Q30.8707 764.204 40.2919 764.204 Q49.6813 764.204 54.6784 759.876 Q59.6436 755.547 59.6436 747.399 Q59.6436 743.261 58.1477 739.601 Q56.6518 735.909 53.6281 732.662 L60.3439 732.662 Q62.6355 736.036 63.7814 739.824 Q64.9272 743.579 64.9272 747.781 Q64.9272 758.571 58.3387 764.777 Q51.7183 770.984 40.2919 770.984 Q28.8336 770.984 22.2451 764.777 Q15.6248 758.571 15.6248 747.781 Q15.6248 743.516 16.7706 739.76 Q17.8846 735.972 20.1444 732.662 Z" fill="#000000" fill-rule="evenodd" fill-opacity="1" /><circle clip-path="url(#clip142)" cx="345.82" cy="1195.79" r="14.4" fill="#009af9" fill-rule="evenodd" fill-opacity="1" stroke="#000000" stroke-opacity="1" stroke-width="3.2"/>
<circle clip-path="url(#clip142)" cx="359.838" cy="1121.63" r="14.4" fill="#009af9" fill-rule="evenodd" fill-opacity="1" stroke="#000000" stroke-opacity="1" stroke-width="3.2"/>
<circle clip-path="url(#clip142)" cx="373.856" cy="1177.78" r="14.4" fill="#009af9" fill-rule="evenodd" fill-opacity="1" stroke="#000000" stroke-opacity="1" stroke-width="3.2"/>
<circle clip-path="url(#clip142)" cx="387.874" cy="1222.97" r="14.4" fill="#009af9" fill-rule="evenodd" fill-opacity="1" stroke="#000000" stroke-opacity="1" stroke-width="3.2"/>
<circle clip-path="url(#clip142)" cx="401.892" cy="1352.35" r="14.4" fill="#009af9" fill-rule="evenodd" fill-opacity="1" stroke="#000000" stroke-opacity="1" stroke-width="3.2"/>
<circle clip-path="url(#clip142)" cx="415.91" cy="1333.55" r="14.4" fill="#009af9" fill-rule="evenodd" fill-opacity="1" stroke="#000000" stroke-opacity="1" stroke-width="3.2"/>
<circle clip-path="url(#clip142)" cx="429.927" cy="1289" r="14.4" fill="#009af9" fill-rule="evenodd" fill-opacity="1" stroke="#000000" stroke-opacity="1" stroke-width="3.2"/>
<circle clip-path="url(#clip142)" cx="443.945" cy="1358.09" r="14.4" fill="#009af9" fill-rule="evenodd" fill-opacity="1" stroke="#000000" stroke-opacity="1" stroke-width="3.2"/>
<circle clip-path="url(#clip142)" cx="457.963" cy="1252.16" r="14.4" fill="#009af9" fill-rule="evenodd" fill-opacity="1" stroke="#000000" stroke-opacity="1" stroke-width="3.2"/>
<circle clip-path="url(#clip142)" cx="471.981" cy="1137.29" r="14.4" fill="#009af9" fill-rule="evenodd" fill-opacity="1" stroke="#000000" stroke-opacity="1" stroke-width="3.2"/>
<circle clip-path="url(#clip142)" cx="485.999" cy="1365.25" r="14.4" fill="#009af9" fill-rule="evenodd" fill-opacity="1" stroke="#000000" stroke-opacity="1" stroke-width="3.2"/>
<circle clip-path="url(#clip142)" cx="500.017" cy="1271.62" r="14.4" fill="#009af9" fill-rule="evenodd" fill-opacity="1" stroke="#000000" stroke-opacity="1" stroke-width="3.2"/>
<circle clip-path="url(#clip142)" cx="514.035" cy="1365.87" r="14.4" fill="#009af9" fill-rule="evenodd" fill-opacity="1" stroke="#000000" stroke-opacity="1" stroke-width="3.2"/>
<circle clip-path="url(#clip142)" cx="528.052" cy="1354.39" r="14.4" fill="#009af9" fill-rule="evenodd" fill-opacity="1" stroke="#000000" stroke-opacity="1" stroke-width="3.2"/>
<circle clip-path="url(#clip142)" cx="542.07" cy="1344.76" r="14.4" fill="#009af9" fill-rule="evenodd" fill-opacity="1" stroke="#000000" stroke-opacity="1" stroke-width="3.2"/>
<circle clip-path="url(#clip142)" cx="556.088" cy="1313.7" r="14.4" fill="#009af9" fill-rule="evenodd" fill-opacity="1" stroke="#000000" stroke-opacity="1" stroke-width="3.2"/>
<circle clip-path="url(#clip142)" cx="570.106" cy="1167.55" r="14.4" fill="#009af9" fill-rule="evenodd" fill-opacity="1" stroke="#000000" stroke-opacity="1" stroke-width="3.2"/>
<circle clip-path="url(#clip142)" cx="584.124" cy="1146.08" r="14.4" fill="#009af9" fill-rule="evenodd" fill-opacity="1" stroke="#000000" stroke-opacity="1" stroke-width="3.2"/>
<circle clip-path="url(#clip142)" cx="598.142" cy="1346.56" r="14.4" fill="#009af9" fill-rule="evenodd" fill-opacity="1" stroke="#000000" stroke-opacity="1" stroke-width="3.2"/>
<circle clip-path="url(#clip142)" cx="612.159" cy="1230.92" r="14.4" fill="#009af9" fill-rule="evenodd" fill-opacity="1" stroke="#000000" stroke-opacity="1" stroke-width="3.2"/>
<circle clip-path="url(#clip142)" cx="626.177" cy="1123.62" r="14.4" fill="#009af9" fill-rule="evenodd" fill-opacity="1" stroke="#000000" stroke-opacity="1" stroke-width="3.2"/>
<circle clip-path="url(#clip142)" cx="640.195" cy="1175.91" r="14.4" fill="#009af9" fill-rule="evenodd" fill-opacity="1" stroke="#000000" stroke-opacity="1" stroke-width="3.2"/>
<circle clip-path="url(#clip142)" cx="654.213" cy="1305.04" r="14.4" fill="#009af9" fill-rule="evenodd" fill-opacity="1" stroke="#000000" stroke-opacity="1" stroke-width="3.2"/>
<circle clip-path="url(#clip142)" cx="668.231" cy="1388.73" r="14.4" fill="#009af9" fill-rule="evenodd" fill-opacity="1" stroke="#000000" stroke-opacity="1" stroke-width="3.2"/>
<circle clip-path="url(#clip142)" cx="682.249" cy="1445.72" r="14.4" fill="#009af9" fill-rule="evenodd" fill-opacity="1" stroke="#000000" stroke-opacity="1" stroke-width="3.2"/>
<circle clip-path="url(#clip142)" cx="696.267" cy="1277.33" r="14.4" fill="#009af9" fill-rule="evenodd" fill-opacity="1" stroke="#000000" stroke-opacity="1" stroke-width="3.2"/>
<circle clip-path="url(#clip142)" cx="710.284" cy="1198.72" r="14.4" fill="#009af9" fill-rule="evenodd" fill-opacity="1" stroke="#000000" stroke-opacity="1" stroke-width="3.2"/>
<circle clip-path="url(#clip142)" cx="724.302" cy="1362.85" r="14.4" fill="#009af9" fill-rule="evenodd" fill-opacity="1" stroke="#000000" stroke-opacity="1" stroke-width="3.2"/>
<circle clip-path="url(#clip142)" cx="738.32" cy="1371.47" r="14.4" fill="#009af9" fill-rule="evenodd" fill-opacity="1" stroke="#000000" stroke-opacity="1" stroke-width="3.2"/>
<circle clip-path="url(#clip142)" cx="752.338" cy="1390.89" r="14.4" fill="#009af9" fill-rule="evenodd" fill-opacity="1" stroke="#000000" stroke-opacity="1" stroke-width="3.2"/>
<circle clip-path="url(#clip142)" cx="766.356" cy="1386.69" r="14.4" fill="#009af9" fill-rule="evenodd" fill-opacity="1" stroke="#000000" stroke-opacity="1" stroke-width="3.2"/>
<circle clip-path="url(#clip142)" cx="780.374" cy="1393.95" r="14.4" fill="#009af9" fill-rule="evenodd" fill-opacity="1" stroke="#000000" stroke-opacity="1" stroke-width="3.2"/>
<circle clip-path="url(#clip142)" cx="794.392" cy="1337.59" r="14.4" fill="#009af9" fill-rule="evenodd" fill-opacity="1" stroke="#000000" stroke-opacity="1" stroke-width="3.2"/>
<circle clip-path="url(#clip142)" cx="808.409" cy="1330.03" r="14.4" fill="#009af9" fill-rule="evenodd" fill-opacity="1" stroke="#000000" stroke-opacity="1" stroke-width="3.2"/>
<circle clip-path="url(#clip142)" cx="822.427" cy="1148.56" r="14.4" fill="#009af9" fill-rule="evenodd" fill-opacity="1" stroke="#000000" stroke-opacity="1" stroke-width="3.2"/>
<circle clip-path="url(#clip142)" cx="836.445" cy="1085.79" r="14.4" fill="#009af9" fill-rule="evenodd" fill-opacity="1" stroke="#000000" stroke-opacity="1" stroke-width="3.2"/>
<circle clip-path="url(#clip142)" cx="850.463" cy="1288.38" r="14.4" fill="#009af9" fill-rule="evenodd" fill-opacity="1" stroke="#000000" stroke-opacity="1" stroke-width="3.2"/>
<circle clip-path="url(#clip142)" cx="864.481" cy="1397.33" r="14.4" fill="#009af9" fill-rule="evenodd" fill-opacity="1" stroke="#000000" stroke-opacity="1" stroke-width="3.2"/>
<circle clip-path="url(#clip142)" cx="878.499" cy="1292.26" r="14.4" fill="#009af9" fill-rule="evenodd" fill-opacity="1" stroke="#000000" stroke-opacity="1" stroke-width="3.2"/>
<circle clip-path="url(#clip142)" cx="892.516" cy="1204.38" r="14.4" fill="#009af9" fill-rule="evenodd" fill-opacity="1" stroke="#000000" stroke-opacity="1" stroke-width="3.2"/>
<circle clip-path="url(#clip142)" cx="906.534" cy="1180.48" r="14.4" fill="#009af9" fill-rule="evenodd" fill-opacity="1" stroke="#000000" stroke-opacity="1" stroke-width="3.2"/>
<circle clip-path="url(#clip142)" cx="920.552" cy="1129.11" r="14.4" fill="#009af9" fill-rule="evenodd" fill-opacity="1" stroke="#000000" stroke-opacity="1" stroke-width="3.2"/>
<circle clip-path="url(#clip142)" cx="934.57" cy="1216.54" r="14.4" fill="#009af9" fill-rule="evenodd" fill-opacity="1" stroke="#000000" stroke-opacity="1" stroke-width="3.2"/>
<circle clip-path="url(#clip142)" cx="948.588" cy="1197.65" r="14.4" fill="#009af9" fill-rule="evenodd" fill-opacity="1" stroke="#000000" stroke-opacity="1" stroke-width="3.2"/>
<circle clip-path="url(#clip142)" cx="962.606" cy="1192.44" r="14.4" fill="#009af9" fill-rule="evenodd" fill-opacity="1" stroke="#000000" stroke-opacity="1" stroke-width="3.2"/>
<circle clip-path="url(#clip142)" cx="976.624" cy="1166.15" r="14.4" fill="#009af9" fill-rule="evenodd" fill-opacity="1" stroke="#000000" stroke-opacity="1" stroke-width="3.2"/>
<circle clip-path="url(#clip142)" cx="990.641" cy="1024.57" r="14.4" fill="#009af9" fill-rule="evenodd" fill-opacity="1" stroke="#000000" stroke-opacity="1" stroke-width="3.2"/>
<circle clip-path="url(#clip142)" cx="1004.66" cy="1119.11" r="14.4" fill="#009af9" fill-rule="evenodd" fill-opacity="1" stroke="#000000" stroke-opacity="1" stroke-width="3.2"/>
<circle clip-path="url(#clip142)" cx="1018.68" cy="1099.03" r="14.4" fill="#009af9" fill-rule="evenodd" fill-opacity="1" stroke="#000000" stroke-opacity="1" stroke-width="3.2"/>
<circle clip-path="url(#clip142)" cx="1032.69" cy="1264.03" r="14.4" fill="#009af9" fill-rule="evenodd" fill-opacity="1" stroke="#000000" stroke-opacity="1" stroke-width="3.2"/>
<circle clip-path="url(#clip142)" cx="1046.71" cy="1072.45" r="14.4" fill="#009af9" fill-rule="evenodd" fill-opacity="1" stroke="#000000" stroke-opacity="1" stroke-width="3.2"/>
<circle clip-path="url(#clip142)" cx="1060.73" cy="1007.33" r="14.4" fill="#009af9" fill-rule="evenodd" fill-opacity="1" stroke="#000000" stroke-opacity="1" stroke-width="3.2"/>
<circle clip-path="url(#clip142)" cx="1074.75" cy="1044.65" r="14.4" fill="#009af9" fill-rule="evenodd" fill-opacity="1" stroke="#000000" stroke-opacity="1" stroke-width="3.2"/>
<circle clip-path="url(#clip142)" cx="1088.77" cy="1201.56" r="14.4" fill="#009af9" fill-rule="evenodd" fill-opacity="1" stroke="#000000" stroke-opacity="1" stroke-width="3.2"/>
<circle clip-path="url(#clip142)" cx="1102.78" cy="1070.26" r="14.4" fill="#009af9" fill-rule="evenodd" fill-opacity="1" stroke="#000000" stroke-opacity="1" stroke-width="3.2"/>
<circle clip-path="url(#clip142)" cx="1116.8" cy="1098.4" r="14.4" fill="#009af9" fill-rule="evenodd" fill-opacity="1" stroke="#000000" stroke-opacity="1" stroke-width="3.2"/>
<circle clip-path="url(#clip142)" cx="1130.82" cy="1065.99" r="14.4" fill="#009af9" fill-rule="evenodd" fill-opacity="1" stroke="#000000" stroke-opacity="1" stroke-width="3.2"/>
<circle clip-path="url(#clip142)" cx="1144.84" cy="932.634" r="14.4" fill="#009af9" fill-rule="evenodd" fill-opacity="1" stroke="#000000" stroke-opacity="1" stroke-width="3.2"/>
<circle clip-path="url(#clip142)" cx="1158.86" cy="926.426" r="14.4" fill="#009af9" fill-rule="evenodd" fill-opacity="1" stroke="#000000" stroke-opacity="1" stroke-width="3.2"/>
<circle clip-path="url(#clip142)" cx="1172.87" cy="951.794" r="14.4" fill="#009af9" fill-rule="evenodd" fill-opacity="1" stroke="#000000" stroke-opacity="1" stroke-width="3.2"/>
<circle clip-path="url(#clip142)" cx="1186.89" cy="848.237" r="14.4" fill="#009af9" fill-rule="evenodd" fill-opacity="1" stroke="#000000" stroke-opacity="1" stroke-width="3.2"/>
<circle clip-path="url(#clip142)" cx="1200.91" cy="881.777" r="14.4" fill="#009af9" fill-rule="evenodd" fill-opacity="1" stroke="#000000" stroke-opacity="1" stroke-width="3.2"/>
<circle clip-path="url(#clip142)" cx="1214.93" cy="914.355" r="14.4" fill="#009af9" fill-rule="evenodd" fill-opacity="1" stroke="#000000" stroke-opacity="1" stroke-width="3.2"/>
<circle clip-path="url(#clip142)" cx="1228.94" cy="909.912" r="14.4" fill="#009af9" fill-rule="evenodd" fill-opacity="1" stroke="#000000" stroke-opacity="1" stroke-width="3.2"/>
<circle clip-path="url(#clip142)" cx="1242.96" cy="787.762" r="14.4" fill="#009af9" fill-rule="evenodd" fill-opacity="1" stroke="#000000" stroke-opacity="1" stroke-width="3.2"/>
<circle clip-path="url(#clip142)" cx="1256.98" cy="877.377" r="14.4" fill="#009af9" fill-rule="evenodd" fill-opacity="1" stroke="#000000" stroke-opacity="1" stroke-width="3.2"/>
<circle clip-path="url(#clip142)" cx="1271" cy="1021" r="14.4" fill="#009af9" fill-rule="evenodd" fill-opacity="1" stroke="#000000" stroke-opacity="1" stroke-width="3.2"/>
<circle clip-path="url(#clip142)" cx="1285.02" cy="996.513" r="14.4" fill="#009af9" fill-rule="evenodd" fill-opacity="1" stroke="#000000" stroke-opacity="1" stroke-width="3.2"/>
<circle clip-path="url(#clip142)" cx="1299.03" cy="1026.19" r="14.4" fill="#009af9" fill-rule="evenodd" fill-opacity="1" stroke="#000000" stroke-opacity="1" stroke-width="3.2"/>
<circle clip-path="url(#clip142)" cx="1313.05" cy="1043.17" r="14.4" fill="#009af9" fill-rule="evenodd" fill-opacity="1" stroke="#000000" stroke-opacity="1" stroke-width="3.2"/>
<circle clip-path="url(#clip142)" cx="1327.07" cy="1116.64" r="14.4" fill="#009af9" fill-rule="evenodd" fill-opacity="1" stroke="#000000" stroke-opacity="1" stroke-width="3.2"/>
<circle clip-path="url(#clip142)" cx="1341.09" cy="969.854" r="14.4" fill="#009af9" fill-rule="evenodd" fill-opacity="1" stroke="#000000" stroke-opacity="1" stroke-width="3.2"/>
<circle clip-path="url(#clip142)" cx="1355.11" cy="901.981" r="14.4" fill="#009af9" fill-rule="evenodd" fill-opacity="1" stroke="#000000" stroke-opacity="1" stroke-width="3.2"/>
<circle clip-path="url(#clip142)" cx="1369.12" cy="846.734" r="14.4" fill="#009af9" fill-rule="evenodd" fill-opacity="1" stroke="#000000" stroke-opacity="1" stroke-width="3.2"/>
<circle clip-path="url(#clip142)" cx="1383.14" cy="1019.17" r="14.4" fill="#009af9" fill-rule="evenodd" fill-opacity="1" stroke="#000000" stroke-opacity="1" stroke-width="3.2"/>
<circle clip-path="url(#clip142)" cx="1397.16" cy="1090.64" r="14.4" fill="#009af9" fill-rule="evenodd" fill-opacity="1" stroke="#000000" stroke-opacity="1" stroke-width="3.2"/>
<circle clip-path="url(#clip142)" cx="1411.18" cy="1149.06" r="14.4" fill="#009af9" fill-rule="evenodd" fill-opacity="1" stroke="#000000" stroke-opacity="1" stroke-width="3.2"/>
<circle clip-path="url(#clip142)" cx="1425.19" cy="946.949" r="14.4" fill="#009af9" fill-rule="evenodd" fill-opacity="1" stroke="#000000" stroke-opacity="1" stroke-width="3.2"/>
<circle clip-path="url(#clip142)" cx="1439.21" cy="931.245" r="14.4" fill="#009af9" fill-rule="evenodd" fill-opacity="1" stroke="#000000" stroke-opacity="1" stroke-width="3.2"/>
<circle clip-path="url(#clip142)" cx="1453.23" cy="958.189" r="14.4" fill="#009af9" fill-rule="evenodd" fill-opacity="1" stroke="#000000" stroke-opacity="1" stroke-width="3.2"/>
<circle clip-path="url(#clip142)" cx="1467.25" cy="1018.05" r="14.4" fill="#009af9" fill-rule="evenodd" fill-opacity="1" stroke="#000000" stroke-opacity="1" stroke-width="3.2"/>
<circle clip-path="url(#clip142)" cx="1481.27" cy="933.342" r="14.4" fill="#009af9" fill-rule="evenodd" fill-opacity="1" stroke="#000000" stroke-opacity="1" stroke-width="3.2"/>
<circle clip-path="url(#clip142)" cx="1495.28" cy="972.427" r="14.4" fill="#009af9" fill-rule="evenodd" fill-opacity="1" stroke="#000000" stroke-opacity="1" stroke-width="3.2"/>
<circle clip-path="url(#clip142)" cx="1509.3" cy="948.254" r="14.4" fill="#009af9" fill-rule="evenodd" fill-opacity="1" stroke="#000000" stroke-opacity="1" stroke-width="3.2"/>
<circle clip-path="url(#clip142)" cx="1523.32" cy="1186.95" r="14.4" fill="#009af9" fill-rule="evenodd" fill-opacity="1" stroke="#000000" stroke-opacity="1" stroke-width="3.2"/>
<circle clip-path="url(#clip142)" cx="1537.34" cy="1096.92" r="14.4" fill="#009af9" fill-rule="evenodd" fill-opacity="1" stroke="#000000" stroke-opacity="1" stroke-width="3.2"/>
<circle clip-path="url(#clip142)" cx="1551.36" cy="1047.68" r="14.4" fill="#009af9" fill-rule="evenodd" fill-opacity="1" stroke="#000000" stroke-opacity="1" stroke-width="3.2"/>
<circle clip-path="url(#clip142)" cx="1565.37" cy="1019.85" r="14.4" fill="#009af9" fill-rule="evenodd" fill-opacity="1" stroke="#000000" stroke-opacity="1" stroke-width="3.2"/>
<circle clip-path="url(#clip142)" cx="1579.39" cy="1065.2" r="14.4" fill="#009af9" fill-rule="evenodd" fill-opacity="1" stroke="#000000" stroke-opacity="1" stroke-width="3.2"/>
<circle clip-path="url(#clip142)" cx="1593.41" cy="943.428" r="14.4" fill="#009af9" fill-rule="evenodd" fill-opacity="1" stroke="#000000" stroke-opacity="1" stroke-width="3.2"/>
<circle clip-path="url(#clip142)" cx="1607.43" cy="991.103" r="14.4" fill="#009af9" fill-rule="evenodd" fill-opacity="1" stroke="#000000" stroke-opacity="1" stroke-width="3.2"/>
<circle clip-path="url(#clip142)" cx="1621.44" cy="1098.29" r="14.4" fill="#009af9" fill-rule="evenodd" fill-opacity="1" stroke="#000000" stroke-opacity="1" stroke-width="3.2"/>
<circle clip-path="url(#clip142)" cx="1635.46" cy="998.839" r="14.4" fill="#009af9" fill-rule="evenodd" fill-opacity="1" stroke="#000000" stroke-opacity="1" stroke-width="3.2"/>
<circle clip-path="url(#clip142)" cx="1649.48" cy="871.305" r="14.4" fill="#009af9" fill-rule="evenodd" fill-opacity="1" stroke="#000000" stroke-opacity="1" stroke-width="3.2"/>
<circle clip-path="url(#clip142)" cx="1663.5" cy="1068.66" r="14.4" fill="#009af9" fill-rule="evenodd" fill-opacity="1" stroke="#000000" stroke-opacity="1" stroke-width="3.2"/>
<circle clip-path="url(#clip142)" cx="1677.52" cy="1013.86" r="14.4" fill="#009af9" fill-rule="evenodd" fill-opacity="1" stroke="#000000" stroke-opacity="1" stroke-width="3.2"/>
<circle clip-path="url(#clip142)" cx="1691.53" cy="1107.1" r="14.4" fill="#009af9" fill-rule="evenodd" fill-opacity="1" stroke="#000000" stroke-opacity="1" stroke-width="3.2"/>
<circle clip-path="url(#clip142)" cx="1705.55" cy="824.149" r="14.4" fill="#009af9" fill-rule="evenodd" fill-opacity="1" stroke="#000000" stroke-opacity="1" stroke-width="3.2"/>
<circle clip-path="url(#clip142)" cx="1719.57" cy="910.94" r="14.4" fill="#009af9" fill-rule="evenodd" fill-opacity="1" stroke="#000000" stroke-opacity="1" stroke-width="3.2"/>
<circle clip-path="url(#clip142)" cx="1733.59" cy="834.999" r="14.4" fill="#009af9" fill-rule="evenodd" fill-opacity="1" stroke="#000000" stroke-opacity="1" stroke-width="3.2"/>
<circle clip-path="url(#clip142)" cx="1747.61" cy="741.661" r="14.4" fill="#009af9" fill-rule="evenodd" fill-opacity="1" stroke="#000000" stroke-opacity="1" stroke-width="3.2"/>
<circle clip-path="url(#clip142)" cx="1761.62" cy="693.809" r="14.4" fill="#009af9" fill-rule="evenodd" fill-opacity="1" stroke="#000000" stroke-opacity="1" stroke-width="3.2"/>
<circle clip-path="url(#clip142)" cx="1775.64" cy="885.206" r="14.4" fill="#009af9" fill-rule="evenodd" fill-opacity="1" stroke="#000000" stroke-opacity="1" stroke-width="3.2"/>
<circle clip-path="url(#clip142)" cx="1789.66" cy="717.029" r="14.4" fill="#009af9" fill-rule="evenodd" fill-opacity="1" stroke="#000000" stroke-opacity="1" stroke-width="3.2"/>
<circle clip-path="url(#clip142)" cx="1803.68" cy="873.016" r="14.4" fill="#009af9" fill-rule="evenodd" fill-opacity="1" stroke="#000000" stroke-opacity="1" stroke-width="3.2"/>
<circle clip-path="url(#clip142)" cx="1817.69" cy="871.485" r="14.4" fill="#009af9" fill-rule="evenodd" fill-opacity="1" stroke="#000000" stroke-opacity="1" stroke-width="3.2"/>
<circle clip-path="url(#clip142)" cx="1831.71" cy="830.716" r="14.4" fill="#009af9" fill-rule="evenodd" fill-opacity="1" stroke="#000000" stroke-opacity="1" stroke-width="3.2"/>
<circle clip-path="url(#clip142)" cx="1845.73" cy="700.007" r="14.4" fill="#009af9" fill-rule="evenodd" fill-opacity="1" stroke="#000000" stroke-opacity="1" stroke-width="3.2"/>
<circle clip-path="url(#clip142)" cx="1859.75" cy="665.297" r="14.4" fill="#009af9" fill-rule="evenodd" fill-opacity="1" stroke="#000000" stroke-opacity="1" stroke-width="3.2"/>
<circle clip-path="url(#clip142)" cx="1873.77" cy="756.584" r="14.4" fill="#009af9" fill-rule="evenodd" fill-opacity="1" stroke="#000000" stroke-opacity="1" stroke-width="3.2"/>
<circle clip-path="url(#clip142)" cx="1887.78" cy="595.737" r="14.4" fill="#009af9" fill-rule="evenodd" fill-opacity="1" stroke="#000000" stroke-opacity="1" stroke-width="3.2"/>
<circle clip-path="url(#clip142)" cx="1901.8" cy="614.958" r="14.4" fill="#009af9" fill-rule="evenodd" fill-opacity="1" stroke="#000000" stroke-opacity="1" stroke-width="3.2"/>
<circle clip-path="url(#clip142)" cx="1915.82" cy="804.803" r="14.4" fill="#009af9" fill-rule="evenodd" fill-opacity="1" stroke="#000000" stroke-opacity="1" stroke-width="3.2"/>
<circle clip-path="url(#clip142)" cx="1929.84" cy="768.642" r="14.4" fill="#009af9" fill-rule="evenodd" fill-opacity="1" stroke="#000000" stroke-opacity="1" stroke-width="3.2"/>
<circle clip-path="url(#clip142)" cx="1943.86" cy="708.414" r="14.4" fill="#009af9" fill-rule="evenodd" fill-opacity="1" stroke="#000000" stroke-opacity="1" stroke-width="3.2"/>
<circle clip-path="url(#clip142)" cx="1957.87" cy="581.274" r="14.4" fill="#009af9" fill-rule="evenodd" fill-opacity="1" stroke="#000000" stroke-opacity="1" stroke-width="3.2"/>
<circle clip-path="url(#clip142)" cx="1971.89" cy="670.143" r="14.4" fill="#009af9" fill-rule="evenodd" fill-opacity="1" stroke="#000000" stroke-opacity="1" stroke-width="3.2"/>
<circle clip-path="url(#clip142)" cx="1985.91" cy="540.96" r="14.4" fill="#009af9" fill-rule="evenodd" fill-opacity="1" stroke="#000000" stroke-opacity="1" stroke-width="3.2"/>
<circle clip-path="url(#clip142)" cx="1999.93" cy="403.449" r="14.4" fill="#009af9" fill-rule="evenodd" fill-opacity="1" stroke="#000000" stroke-opacity="1" stroke-width="3.2"/>
<circle clip-path="url(#clip142)" cx="2013.94" cy="627.742" r="14.4" fill="#009af9" fill-rule="evenodd" fill-opacity="1" stroke="#000000" stroke-opacity="1" stroke-width="3.2"/>
<circle clip-path="url(#clip142)" cx="2027.96" cy="621.888" r="14.4" fill="#009af9" fill-rule="evenodd" fill-opacity="1" stroke="#000000" stroke-opacity="1" stroke-width="3.2"/>
<circle clip-path="url(#clip142)" cx="2041.98" cy="481.548" r="14.4" fill="#009af9" fill-rule="evenodd" fill-opacity="1" stroke="#000000" stroke-opacity="1" stroke-width="3.2"/>
<circle clip-path="url(#clip142)" cx="2056" cy="433.478" r="14.4" fill="#009af9" fill-rule="evenodd" fill-opacity="1" stroke="#000000" stroke-opacity="1" stroke-width="3.2"/>
<circle clip-path="url(#clip142)" cx="2070.02" cy="432.853" r="14.4" fill="#009af9" fill-rule="evenodd" fill-opacity="1" stroke="#000000" stroke-opacity="1" stroke-width="3.2"/>
<circle clip-path="url(#clip142)" cx="2084.03" cy="500.984" r="14.4" fill="#009af9" fill-rule="evenodd" fill-opacity="1" stroke="#000000" stroke-opacity="1" stroke-width="3.2"/>
<circle clip-path="url(#clip142)" cx="2098.05" cy="377.237" r="14.4" fill="#009af9" fill-rule="evenodd" fill-opacity="1" stroke="#000000" stroke-opacity="1" stroke-width="3.2"/>
<circle clip-path="url(#clip142)" cx="2112.07" cy="407.675" r="14.4" fill="#009af9" fill-rule="evenodd" fill-opacity="1" stroke="#000000" stroke-opacity="1" stroke-width="3.2"/>
<circle clip-path="url(#clip142)" cx="2126.09" cy="390.687" r="14.4" fill="#009af9" fill-rule="evenodd" fill-opacity="1" stroke="#000000" stroke-opacity="1" stroke-width="3.2"/>
<circle clip-path="url(#clip142)" cx="2140.11" cy="502.511" r="14.4" fill="#009af9" fill-rule="evenodd" fill-opacity="1" stroke="#000000" stroke-opacity="1" stroke-width="3.2"/>
<circle clip-path="url(#clip142)" cx="2154.12" cy="386.18" r="14.4" fill="#009af9" fill-rule="evenodd" fill-opacity="1" stroke="#000000" stroke-opacity="1" stroke-width="3.2"/>
<circle clip-path="url(#clip142)" cx="2168.14" cy="312.026" r="14.4" fill="#009af9" fill-rule="evenodd" fill-opacity="1" stroke="#000000" stroke-opacity="1" stroke-width="3.2"/>
<circle clip-path="url(#clip142)" cx="2182.16" cy="438.595" r="14.4" fill="#009af9" fill-rule="evenodd" fill-opacity="1" stroke="#000000" stroke-opacity="1" stroke-width="3.2"/>
<circle clip-path="url(#clip142)" cx="2196.18" cy="403.191" r="14.4" fill="#009af9" fill-rule="evenodd" fill-opacity="1" stroke="#000000" stroke-opacity="1" stroke-width="3.2"/>
<circle clip-path="url(#clip142)" cx="2210.19" cy="362.411" r="14.4" fill="#009af9" fill-rule="evenodd" fill-opacity="1" stroke="#000000" stroke-opacity="1" stroke-width="3.2"/>
<circle clip-path="url(#clip142)" cx="2224.21" cy="318.679" r="14.4" fill="#009af9" fill-rule="evenodd" fill-opacity="1" stroke="#000000" stroke-opacity="1" stroke-width="3.2"/>
<circle clip-path="url(#clip142)" cx="2238.23" cy="183.62" r="14.4" fill="#009af9" fill-rule="evenodd" fill-opacity="1" stroke="#000000" stroke-opacity="1" stroke-width="3.2"/>
<circle clip-path="url(#clip142)" cx="2252.25" cy="87.9763" r="14.4" fill="#009af9" fill-rule="evenodd" fill-opacity="1" stroke="#000000" stroke-opacity="1" stroke-width="3.2"/>
<circle clip-path="url(#clip142)" cx="2266.27" cy="165.824" r="14.4" fill="#009af9" fill-rule="evenodd" fill-opacity="1" stroke="#000000" stroke-opacity="1" stroke-width="3.2"/>
<circle clip-path="url(#clip142)" cx="2280.28" cy="239.03" r="14.4" fill="#009af9" fill-rule="evenodd" fill-opacity="1" stroke="#000000" stroke-opacity="1" stroke-width="3.2"/>
<circle clip-path="url(#clip142)" cx="2294.3" cy="125.107" r="14.4" fill="#009af9" fill-rule="evenodd" fill-opacity="1" stroke="#000000" stroke-opacity="1" stroke-width="3.2"/>
<path clip-path="url(#clip140)" d="M356.212 198.898 L1168.4 198.898 L1168.4 95.2176 L356.212 95.2176  Z" fill="#ffffff" fill-rule="evenodd" fill-opacity="1"/>
<polyline clip-path="url(#clip140)" style="stroke:#000000; stroke-linecap:round; stroke-linejoin:round; stroke-width:4; stroke-opacity:1; fill:none" points="356.212,198.898 1168.4,198.898 1168.4,95.2176 356.212,95.2176 356.212,198.898 "/>
<circle clip-path="url(#clip140)" cx="448.007" cy="147.058" r="23.04" fill="#009af9" fill-rule="evenodd" fill-opacity="1" stroke="#000000" stroke-opacity="1" stroke-width="5.12"/>
<path clip-path="url(#clip140)" d="M565.358 159.407 L565.358 150.125 L557.719 150.125 L557.719 146.282 L569.987 146.282 L569.987 161.12 Q567.279 163.041 564.015 164.037 Q560.751 165.009 557.048 165.009 Q548.946 165.009 544.363 160.287 Q539.802 155.541 539.802 147.092 Q539.802 138.62 544.363 133.898 Q548.946 129.153 557.048 129.153 Q560.427 129.153 563.46 129.986 Q566.515 130.819 569.085 132.44 L569.085 137.416 Q566.492 135.217 563.575 134.106 Q560.659 132.995 557.441 132.995 Q551.099 132.995 547.904 136.537 Q544.733 140.078 544.733 147.092 Q544.733 154.083 547.904 157.625 Q551.099 161.166 557.441 161.166 Q559.918 161.166 561.863 160.75 Q563.807 160.31 565.358 159.407 Z" fill="#000000" fill-rule="evenodd" fill-opacity="1" /><path clip-path="url(#clip140)" d="M578.344 128.319 L582.603 128.319 L582.603 164.338 L578.344 164.338 L578.344 128.319 Z" fill="#000000" fill-rule="evenodd" fill-opacity="1" /><path clip-path="url(#clip140)" d="M601.561 141.398 Q598.135 141.398 596.145 144.083 Q594.154 146.745 594.154 151.398 Q594.154 156.051 596.122 158.736 Q598.112 161.398 601.561 161.398 Q604.964 161.398 606.955 158.713 Q608.946 156.027 608.946 151.398 Q608.946 146.791 606.955 144.106 Q604.964 141.398 601.561 141.398 M601.561 137.787 Q607.117 137.787 610.288 141.398 Q613.459 145.009 613.459 151.398 Q613.459 157.764 610.288 161.398 Q607.117 165.009 601.561 165.009 Q595.983 165.009 592.811 161.398 Q589.663 157.764 589.663 151.398 Q589.663 145.009 592.811 141.398 Q595.983 137.787 601.561 137.787 Z" fill="#000000" fill-rule="evenodd" fill-opacity="1" /><path clip-path="url(#clip140)" d="M639.131 151.398 Q639.131 146.699 637.186 144.037 Q635.265 141.352 631.885 141.352 Q628.506 141.352 626.561 144.037 Q624.64 146.699 624.64 151.398 Q624.64 156.097 626.561 158.782 Q628.506 161.444 631.885 161.444 Q635.265 161.444 637.186 158.782 Q639.131 156.097 639.131 151.398 M624.64 142.347 Q625.983 140.032 628.02 138.921 Q630.08 137.787 632.927 137.787 Q637.649 137.787 640.589 141.537 Q643.552 145.287 643.552 151.398 Q643.552 157.509 640.589 161.259 Q637.649 165.009 632.927 165.009 Q630.08 165.009 628.02 163.898 Q625.983 162.763 624.64 160.449 L624.64 164.338 L620.358 164.338 L620.358 128.319 L624.64 128.319 L624.64 142.347 Z" fill="#000000" fill-rule="evenodd" fill-opacity="1" /><path clip-path="url(#clip140)" d="M662.394 151.305 Q657.232 151.305 655.242 152.486 Q653.251 153.666 653.251 156.514 Q653.251 158.782 654.732 160.125 Q656.237 161.444 658.806 161.444 Q662.348 161.444 664.478 158.944 Q666.63 156.421 666.63 152.254 L666.63 151.305 L662.394 151.305 M670.89 149.546 L670.89 164.338 L666.63 164.338 L666.63 160.402 Q665.172 162.763 662.996 163.898 Q660.82 165.009 657.672 165.009 Q653.691 165.009 651.33 162.787 Q648.992 160.541 648.992 156.791 Q648.992 152.416 651.908 150.194 Q654.848 147.972 660.658 147.972 L666.63 147.972 L666.63 147.555 Q666.63 144.615 664.686 143.018 Q662.765 141.398 659.269 141.398 Q657.047 141.398 654.941 141.93 Q652.834 142.463 650.89 143.527 L650.89 139.592 Q653.228 138.69 655.427 138.25 Q657.626 137.787 659.709 137.787 Q665.334 137.787 668.112 140.703 Q670.89 143.62 670.89 149.546 Z" fill="#000000" fill-rule="evenodd" fill-opacity="1" /><path clip-path="url(#clip140)" d="M679.663 128.319 L683.922 128.319 L683.922 164.338 L679.663 164.338 L679.663 128.319 Z" fill="#000000" fill-rule="evenodd" fill-opacity="1" /><path clip-path="url(#clip140)" d="M708.089 129.778 L715.056 129.778 L723.876 153.296 L732.741 129.778 L739.709 129.778 L739.709 164.338 L735.149 164.338 L735.149 133.99 L726.237 157.694 L721.538 157.694 L712.626 133.99 L712.626 164.338 L708.089 164.338 L708.089 129.778 Z" fill="#000000" fill-rule="evenodd" fill-opacity="1" /><path clip-path="url(#clip140)" d="M770.982 150.31 L770.982 152.393 L751.399 152.393 Q751.676 156.791 754.037 159.106 Q756.422 161.398 760.658 161.398 Q763.111 161.398 765.403 160.796 Q767.718 160.194 769.986 158.99 L769.986 163.018 Q767.695 163.99 765.287 164.5 Q762.88 165.009 760.403 165.009 Q754.199 165.009 750.565 161.398 Q746.954 157.787 746.954 151.629 Q746.954 145.264 750.38 141.537 Q753.829 137.787 759.662 137.787 Q764.894 137.787 767.926 141.166 Q770.982 144.523 770.982 150.31 M766.723 149.06 Q766.676 145.565 764.755 143.481 Q762.857 141.398 759.709 141.398 Q756.144 141.398 753.991 143.412 Q751.862 145.426 751.537 149.083 L766.723 149.06 Z" fill="#000000" fill-rule="evenodd" fill-opacity="1" /><path clip-path="url(#clip140)" d="M789.755 151.305 Q784.593 151.305 782.602 152.486 Q780.611 153.666 780.611 156.514 Q780.611 158.782 782.093 160.125 Q783.597 161.444 786.167 161.444 Q789.709 161.444 791.838 158.944 Q793.991 156.421 793.991 152.254 L793.991 151.305 L789.755 151.305 M798.25 149.546 L798.25 164.338 L793.991 164.338 L793.991 160.402 Q792.533 162.763 790.357 163.898 Q788.181 165.009 785.033 165.009 Q781.051 165.009 778.69 162.787 Q776.352 160.541 776.352 156.791 Q776.352 152.416 779.269 150.194 Q782.209 147.972 788.019 147.972 L793.991 147.972 L793.991 147.555 Q793.991 144.615 792.046 143.018 Q790.125 141.398 786.63 141.398 Q784.408 141.398 782.301 141.93 Q780.195 142.463 778.25 143.527 L778.25 139.592 Q780.588 138.69 782.787 138.25 Q784.986 137.787 787.07 137.787 Q792.695 137.787 795.472 140.703 Q798.25 143.62 798.25 149.546 Z" fill="#000000" fill-rule="evenodd" fill-opacity="1" /><path clip-path="url(#clip140)" d="M828.574 148.689 L828.574 164.338 L824.315 164.338 L824.315 148.828 Q824.315 145.148 822.88 143.319 Q821.444 141.49 818.574 141.49 Q815.125 141.49 813.134 143.69 Q811.144 145.889 811.144 149.685 L811.144 164.338 L806.861 164.338 L806.861 138.412 L811.144 138.412 L811.144 142.44 Q812.671 140.102 814.732 138.944 Q816.815 137.787 819.523 137.787 Q823.991 137.787 826.282 140.565 Q828.574 143.319 828.574 148.689 Z" fill="#000000" fill-rule="evenodd" fill-opacity="1" /><path clip-path="url(#clip140)" d="M847.532 129.778 L876.768 129.778 L876.768 133.713 L864.5 133.713 L864.5 164.338 L859.801 164.338 L859.801 133.713 L847.532 133.713 L847.532 129.778 Z" fill="#000000" fill-rule="evenodd" fill-opacity="1" /><path clip-path="url(#clip140)" d="M895.217 150.31 L895.217 152.393 L875.634 152.393 Q875.912 156.791 878.273 159.106 Q880.657 161.398 884.893 161.398 Q887.347 161.398 889.639 160.796 Q891.953 160.194 894.222 158.99 L894.222 163.018 Q891.93 163.99 889.523 164.5 Q887.115 165.009 884.639 165.009 Q878.435 165.009 874.801 161.398 Q871.19 157.787 871.19 151.629 Q871.19 145.264 874.615 141.537 Q878.065 137.787 883.898 137.787 Q889.129 137.787 892.162 141.166 Q895.217 144.523 895.217 150.31 M890.958 149.06 Q890.912 145.565 888.99 143.481 Q887.092 141.398 883.944 141.398 Q880.379 141.398 878.227 143.412 Q876.097 145.426 875.773 149.083 L890.958 149.06 Z" fill="#000000" fill-rule="evenodd" fill-opacity="1" /><path clip-path="url(#clip140)" d="M922.393 143.389 Q923.99 140.518 926.212 139.153 Q928.435 137.787 931.444 137.787 Q935.495 137.787 937.694 140.634 Q939.893 143.458 939.893 148.689 L939.893 164.338 L935.611 164.338 L935.611 148.828 Q935.611 145.102 934.291 143.296 Q932.972 141.49 930.263 141.49 Q926.953 141.49 925.032 143.69 Q923.111 145.889 923.111 149.685 L923.111 164.338 L918.828 164.338 L918.828 148.828 Q918.828 145.078 917.509 143.296 Q916.189 141.49 913.435 141.49 Q910.171 141.49 908.25 143.713 Q906.328 145.912 906.328 149.685 L906.328 164.338 L902.046 164.338 L902.046 138.412 L906.328 138.412 L906.328 142.44 Q907.787 140.055 909.824 138.921 Q911.861 137.787 914.662 137.787 Q917.486 137.787 919.453 139.222 Q921.444 140.657 922.393 143.389 Z" fill="#000000" fill-rule="evenodd" fill-opacity="1" /><path clip-path="url(#clip140)" d="M952.509 160.449 L952.509 174.199 L948.226 174.199 L948.226 138.412 L952.509 138.412 L952.509 142.347 Q953.851 140.032 955.888 138.921 Q957.948 137.787 960.796 137.787 Q965.518 137.787 968.458 141.537 Q971.421 145.287 971.421 151.398 Q971.421 157.509 968.458 161.259 Q965.518 165.009 960.796 165.009 Q957.948 165.009 955.888 163.898 Q953.851 162.763 952.509 160.449 M966.999 151.398 Q966.999 146.699 965.055 144.037 Q963.134 141.352 959.754 141.352 Q956.374 141.352 954.43 144.037 Q952.509 146.699 952.509 151.398 Q952.509 156.097 954.43 158.782 Q956.374 161.444 959.754 161.444 Q963.134 161.444 965.055 158.782 Q966.999 156.097 966.999 151.398 Z" fill="#000000" fill-rule="evenodd" fill-opacity="1" /><path clip-path="url(#clip140)" d="M1000.66 150.31 L1000.66 152.393 L981.073 152.393 Q981.351 156.791 983.712 159.106 Q986.096 161.398 990.332 161.398 Q992.786 161.398 995.078 160.796 Q997.393 160.194 999.661 158.99 L999.661 163.018 Q997.369 163.99 994.962 164.5 Q992.555 165.009 990.078 165.009 Q983.874 165.009 980.24 161.398 Q976.629 157.787 976.629 151.629 Q976.629 145.264 980.055 141.537 Q983.504 137.787 989.337 137.787 Q994.569 137.787 997.601 141.166 Q1000.66 144.523 1000.66 150.31 M996.397 149.06 Q996.351 145.565 994.43 143.481 Q992.532 141.398 989.383 141.398 Q985.819 141.398 983.666 143.412 Q981.536 145.426 981.212 149.083 L996.397 149.06 Z" fill="#000000" fill-rule="evenodd" fill-opacity="1" /><path clip-path="url(#clip140)" d="M1022.67 142.393 Q1021.95 141.977 1021.1 141.791 Q1020.26 141.583 1019.24 141.583 Q1015.63 141.583 1013.69 143.944 Q1011.77 146.282 1011.77 150.68 L1011.77 164.338 L1007.49 164.338 L1007.49 138.412 L1011.77 138.412 L1011.77 142.44 Q1013.11 140.078 1015.26 138.944 Q1017.42 137.787 1020.49 137.787 Q1020.93 137.787 1021.47 137.856 Q1022 137.903 1022.65 138.018 L1022.67 142.393 Z" fill="#000000" fill-rule="evenodd" fill-opacity="1" /><path clip-path="url(#clip140)" d="M1038.92 151.305 Q1033.76 151.305 1031.77 152.486 Q1029.78 153.666 1029.78 156.514 Q1029.78 158.782 1031.26 160.125 Q1032.76 161.444 1035.33 161.444 Q1038.87 161.444 1041 158.944 Q1043.16 156.421 1043.16 152.254 L1043.16 151.305 L1038.92 151.305 M1047.42 149.546 L1047.42 164.338 L1043.16 164.338 L1043.16 160.402 Q1041.7 162.763 1039.52 163.898 Q1037.35 165.009 1034.2 165.009 Q1030.22 165.009 1027.86 162.787 Q1025.52 160.541 1025.52 156.791 Q1025.52 152.416 1028.43 150.194 Q1031.37 147.972 1037.18 147.972 L1043.16 147.972 L1043.16 147.555 Q1043.16 144.615 1041.21 143.018 Q1039.29 141.398 1035.8 141.398 Q1033.57 141.398 1031.47 141.93 Q1029.36 142.463 1027.42 143.527 L1027.42 139.592 Q1029.75 138.69 1031.95 138.25 Q1034.15 137.787 1036.23 137.787 Q1041.86 137.787 1044.64 140.703 Q1047.42 143.62 1047.42 149.546 Z" fill="#000000" fill-rule="evenodd" fill-opacity="1" /><path clip-path="url(#clip140)" d="M1060.4 131.051 L1060.4 138.412 L1069.17 138.412 L1069.17 141.722 L1060.4 141.722 L1060.4 155.796 Q1060.4 158.967 1061.26 159.87 Q1062.14 160.773 1064.8 160.773 L1069.17 160.773 L1069.17 164.338 L1064.8 164.338 Q1059.87 164.338 1057.99 162.509 Q1056.12 160.657 1056.12 155.796 L1056.12 141.722 L1052.99 141.722 L1052.99 138.412 L1056.12 138.412 L1056.12 131.051 L1060.4 131.051 Z" fill="#000000" fill-rule="evenodd" fill-opacity="1" /><path clip-path="url(#clip140)" d="M1074.34 154.106 L1074.34 138.412 L1078.6 138.412 L1078.6 153.944 Q1078.6 157.625 1080.03 159.476 Q1081.47 161.305 1084.34 161.305 Q1087.79 161.305 1089.78 159.106 Q1091.79 156.907 1091.79 153.111 L1091.79 138.412 L1096.05 138.412 L1096.05 164.338 L1091.79 164.338 L1091.79 160.356 Q1090.24 162.717 1088.18 163.875 Q1086.14 165.009 1083.43 165.009 Q1078.97 165.009 1076.65 162.231 Q1074.34 159.453 1074.34 154.106 M1085.05 137.787 L1085.05 137.787 Z" fill="#000000" fill-rule="evenodd" fill-opacity="1" /><path clip-path="url(#clip140)" d="M1119.85 142.393 Q1119.13 141.977 1118.27 141.791 Q1117.44 141.583 1116.42 141.583 Q1112.81 141.583 1110.86 143.944 Q1108.94 146.282 1108.94 150.68 L1108.94 164.338 L1104.66 164.338 L1104.66 138.412 L1108.94 138.412 L1108.94 142.44 Q1110.29 140.078 1112.44 138.944 Q1114.59 137.787 1117.67 137.787 Q1118.11 137.787 1118.64 137.856 Q1119.17 137.903 1119.82 138.018 L1119.85 142.393 Z" fill="#000000" fill-rule="evenodd" fill-opacity="1" /><path clip-path="url(#clip140)" d="M1145.45 150.31 L1145.45 152.393 L1125.86 152.393 Q1126.14 156.791 1128.5 159.106 Q1130.89 161.398 1135.12 161.398 Q1137.58 161.398 1139.87 160.796 Q1142.18 160.194 1144.45 158.99 L1144.45 163.018 Q1142.16 163.99 1139.75 164.5 Q1137.35 165.009 1134.87 165.009 Q1128.67 165.009 1125.03 161.398 Q1121.42 157.787 1121.42 151.629 Q1121.42 145.264 1124.85 141.537 Q1128.29 137.787 1134.13 137.787 Q1139.36 137.787 1142.39 141.166 Q1145.45 144.523 1145.45 150.31 M1141.19 149.06 Q1141.14 145.565 1139.22 143.481 Q1137.32 141.398 1134.17 141.398 Q1130.61 141.398 1128.46 143.412 Q1126.33 145.426 1126 149.083 L1141.19 149.06 Z" fill="#000000" fill-rule="evenodd" fill-opacity="1" /></svg>
