<?xml version="1.0" encoding="utf-8"?>
<svg xmlns="http://www.w3.org/2000/svg" xmlns:xlink="http://www.w3.org/1999/xlink" width="600" height="400" viewBox="0 0 2400 1600">
<defs>
  <clipPath id="clip200">
    <rect x="0" y="0" width="2400" height="1600"/>
  </clipPath>
</defs>
<path clip-path="url(#clip200)" d="M0 1600 L2400 1600 L2400 0 L0 0  Z" fill="#ffffff" fill-rule="evenodd" fill-opacity="1"/>
<defs>
  <clipPath id="clip201">
    <rect x="480" y="0" width="1681" height="1600"/>
  </clipPath>
</defs>
<path clip-path="url(#clip200)" d="M234.125 1486.45 L2352.76 1486.45 L2352.76 47.2441 L234.125 47.2441  Z" fill="#ffffff" fill-rule="evenodd" fill-opacity="1"/>
<defs>
  <clipPath id="clip202">
    <rect x="234" y="47" width="2120" height="1440"/>
  </clipPath>
</defs>
<polyline clip-path="url(#clip202)" style="stroke:#000000; stroke-linecap:round; stroke-linejoin:round; stroke-width:2; stroke-opacity:0.1; fill:none" points="581.671,1486.45 581.671,47.2441 "/>
<polyline clip-path="url(#clip202)" style="stroke:#000000; stroke-linecap:round; stroke-linejoin:round; stroke-width:2; stroke-opacity:0.1; fill:none" points="941.15,1486.45 941.15,47.2441 "/>
<polyline clip-path="url(#clip202)" style="stroke:#000000; stroke-linecap:round; stroke-linejoin:round; stroke-width:2; stroke-opacity:0.1; fill:none" points="1300.63,1486.45 1300.63,47.2441 "/>
<polyline clip-path="url(#clip202)" style="stroke:#000000; stroke-linecap:round; stroke-linejoin:round; stroke-width:2; stroke-opacity:0.1; fill:none" points="1660.11,1486.45 1660.11,47.2441 "/>
<polyline clip-path="url(#clip202)" style="stroke:#000000; stroke-linecap:round; stroke-linejoin:round; stroke-width:2; stroke-opacity:0.1; fill:none" points="2019.59,1486.45 2019.59,47.2441 "/>
<polyline clip-path="url(#clip200)" style="stroke:#000000; stroke-linecap:round; stroke-linejoin:round; stroke-width:4; stroke-opacity:1; fill:none" points="234.125,1486.45 2352.76,1486.45 "/>
<polyline clip-path="url(#clip200)" style="stroke:#000000; stroke-linecap:round; stroke-linejoin:round; stroke-width:4; stroke-opacity:1; fill:none" points="581.671,1486.45 581.671,1467.55 "/>
<polyline clip-path="url(#clip200)" style="stroke:#000000; stroke-linecap:round; stroke-linejoin:round; stroke-width:4; stroke-opacity:1; fill:none" points="941.15,1486.45 941.15,1467.55 "/>
<polyline clip-path="url(#clip200)" style="stroke:#000000; stroke-linecap:round; stroke-linejoin:round; stroke-width:4; stroke-opacity:1; fill:none" points="1300.63,1486.45 1300.63,1467.55 "/>
<polyline clip-path="url(#clip200)" style="stroke:#000000; stroke-linecap:round; stroke-linejoin:round; stroke-width:4; stroke-opacity:1; fill:none" points="1660.11,1486.45 1660.11,1467.55 "/>
<polyline clip-path="url(#clip200)" style="stroke:#000000; stroke-linecap:round; stroke-linejoin:round; stroke-width:4; stroke-opacity:1; fill:none" points="2019.59,1486.45 2019.59,1467.55 "/>
<path clip-path="url(#clip200)" d="M526.196 1544.91 L533.835 1544.91 L533.835 1518.55 L525.525 1520.21 L525.525 1515.95 L533.789 1514.29 L538.465 1514.29 L538.465 1544.91 L546.104 1544.91 L546.104 1548.85 L526.196 1548.85 L526.196 1544.91 Z" fill="#000000" fill-rule="evenodd" fill-opacity="1" /><path clip-path="url(#clip200)" d="M555.687 1548.13 L555.687 1543.87 Q557.446 1544.7 559.252 1545.14 Q561.057 1545.58 562.793 1545.58 Q567.423 1545.58 569.854 1542.48 Q572.307 1539.36 572.654 1533.01 Q571.312 1535.01 569.252 1536.07 Q567.191 1537.13 564.691 1537.13 Q559.506 1537.13 556.474 1534.01 Q553.465 1530.86 553.465 1525.42 Q553.465 1520.1 556.613 1516.88 Q559.761 1513.66 564.992 1513.66 Q570.988 1513.66 574.136 1518.27 Q577.307 1522.85 577.307 1531.6 Q577.307 1539.77 573.418 1544.66 Q569.553 1549.52 563.002 1549.52 Q561.242 1549.52 559.437 1549.17 Q557.631 1548.82 555.687 1548.13 M564.992 1533.48 Q568.141 1533.48 569.969 1531.32 Q571.821 1529.17 571.821 1525.42 Q571.821 1521.7 569.969 1519.54 Q568.141 1517.37 564.992 1517.37 Q561.844 1517.37 559.992 1519.54 Q558.164 1521.7 558.164 1525.42 Q558.164 1529.17 559.992 1531.32 Q561.844 1533.48 564.992 1533.48 Z" fill="#000000" fill-rule="evenodd" fill-opacity="1" /><path clip-path="url(#clip200)" d="M595.71 1517.37 Q592.099 1517.37 590.27 1520.93 Q588.465 1524.47 588.465 1531.6 Q588.465 1538.71 590.27 1542.27 Q592.099 1545.82 595.71 1545.82 Q599.344 1545.82 601.15 1542.27 Q602.978 1538.71 602.978 1531.6 Q602.978 1524.47 601.15 1520.93 Q599.344 1517.37 595.71 1517.37 M595.71 1513.66 Q601.52 1513.66 604.576 1518.27 Q607.654 1522.85 607.654 1531.6 Q607.654 1540.33 604.576 1544.94 Q601.52 1549.52 595.71 1549.52 Q589.9 1549.52 586.821 1544.94 Q583.765 1540.33 583.765 1531.6 Q583.765 1522.85 586.821 1518.27 Q589.9 1513.66 595.71 1513.66 Z" fill="#000000" fill-rule="evenodd" fill-opacity="1" /><path clip-path="url(#clip200)" d="M625.872 1517.37 Q622.261 1517.37 620.432 1520.93 Q618.626 1524.47 618.626 1531.6 Q618.626 1538.71 620.432 1542.27 Q622.261 1545.82 625.872 1545.82 Q629.506 1545.82 631.312 1542.27 Q633.14 1538.71 633.14 1531.6 Q633.14 1524.47 631.312 1520.93 Q629.506 1517.37 625.872 1517.37 M625.872 1513.66 Q631.682 1513.66 634.737 1518.27 Q637.816 1522.85 637.816 1531.6 Q637.816 1540.33 634.737 1544.94 Q631.682 1549.52 625.872 1549.52 Q620.062 1549.52 616.983 1544.94 Q613.927 1540.33 613.927 1531.6 Q613.927 1522.85 616.983 1518.27 Q620.062 1513.66 625.872 1513.66 Z" fill="#000000" fill-rule="evenodd" fill-opacity="1" /><path clip-path="url(#clip200)" d="M886.174 1544.91 L893.813 1544.91 L893.813 1518.55 L885.503 1520.21 L885.503 1515.95 L893.766 1514.29 L898.442 1514.29 L898.442 1544.91 L906.081 1544.91 L906.081 1548.85 L886.174 1548.85 L886.174 1544.91 Z" fill="#000000" fill-rule="evenodd" fill-opacity="1" /><path clip-path="url(#clip200)" d="M915.664 1548.13 L915.664 1543.87 Q917.424 1544.7 919.229 1545.14 Q921.035 1545.58 922.771 1545.58 Q927.4 1545.58 929.831 1542.48 Q932.285 1539.36 932.632 1533.01 Q931.289 1535.01 929.229 1536.07 Q927.169 1537.13 924.669 1537.13 Q919.484 1537.13 916.451 1534.01 Q913.442 1530.86 913.442 1525.42 Q913.442 1520.1 916.59 1516.88 Q919.738 1513.66 924.97 1513.66 Q930.965 1513.66 934.113 1518.27 Q937.285 1522.85 937.285 1531.6 Q937.285 1539.77 933.396 1544.66 Q929.53 1549.52 922.979 1549.52 Q921.22 1549.52 919.414 1549.17 Q917.609 1548.82 915.664 1548.13 M924.97 1533.48 Q928.118 1533.48 929.947 1531.32 Q931.799 1529.17 931.799 1525.42 Q931.799 1521.7 929.947 1519.54 Q928.118 1517.37 924.97 1517.37 Q921.822 1517.37 919.97 1519.54 Q918.141 1521.7 918.141 1525.42 Q918.141 1529.17 919.97 1531.32 Q921.822 1533.48 924.97 1533.48 Z" fill="#000000" fill-rule="evenodd" fill-opacity="1" /><path clip-path="url(#clip200)" d="M949.715 1544.91 L966.035 1544.91 L966.035 1548.85 L944.09 1548.85 L944.09 1544.91 Q946.752 1542.16 951.336 1537.53 Q955.942 1532.88 957.123 1531.53 Q959.368 1529.01 960.248 1527.27 Q961.15 1525.51 961.15 1523.82 Q961.15 1521.07 959.206 1519.33 Q957.285 1517.6 954.183 1517.6 Q951.984 1517.6 949.53 1518.36 Q947.099 1519.13 944.322 1520.68 L944.322 1515.95 Q947.146 1514.82 949.599 1514.24 Q952.053 1513.66 954.09 1513.66 Q959.461 1513.66 962.655 1516.35 Q965.849 1519.03 965.849 1523.52 Q965.849 1525.65 965.039 1527.57 Q964.252 1529.47 962.146 1532.07 Q961.567 1532.74 958.465 1535.95 Q955.363 1539.15 949.715 1544.91 Z" fill="#000000" fill-rule="evenodd" fill-opacity="1" /><path clip-path="url(#clip200)" d="M975.896 1514.29 L994.252 1514.29 L994.252 1518.22 L980.178 1518.22 L980.178 1526.7 Q981.197 1526.35 982.215 1526.19 Q983.234 1526 984.252 1526 Q990.039 1526 993.419 1529.17 Q996.798 1532.34 996.798 1537.76 Q996.798 1543.34 993.326 1546.44 Q989.854 1549.52 983.534 1549.52 Q981.359 1549.52 979.09 1549.15 Q976.845 1548.78 974.437 1548.04 L974.437 1543.34 Q976.521 1544.47 978.743 1545.03 Q980.965 1545.58 983.442 1545.58 Q987.446 1545.58 989.784 1543.48 Q992.122 1541.37 992.122 1537.76 Q992.122 1534.15 989.784 1532.04 Q987.446 1529.94 983.442 1529.94 Q981.567 1529.94 979.692 1530.35 Q977.84 1530.77 975.896 1531.65 L975.896 1514.29 Z" fill="#000000" fill-rule="evenodd" fill-opacity="1" /><path clip-path="url(#clip200)" d="M1245.16 1544.91 L1252.79 1544.91 L1252.79 1518.55 L1244.48 1520.21 L1244.48 1515.95 L1252.75 1514.29 L1257.42 1514.29 L1257.42 1544.91 L1265.06 1544.91 L1265.06 1548.85 L1245.16 1548.85 L1245.16 1544.91 Z" fill="#000000" fill-rule="evenodd" fill-opacity="1" /><path clip-path="url(#clip200)" d="M1274.65 1548.13 L1274.65 1543.87 Q1276.41 1544.7 1278.21 1545.14 Q1280.02 1545.58 1281.75 1545.58 Q1286.38 1545.58 1288.81 1542.48 Q1291.27 1539.36 1291.61 1533.01 Q1290.27 1535.01 1288.21 1536.07 Q1286.15 1537.13 1283.65 1537.13 Q1278.47 1537.13 1275.43 1534.01 Q1272.42 1530.86 1272.42 1525.42 Q1272.42 1520.1 1275.57 1516.88 Q1278.72 1513.66 1283.95 1513.66 Q1289.95 1513.66 1293.1 1518.27 Q1296.27 1522.85 1296.27 1531.6 Q1296.27 1539.77 1292.38 1544.66 Q1288.51 1549.52 1281.96 1549.52 Q1280.2 1549.52 1278.4 1549.17 Q1276.59 1548.82 1274.65 1548.13 M1283.95 1533.48 Q1287.1 1533.48 1288.93 1531.32 Q1290.78 1529.17 1290.78 1525.42 Q1290.78 1521.7 1288.93 1519.54 Q1287.1 1517.37 1283.95 1517.37 Q1280.8 1517.37 1278.95 1519.54 Q1277.12 1521.7 1277.12 1525.42 Q1277.12 1529.17 1278.95 1531.32 Q1280.8 1533.48 1283.95 1533.48 Z" fill="#000000" fill-rule="evenodd" fill-opacity="1" /><path clip-path="url(#clip200)" d="M1304.72 1514.29 L1323.07 1514.29 L1323.07 1518.22 L1309 1518.22 L1309 1526.7 Q1310.02 1526.35 1311.04 1526.19 Q1312.05 1526 1313.07 1526 Q1318.86 1526 1322.24 1529.17 Q1325.62 1532.34 1325.62 1537.76 Q1325.62 1543.34 1322.15 1546.44 Q1318.67 1549.52 1312.35 1549.52 Q1310.18 1549.52 1307.91 1549.15 Q1305.66 1548.78 1303.26 1548.04 L1303.26 1543.34 Q1305.34 1544.47 1307.56 1545.03 Q1309.79 1545.58 1312.26 1545.58 Q1316.27 1545.58 1318.6 1543.48 Q1320.94 1541.37 1320.94 1537.76 Q1320.94 1534.15 1318.6 1532.04 Q1316.27 1529.94 1312.26 1529.94 Q1310.39 1529.94 1308.51 1530.35 Q1306.66 1530.77 1304.72 1531.65 L1304.72 1514.29 Z" fill="#000000" fill-rule="evenodd" fill-opacity="1" /><path clip-path="url(#clip200)" d="M1344.83 1517.37 Q1341.22 1517.37 1339.39 1520.93 Q1337.59 1524.47 1337.59 1531.6 Q1337.59 1538.71 1339.39 1542.27 Q1341.22 1545.82 1344.83 1545.82 Q1348.47 1545.82 1350.27 1542.27 Q1352.1 1538.71 1352.1 1531.6 Q1352.1 1524.47 1350.27 1520.93 Q1348.47 1517.37 1344.83 1517.37 M1344.83 1513.66 Q1350.64 1513.66 1353.7 1518.27 Q1356.78 1522.85 1356.78 1531.6 Q1356.78 1540.33 1353.7 1544.94 Q1350.64 1549.52 1344.83 1549.52 Q1339.02 1549.52 1335.94 1544.94 Q1332.89 1540.33 1332.89 1531.6 Q1332.89 1522.85 1335.94 1518.27 Q1339.02 1513.66 1344.83 1513.66 Z" fill="#000000" fill-rule="evenodd" fill-opacity="1" /><path clip-path="url(#clip200)" d="M1605.13 1544.91 L1612.77 1544.91 L1612.77 1518.55 L1604.46 1520.21 L1604.46 1515.95 L1612.73 1514.29 L1617.4 1514.29 L1617.4 1544.91 L1625.04 1544.91 L1625.04 1548.85 L1605.13 1548.85 L1605.13 1544.91 Z" fill="#000000" fill-rule="evenodd" fill-opacity="1" /><path clip-path="url(#clip200)" d="M1634.62 1548.13 L1634.62 1543.87 Q1636.38 1544.7 1638.19 1545.14 Q1639.99 1545.58 1641.73 1545.58 Q1646.36 1545.58 1648.79 1542.48 Q1651.24 1539.36 1651.59 1533.01 Q1650.25 1535.01 1648.19 1536.07 Q1646.13 1537.13 1643.63 1537.13 Q1638.44 1537.13 1635.41 1534.01 Q1632.4 1530.86 1632.4 1525.42 Q1632.4 1520.1 1635.55 1516.88 Q1638.7 1513.66 1643.93 1513.66 Q1649.92 1513.66 1653.07 1518.27 Q1656.24 1522.85 1656.24 1531.6 Q1656.24 1539.77 1652.36 1544.66 Q1648.49 1549.52 1641.94 1549.52 Q1640.18 1549.52 1638.37 1549.17 Q1636.57 1548.82 1634.62 1548.13 M1643.93 1533.48 Q1647.08 1533.48 1648.91 1531.32 Q1650.76 1529.17 1650.76 1525.42 Q1650.76 1521.7 1648.91 1519.54 Q1647.08 1517.37 1643.93 1517.37 Q1640.78 1517.37 1638.93 1519.54 Q1637.1 1521.7 1637.1 1525.42 Q1637.1 1529.17 1638.93 1531.32 Q1640.78 1533.48 1643.93 1533.48 Z" fill="#000000" fill-rule="evenodd" fill-opacity="1" /><path clip-path="url(#clip200)" d="M1663.47 1514.29 L1685.69 1514.29 L1685.69 1516.28 L1673.14 1548.85 L1668.26 1548.85 L1680.06 1518.22 L1663.47 1518.22 L1663.47 1514.29 Z" fill="#000000" fill-rule="evenodd" fill-opacity="1" /><path clip-path="url(#clip200)" d="M1694.86 1514.29 L1713.21 1514.29 L1713.21 1518.22 L1699.14 1518.22 L1699.14 1526.7 Q1700.16 1526.35 1701.17 1526.19 Q1702.19 1526 1703.21 1526 Q1709 1526 1712.38 1529.17 Q1715.76 1532.34 1715.76 1537.76 Q1715.76 1543.34 1712.29 1546.44 Q1708.81 1549.52 1702.49 1549.52 Q1700.32 1549.52 1698.05 1549.15 Q1695.8 1548.78 1693.4 1548.04 L1693.4 1543.34 Q1695.48 1544.47 1697.7 1545.03 Q1699.92 1545.58 1702.4 1545.58 Q1706.41 1545.58 1708.74 1543.48 Q1711.08 1541.37 1711.08 1537.76 Q1711.08 1534.15 1708.74 1532.04 Q1706.41 1529.94 1702.4 1529.94 Q1700.53 1529.94 1698.65 1530.35 Q1696.8 1530.77 1694.86 1531.65 L1694.86 1514.29 Z" fill="#000000" fill-rule="evenodd" fill-opacity="1" /><path clip-path="url(#clip200)" d="M1968.2 1544.91 L1984.52 1544.91 L1984.52 1548.85 L1962.58 1548.85 L1962.58 1544.91 Q1965.24 1542.16 1969.82 1537.53 Q1974.43 1532.88 1975.61 1531.53 Q1977.85 1529.01 1978.73 1527.27 Q1979.64 1525.51 1979.64 1523.82 Q1979.64 1521.07 1977.69 1519.33 Q1975.77 1517.6 1972.67 1517.6 Q1970.47 1517.6 1968.02 1518.36 Q1965.59 1519.13 1962.81 1520.68 L1962.81 1515.95 Q1965.63 1514.82 1968.09 1514.24 Q1970.54 1513.66 1972.58 1513.66 Q1977.95 1513.66 1981.14 1516.35 Q1984.34 1519.03 1984.34 1523.52 Q1984.34 1525.65 1983.53 1527.57 Q1982.74 1529.47 1980.63 1532.07 Q1980.05 1532.74 1976.95 1535.95 Q1973.85 1539.15 1968.2 1544.91 Z" fill="#000000" fill-rule="evenodd" fill-opacity="1" /><path clip-path="url(#clip200)" d="M2004.34 1517.37 Q2000.72 1517.37 1998.9 1520.93 Q1997.09 1524.47 1997.09 1531.6 Q1997.09 1538.71 1998.9 1542.27 Q2000.72 1545.82 2004.34 1545.82 Q2007.97 1545.82 2009.78 1542.27 Q2011.6 1538.71 2011.6 1531.6 Q2011.6 1524.47 2009.78 1520.93 Q2007.97 1517.37 2004.34 1517.37 M2004.34 1513.66 Q2010.15 1513.66 2013.2 1518.27 Q2016.28 1522.85 2016.28 1531.6 Q2016.28 1540.33 2013.2 1544.94 Q2010.15 1549.52 2004.34 1549.52 Q1998.53 1549.52 1995.45 1544.94 Q1992.39 1540.33 1992.39 1531.6 Q1992.39 1522.85 1995.45 1518.27 Q1998.53 1513.66 2004.34 1513.66 Z" fill="#000000" fill-rule="evenodd" fill-opacity="1" /><path clip-path="url(#clip200)" d="M2034.5 1517.37 Q2030.89 1517.37 2029.06 1520.93 Q2027.25 1524.47 2027.25 1531.6 Q2027.25 1538.71 2029.06 1542.27 Q2030.89 1545.82 2034.5 1545.82 Q2038.13 1545.82 2039.94 1542.27 Q2041.77 1538.71 2041.77 1531.6 Q2041.77 1524.47 2039.94 1520.93 Q2038.13 1517.37 2034.5 1517.37 M2034.5 1513.66 Q2040.31 1513.66 2043.36 1518.27 Q2046.44 1522.85 2046.44 1531.6 Q2046.44 1540.33 2043.36 1544.94 Q2040.31 1549.52 2034.5 1549.52 Q2028.69 1549.52 2025.61 1544.94 Q2022.55 1540.33 2022.55 1531.6 Q2022.55 1522.85 2025.61 1518.27 Q2028.69 1513.66 2034.5 1513.66 Z" fill="#000000" fill-rule="evenodd" fill-opacity="1" /><path clip-path="url(#clip200)" d="M2064.66 1517.37 Q2061.05 1517.37 2059.22 1520.93 Q2057.41 1524.47 2057.41 1531.6 Q2057.41 1538.71 2059.22 1542.27 Q2061.05 1545.82 2064.66 1545.82 Q2068.29 1545.82 2070.1 1542.27 Q2071.93 1538.71 2071.93 1531.6 Q2071.93 1524.47 2070.1 1520.93 Q2068.29 1517.37 2064.66 1517.37 M2064.66 1513.66 Q2070.47 1513.66 2073.52 1518.27 Q2076.6 1522.85 2076.6 1531.6 Q2076.6 1540.33 2073.52 1544.94 Q2070.47 1549.52 2064.66 1549.52 Q2058.85 1549.52 2055.77 1544.94 Q2052.71 1540.33 2052.71 1531.6 Q2052.71 1522.85 2055.77 1518.27 Q2058.85 1513.66 2064.66 1513.66 Z" fill="#000000" fill-rule="evenodd" fill-opacity="1" /><polyline clip-path="url(#clip202)" style="stroke:#000000; stroke-linecap:round; stroke-linejoin:round; stroke-width:2; stroke-opacity:0.1; fill:none" points="234.125,1236.09 2352.76,1236.09 "/>
<polyline clip-path="url(#clip202)" style="stroke:#000000; stroke-linecap:round; stroke-linejoin:round; stroke-width:2; stroke-opacity:0.1; fill:none" points="234.125,983.539 2352.76,983.539 "/>
<polyline clip-path="url(#clip202)" style="stroke:#000000; stroke-linecap:round; stroke-linejoin:round; stroke-width:2; stroke-opacity:0.1; fill:none" points="234.125,730.983 2352.76,730.983 "/>
<polyline clip-path="url(#clip202)" style="stroke:#000000; stroke-linecap:round; stroke-linejoin:round; stroke-width:2; stroke-opacity:0.1; fill:none" points="234.125,478.427 2352.76,478.427 "/>
<polyline clip-path="url(#clip202)" style="stroke:#000000; stroke-linecap:round; stroke-linejoin:round; stroke-width:2; stroke-opacity:0.1; fill:none" points="234.125,225.872 2352.76,225.872 "/>
<polyline clip-path="url(#clip200)" style="stroke:#000000; stroke-linecap:round; stroke-linejoin:round; stroke-width:4; stroke-opacity:1; fill:none" points="234.125,1486.45 234.125,47.2441 "/>
<polyline clip-path="url(#clip200)" style="stroke:#000000; stroke-linecap:round; stroke-linejoin:round; stroke-width:4; stroke-opacity:1; fill:none" points="234.125,1236.09 253.023,1236.09 "/>
<polyline clip-path="url(#clip200)" style="stroke:#000000; stroke-linecap:round; stroke-linejoin:round; stroke-width:4; stroke-opacity:1; fill:none" points="234.125,983.539 253.023,983.539 "/>
<polyline clip-path="url(#clip200)" style="stroke:#000000; stroke-linecap:round; stroke-linejoin:round; stroke-width:4; stroke-opacity:1; fill:none" points="234.125,730.983 253.023,730.983 "/>
<polyline clip-path="url(#clip200)" style="stroke:#000000; stroke-linecap:round; stroke-linejoin:round; stroke-width:4; stroke-opacity:1; fill:none" points="234.125,478.427 253.023,478.427 "/>
<polyline clip-path="url(#clip200)" style="stroke:#000000; stroke-linecap:round; stroke-linejoin:round; stroke-width:4; stroke-opacity:1; fill:none" points="234.125,225.872 253.023,225.872 "/>
<path clip-path="url(#clip200)" d="M186.181 1221.89 Q182.57 1221.89 180.741 1225.46 Q178.936 1229 178.936 1236.13 Q178.936 1243.24 180.741 1246.8 Q182.57 1250.34 186.181 1250.34 Q189.815 1250.34 191.621 1246.8 Q193.45 1243.24 193.45 1236.13 Q193.45 1229 191.621 1225.46 Q189.815 1221.89 186.181 1221.89 M186.181 1218.19 Q191.991 1218.19 195.047 1222.8 Q198.125 1227.38 198.125 1236.13 Q198.125 1244.86 195.047 1249.46 Q191.991 1254.05 186.181 1254.05 Q180.371 1254.05 177.292 1249.46 Q174.237 1244.86 174.237 1236.13 Q174.237 1227.38 177.292 1222.8 Q180.371 1218.19 186.181 1218.19 Z" fill="#000000" fill-rule="evenodd" fill-opacity="1" /><path clip-path="url(#clip200)" d="M146.066 966.259 L164.422 966.259 L164.422 970.194 L150.348 970.194 L150.348 978.666 Q151.366 978.319 152.385 978.157 Q153.403 977.972 154.422 977.972 Q160.209 977.972 163.589 981.143 Q166.968 984.314 166.968 989.731 Q166.968 995.31 163.496 998.411 Q160.024 1001.49 153.704 1001.49 Q151.528 1001.49 149.26 1001.12 Q147.015 1000.75 144.607 1000.01 L144.607 995.31 Q146.691 996.444 148.913 996.999 Q151.135 997.555 153.612 997.555 Q157.616 997.555 159.954 995.448 Q162.292 993.342 162.292 989.731 Q162.292 986.12 159.954 984.013 Q157.616 981.907 153.612 981.907 Q151.737 981.907 149.862 982.323 Q148.01 982.74 146.066 983.62 L146.066 966.259 Z" fill="#000000" fill-rule="evenodd" fill-opacity="1" /><path clip-path="url(#clip200)" d="M186.181 969.337 Q182.57 969.337 180.741 972.902 Q178.936 976.444 178.936 983.573 Q178.936 990.68 180.741 994.245 Q182.57 997.786 186.181 997.786 Q189.815 997.786 191.621 994.245 Q193.45 990.68 193.45 983.573 Q193.45 976.444 191.621 972.902 Q189.815 969.337 186.181 969.337 M186.181 965.634 Q191.991 965.634 195.047 970.24 Q198.125 974.824 198.125 983.573 Q198.125 992.3 195.047 996.907 Q191.991 1001.49 186.181 1001.49 Q180.371 1001.49 177.292 996.907 Q174.237 992.3 174.237 983.573 Q174.237 974.824 177.292 970.24 Q180.371 965.634 186.181 965.634 Z" fill="#000000" fill-rule="evenodd" fill-opacity="1" /><path clip-path="url(#clip200)" d="M116.668 744.328 L124.306 744.328 L124.306 717.962 L115.996 719.629 L115.996 715.37 L124.26 713.703 L128.936 713.703 L128.936 744.328 L136.575 744.328 L136.575 748.263 L116.668 748.263 L116.668 744.328 Z" fill="#000000" fill-rule="evenodd" fill-opacity="1" /><path clip-path="url(#clip200)" d="M156.019 716.782 Q152.408 716.782 150.579 720.347 Q148.774 723.888 148.774 731.018 Q148.774 738.124 150.579 741.689 Q152.408 745.231 156.019 745.231 Q159.653 745.231 161.459 741.689 Q163.288 738.124 163.288 731.018 Q163.288 723.888 161.459 720.347 Q159.653 716.782 156.019 716.782 M156.019 713.078 Q161.829 713.078 164.885 717.685 Q167.964 722.268 167.964 731.018 Q167.964 739.745 164.885 744.351 Q161.829 748.934 156.019 748.934 Q150.209 748.934 147.13 744.351 Q144.075 739.745 144.075 731.018 Q144.075 722.268 147.13 717.685 Q150.209 713.078 156.019 713.078 Z" fill="#000000" fill-rule="evenodd" fill-opacity="1" /><path clip-path="url(#clip200)" d="M186.181 716.782 Q182.57 716.782 180.741 720.347 Q178.936 723.888 178.936 731.018 Q178.936 738.124 180.741 741.689 Q182.57 745.231 186.181 745.231 Q189.815 745.231 191.621 741.689 Q193.45 738.124 193.45 731.018 Q193.45 723.888 191.621 720.347 Q189.815 716.782 186.181 716.782 M186.181 713.078 Q191.991 713.078 195.047 717.685 Q198.125 722.268 198.125 731.018 Q198.125 739.745 195.047 744.351 Q191.991 748.934 186.181 748.934 Q180.371 748.934 177.292 744.351 Q174.237 739.745 174.237 731.018 Q174.237 722.268 177.292 717.685 Q180.371 713.078 186.181 713.078 Z" fill="#000000" fill-rule="evenodd" fill-opacity="1" /><path clip-path="url(#clip200)" d="M116.668 491.772 L124.306 491.772 L124.306 465.407 L115.996 467.073 L115.996 462.814 L124.26 461.147 L128.936 461.147 L128.936 491.772 L136.575 491.772 L136.575 495.707 L116.668 495.707 L116.668 491.772 Z" fill="#000000" fill-rule="evenodd" fill-opacity="1" /><path clip-path="url(#clip200)" d="M146.066 461.147 L164.422 461.147 L164.422 465.083 L150.348 465.083 L150.348 473.555 Q151.366 473.208 152.385 473.045 Q153.403 472.86 154.422 472.86 Q160.209 472.86 163.589 476.032 Q166.968 479.203 166.968 484.619 Q166.968 490.198 163.496 493.3 Q160.024 496.379 153.704 496.379 Q151.528 496.379 149.26 496.008 Q147.015 495.638 144.607 494.897 L144.607 490.198 Q146.691 491.332 148.913 491.888 Q151.135 492.444 153.612 492.444 Q157.616 492.444 159.954 490.337 Q162.292 488.231 162.292 484.619 Q162.292 481.008 159.954 478.902 Q157.616 476.795 153.612 476.795 Q151.737 476.795 149.862 477.212 Q148.01 477.629 146.066 478.508 L146.066 461.147 Z" fill="#000000" fill-rule="evenodd" fill-opacity="1" /><path clip-path="url(#clip200)" d="M186.181 464.226 Q182.57 464.226 180.741 467.791 Q178.936 471.333 178.936 478.462 Q178.936 485.569 180.741 489.133 Q182.57 492.675 186.181 492.675 Q189.815 492.675 191.621 489.133 Q193.45 485.569 193.45 478.462 Q193.45 471.333 191.621 467.791 Q189.815 464.226 186.181 464.226 M186.181 460.522 Q191.991 460.522 195.047 465.129 Q198.125 469.712 198.125 478.462 Q198.125 487.189 195.047 491.795 Q191.991 496.379 186.181 496.379 Q180.371 496.379 177.292 491.795 Q174.237 487.189 174.237 478.462 Q174.237 469.712 177.292 465.129 Q180.371 460.522 186.181 460.522 Z" fill="#000000" fill-rule="evenodd" fill-opacity="1" /><path clip-path="url(#clip200)" d="M119.885 239.217 L136.204 239.217 L136.204 243.152 L114.26 243.152 L114.26 239.217 Q116.922 236.462 121.505 231.832 Q126.112 227.18 127.292 225.837 Q129.538 223.314 130.417 221.578 Q131.32 219.818 131.32 218.129 Q131.32 215.374 129.376 213.638 Q127.455 211.902 124.353 211.902 Q122.154 211.902 119.7 212.666 Q117.269 213.43 114.492 214.981 L114.492 210.258 Q117.316 209.124 119.769 208.545 Q122.223 207.967 124.26 207.967 Q129.63 207.967 132.825 210.652 Q136.019 213.337 136.019 217.828 Q136.019 219.957 135.209 221.879 Q134.422 223.777 132.316 226.369 Q131.737 227.041 128.635 230.258 Q125.533 233.453 119.885 239.217 Z" fill="#000000" fill-rule="evenodd" fill-opacity="1" /><path clip-path="url(#clip200)" d="M156.019 211.67 Q152.408 211.67 150.579 215.235 Q148.774 218.777 148.774 225.906 Q148.774 233.013 150.579 236.578 Q152.408 240.119 156.019 240.119 Q159.653 240.119 161.459 236.578 Q163.288 233.013 163.288 225.906 Q163.288 218.777 161.459 215.235 Q159.653 211.67 156.019 211.67 M156.019 207.967 Q161.829 207.967 164.885 212.573 Q167.964 217.156 167.964 225.906 Q167.964 234.633 164.885 239.24 Q161.829 243.823 156.019 243.823 Q150.209 243.823 147.13 239.24 Q144.075 234.633 144.075 225.906 Q144.075 217.156 147.13 212.573 Q150.209 207.967 156.019 207.967 Z" fill="#000000" fill-rule="evenodd" fill-opacity="1" /><path clip-path="url(#clip200)" d="M186.181 211.67 Q182.57 211.67 180.741 215.235 Q178.936 218.777 178.936 225.906 Q178.936 233.013 180.741 236.578 Q182.57 240.119 186.181 240.119 Q189.815 240.119 191.621 236.578 Q193.45 233.013 193.45 225.906 Q193.45 218.777 191.621 215.235 Q189.815 211.67 186.181 211.67 M186.181 207.967 Q191.991 207.967 195.047 212.573 Q198.125 217.156 198.125 225.906 Q198.125 234.633 195.047 239.24 Q191.991 243.823 186.181 243.823 Q180.371 243.823 177.292 239.24 Q174.237 234.633 174.237 225.906 Q174.237 217.156 177.292 212.573 Q180.371 207.967 186.181 207.967 Z" fill="#000000" fill-rule="evenodd" fill-opacity="1" /><path clip-path="url(#clip200)" d="M35.1993 796.637 Q31.2526 794.441 29.3747 791.386 Q27.4968 788.33 27.4968 784.193 Q27.4968 778.623 31.4117 775.599 Q35.2948 772.575 42.4881 772.575 L64.0042 772.575 L64.0042 778.463 L42.679 778.463 Q37.5546 778.463 35.072 780.278 Q32.5894 782.092 32.5894 785.816 Q32.5894 790.367 35.6131 793.009 Q38.6368 795.651 43.8567 795.651 L64.0042 795.651 L64.0042 801.539 L42.679 801.539 Q37.5228 801.539 35.072 803.353 Q32.5894 805.168 32.5894 808.955 Q32.5894 813.443 35.6449 816.085 Q38.6686 818.726 43.8567 818.726 L64.0042 818.726 L64.0042 824.615 L28.3562 824.615 L28.3562 818.726 L33.8944 818.726 Q30.616 816.721 29.0564 813.92 Q27.4968 811.119 27.4968 807.268 Q27.4968 803.385 29.4702 800.68 Q31.4436 797.942 35.1993 796.637 Z" fill="#000000" fill-rule="evenodd" fill-opacity="1" /><path clip-path="url(#clip200)" d="M35.1993 733.14 Q31.2526 730.943 29.3747 727.888 Q27.4968 724.832 27.4968 720.695 Q27.4968 715.125 31.4117 712.101 Q35.2948 709.077 42.4881 709.077 L64.0042 709.077 L64.0042 714.965 L42.679 714.965 Q37.5546 714.965 35.072 716.78 Q32.5894 718.594 32.5894 722.318 Q32.5894 726.869 35.6131 729.511 Q38.6368 732.153 43.8567 732.153 L64.0042 732.153 L64.0042 738.041 L42.679 738.041 Q37.5228 738.041 35.072 739.855 Q32.5894 741.67 32.5894 745.457 Q32.5894 749.945 35.6449 752.587 Q38.6686 755.229 43.8567 755.229 L64.0042 755.229 L64.0042 761.117 L28.3562 761.117 L28.3562 755.229 L33.8944 755.229 Q30.616 753.223 29.0564 750.422 Q27.4968 747.622 27.4968 743.77 Q27.4968 739.887 29.4702 737.182 Q31.4436 734.445 35.1993 733.14 Z" fill="#000000" fill-rule="evenodd" fill-opacity="1" /><circle clip-path="url(#clip202)" cx="294.087" cy="1389.14" r="14.4" fill="#009af9" fill-rule="evenodd" fill-opacity="1" stroke="#000000" stroke-opacity="1" stroke-width="3.2"/>
<circle clip-path="url(#clip202)" cx="308.466" cy="1360.86" r="14.4" fill="#009af9" fill-rule="evenodd" fill-opacity="1" stroke="#000000" stroke-opacity="1" stroke-width="3.2"/>
<circle clip-path="url(#clip202)" cx="322.845" cy="1445.72" r="14.4" fill="#009af9" fill-rule="evenodd" fill-opacity="1" stroke="#000000" stroke-opacity="1" stroke-width="3.2"/>
<circle clip-path="url(#clip202)" cx="337.224" cy="1418.94" r="14.4" fill="#009af9" fill-rule="evenodd" fill-opacity="1" stroke="#000000" stroke-opacity="1" stroke-width="3.2"/>
<circle clip-path="url(#clip202)" cx="351.603" cy="1313.38" r="14.4" fill="#009af9" fill-rule="evenodd" fill-opacity="1" stroke="#000000" stroke-opacity="1" stroke-width="3.2"/>
<circle clip-path="url(#clip202)" cx="365.983" cy="1320.95" r="14.4" fill="#009af9" fill-rule="evenodd" fill-opacity="1" stroke="#000000" stroke-opacity="1" stroke-width="3.2"/>
<circle clip-path="url(#clip202)" cx="380.362" cy="1333.08" r="14.4" fill="#009af9" fill-rule="evenodd" fill-opacity="1" stroke="#000000" stroke-opacity="1" stroke-width="3.2"/>
<circle clip-path="url(#clip202)" cx="394.741" cy="1361.36" r="14.4" fill="#009af9" fill-rule="evenodd" fill-opacity="1" stroke="#000000" stroke-opacity="1" stroke-width="3.2"/>
<circle clip-path="url(#clip202)" cx="409.12" cy="1350.75" r="14.4" fill="#009af9" fill-rule="evenodd" fill-opacity="1" stroke="#000000" stroke-opacity="1" stroke-width="3.2"/>
<circle clip-path="url(#clip202)" cx="423.499" cy="1342.67" r="14.4" fill="#009af9" fill-rule="evenodd" fill-opacity="1" stroke="#000000" stroke-opacity="1" stroke-width="3.2"/>
<circle clip-path="url(#clip202)" cx="437.879" cy="1332.57" r="14.4" fill="#009af9" fill-rule="evenodd" fill-opacity="1" stroke="#000000" stroke-opacity="1" stroke-width="3.2"/>
<circle clip-path="url(#clip202)" cx="452.258" cy="1341.16" r="14.4" fill="#009af9" fill-rule="evenodd" fill-opacity="1" stroke="#000000" stroke-opacity="1" stroke-width="3.2"/>
<circle clip-path="url(#clip202)" cx="466.637" cy="1324.99" r="14.4" fill="#009af9" fill-rule="evenodd" fill-opacity="1" stroke="#000000" stroke-opacity="1" stroke-width="3.2"/>
<circle clip-path="url(#clip202)" cx="481.016" cy="1301.25" r="14.4" fill="#009af9" fill-rule="evenodd" fill-opacity="1" stroke="#000000" stroke-opacity="1" stroke-width="3.2"/>
<circle clip-path="url(#clip202)" cx="495.395" cy="1350.25" r="14.4" fill="#009af9" fill-rule="evenodd" fill-opacity="1" stroke="#000000" stroke-opacity="1" stroke-width="3.2"/>
<circle clip-path="url(#clip202)" cx="509.775" cy="1290.65" r="14.4" fill="#009af9" fill-rule="evenodd" fill-opacity="1" stroke="#000000" stroke-opacity="1" stroke-width="3.2"/>
<circle clip-path="url(#clip202)" cx="524.154" cy="1329.03" r="14.4" fill="#009af9" fill-rule="evenodd" fill-opacity="1" stroke="#000000" stroke-opacity="1" stroke-width="3.2"/>
<circle clip-path="url(#clip202)" cx="538.533" cy="1302.77" r="14.4" fill="#009af9" fill-rule="evenodd" fill-opacity="1" stroke="#000000" stroke-opacity="1" stroke-width="3.2"/>
<circle clip-path="url(#clip202)" cx="552.912" cy="1255.29" r="14.4" fill="#009af9" fill-rule="evenodd" fill-opacity="1" stroke="#000000" stroke-opacity="1" stroke-width="3.2"/>
<circle clip-path="url(#clip202)" cx="567.291" cy="1217.41" r="14.4" fill="#009af9" fill-rule="evenodd" fill-opacity="1" stroke="#000000" stroke-opacity="1" stroke-width="3.2"/>
<circle clip-path="url(#clip202)" cx="581.671" cy="1244.68" r="14.4" fill="#009af9" fill-rule="evenodd" fill-opacity="1" stroke="#000000" stroke-opacity="1" stroke-width="3.2"/>
<circle clip-path="url(#clip202)" cx="596.05" cy="1246.7" r="14.4" fill="#009af9" fill-rule="evenodd" fill-opacity="1" stroke="#000000" stroke-opacity="1" stroke-width="3.2"/>
<circle clip-path="url(#clip202)" cx="610.429" cy="1223.47" r="14.4" fill="#009af9" fill-rule="evenodd" fill-opacity="1" stroke="#000000" stroke-opacity="1" stroke-width="3.2"/>
<circle clip-path="url(#clip202)" cx="624.808" cy="1183.06" r="14.4" fill="#009af9" fill-rule="evenodd" fill-opacity="1" stroke="#000000" stroke-opacity="1" stroke-width="3.2"/>
<circle clip-path="url(#clip202)" cx="639.187" cy="1235.08" r="14.4" fill="#009af9" fill-rule="evenodd" fill-opacity="1" stroke="#000000" stroke-opacity="1" stroke-width="3.2"/>
<circle clip-path="url(#clip202)" cx="653.567" cy="1262.87" r="14.4" fill="#009af9" fill-rule="evenodd" fill-opacity="1" stroke="#000000" stroke-opacity="1" stroke-width="3.2"/>
<circle clip-path="url(#clip202)" cx="667.946" cy="1228.52" r="14.4" fill="#009af9" fill-rule="evenodd" fill-opacity="1" stroke="#000000" stroke-opacity="1" stroke-width="3.2"/>
<circle clip-path="url(#clip202)" cx="682.325" cy="1235.59" r="14.4" fill="#009af9" fill-rule="evenodd" fill-opacity="1" stroke="#000000" stroke-opacity="1" stroke-width="3.2"/>
<circle clip-path="url(#clip202)" cx="696.704" cy="1248.22" r="14.4" fill="#009af9" fill-rule="evenodd" fill-opacity="1" stroke="#000000" stroke-opacity="1" stroke-width="3.2"/>
<circle clip-path="url(#clip202)" cx="711.083" cy="1225.49" r="14.4" fill="#009af9" fill-rule="evenodd" fill-opacity="1" stroke="#000000" stroke-opacity="1" stroke-width="3.2"/>
<circle clip-path="url(#clip202)" cx="725.463" cy="1225.99" r="14.4" fill="#009af9" fill-rule="evenodd" fill-opacity="1" stroke="#000000" stroke-opacity="1" stroke-width="3.2"/>
<circle clip-path="url(#clip202)" cx="739.842" cy="1184.07" r="14.4" fill="#009af9" fill-rule="evenodd" fill-opacity="1" stroke="#000000" stroke-opacity="1" stroke-width="3.2"/>
<circle clip-path="url(#clip202)" cx="754.221" cy="1199.73" r="14.4" fill="#009af9" fill-rule="evenodd" fill-opacity="1" stroke="#000000" stroke-opacity="1" stroke-width="3.2"/>
<circle clip-path="url(#clip202)" cx="768.6" cy="1190.63" r="14.4" fill="#009af9" fill-rule="evenodd" fill-opacity="1" stroke="#000000" stroke-opacity="1" stroke-width="3.2"/>
<circle clip-path="url(#clip202)" cx="782.979" cy="1158.81" r="14.4" fill="#009af9" fill-rule="evenodd" fill-opacity="1" stroke="#000000" stroke-opacity="1" stroke-width="3.2"/>
<circle clip-path="url(#clip202)" cx="797.358" cy="1118.91" r="14.4" fill="#009af9" fill-rule="evenodd" fill-opacity="1" stroke="#000000" stroke-opacity="1" stroke-width="3.2"/>
<circle clip-path="url(#clip202)" cx="811.738" cy="1128.51" r="14.4" fill="#009af9" fill-rule="evenodd" fill-opacity="1" stroke="#000000" stroke-opacity="1" stroke-width="3.2"/>
<circle clip-path="url(#clip202)" cx="826.117" cy="1151.24" r="14.4" fill="#009af9" fill-rule="evenodd" fill-opacity="1" stroke="#000000" stroke-opacity="1" stroke-width="3.2"/>
<circle clip-path="url(#clip202)" cx="840.496" cy="1159.32" r="14.4" fill="#009af9" fill-rule="evenodd" fill-opacity="1" stroke="#000000" stroke-opacity="1" stroke-width="3.2"/>
<circle clip-path="url(#clip202)" cx="854.875" cy="1151.24" r="14.4" fill="#009af9" fill-rule="evenodd" fill-opacity="1" stroke="#000000" stroke-opacity="1" stroke-width="3.2"/>
<circle clip-path="url(#clip202)" cx="869.254" cy="1144.67" r="14.4" fill="#009af9" fill-rule="evenodd" fill-opacity="1" stroke="#000000" stroke-opacity="1" stroke-width="3.2"/>
<circle clip-path="url(#clip202)" cx="883.634" cy="1134.06" r="14.4" fill="#009af9" fill-rule="evenodd" fill-opacity="1" stroke="#000000" stroke-opacity="1" stroke-width="3.2"/>
<circle clip-path="url(#clip202)" cx="898.013" cy="1138.61" r="14.4" fill="#009af9" fill-rule="evenodd" fill-opacity="1" stroke="#000000" stroke-opacity="1" stroke-width="3.2"/>
<circle clip-path="url(#clip202)" cx="912.392" cy="1132.55" r="14.4" fill="#009af9" fill-rule="evenodd" fill-opacity="1" stroke="#000000" stroke-opacity="1" stroke-width="3.2"/>
<circle clip-path="url(#clip202)" cx="926.771" cy="1169.42" r="14.4" fill="#009af9" fill-rule="evenodd" fill-opacity="1" stroke="#000000" stroke-opacity="1" stroke-width="3.2"/>
<circle clip-path="url(#clip202)" cx="941.15" cy="1159.32" r="14.4" fill="#009af9" fill-rule="evenodd" fill-opacity="1" stroke="#000000" stroke-opacity="1" stroke-width="3.2"/>
<circle clip-path="url(#clip202)" cx="955.53" cy="1126.49" r="14.4" fill="#009af9" fill-rule="evenodd" fill-opacity="1" stroke="#000000" stroke-opacity="1" stroke-width="3.2"/>
<circle clip-path="url(#clip202)" cx="969.909" cy="1132.04" r="14.4" fill="#009af9" fill-rule="evenodd" fill-opacity="1" stroke="#000000" stroke-opacity="1" stroke-width="3.2"/>
<circle clip-path="url(#clip202)" cx="984.288" cy="1151.74" r="14.4" fill="#009af9" fill-rule="evenodd" fill-opacity="1" stroke="#000000" stroke-opacity="1" stroke-width="3.2"/>
<circle clip-path="url(#clip202)" cx="998.667" cy="1144.67" r="14.4" fill="#009af9" fill-rule="evenodd" fill-opacity="1" stroke="#000000" stroke-opacity="1" stroke-width="3.2"/>
<circle clip-path="url(#clip202)" cx="1013.05" cy="1124.46" r="14.4" fill="#009af9" fill-rule="evenodd" fill-opacity="1" stroke="#000000" stroke-opacity="1" stroke-width="3.2"/>
<circle clip-path="url(#clip202)" cx="1027.43" cy="1126.49" r="14.4" fill="#009af9" fill-rule="evenodd" fill-opacity="1" stroke="#000000" stroke-opacity="1" stroke-width="3.2"/>
<circle clip-path="url(#clip202)" cx="1041.8" cy="1097.69" r="14.4" fill="#009af9" fill-rule="evenodd" fill-opacity="1" stroke="#000000" stroke-opacity="1" stroke-width="3.2"/>
<circle clip-path="url(#clip202)" cx="1056.18" cy="1075.97" r="14.4" fill="#009af9" fill-rule="evenodd" fill-opacity="1" stroke="#000000" stroke-opacity="1" stroke-width="3.2"/>
<circle clip-path="url(#clip202)" cx="1070.56" cy="1103.25" r="14.4" fill="#009af9" fill-rule="evenodd" fill-opacity="1" stroke="#000000" stroke-opacity="1" stroke-width="3.2"/>
<circle clip-path="url(#clip202)" cx="1084.94" cy="1074.96" r="14.4" fill="#009af9" fill-rule="evenodd" fill-opacity="1" stroke="#000000" stroke-opacity="1" stroke-width="3.2"/>
<circle clip-path="url(#clip202)" cx="1099.32" cy="1094.66" r="14.4" fill="#009af9" fill-rule="evenodd" fill-opacity="1" stroke="#000000" stroke-opacity="1" stroke-width="3.2"/>
<circle clip-path="url(#clip202)" cx="1113.7" cy="1065.87" r="14.4" fill="#009af9" fill-rule="evenodd" fill-opacity="1" stroke="#000000" stroke-opacity="1" stroke-width="3.2"/>
<circle clip-path="url(#clip202)" cx="1128.08" cy="1052.74" r="14.4" fill="#009af9" fill-rule="evenodd" fill-opacity="1" stroke="#000000" stroke-opacity="1" stroke-width="3.2"/>
<circle clip-path="url(#clip202)" cx="1142.46" cy="1026.47" r="14.4" fill="#009af9" fill-rule="evenodd" fill-opacity="1" stroke="#000000" stroke-opacity="1" stroke-width="3.2"/>
<circle clip-path="url(#clip202)" cx="1156.84" cy="1053.24" r="14.4" fill="#009af9" fill-rule="evenodd" fill-opacity="1" stroke="#000000" stroke-opacity="1" stroke-width="3.2"/>
<circle clip-path="url(#clip202)" cx="1171.22" cy="991.621" r="14.4" fill="#009af9" fill-rule="evenodd" fill-opacity="1" stroke="#000000" stroke-opacity="1" stroke-width="3.2"/>
<circle clip-path="url(#clip202)" cx="1185.6" cy="991.621" r="14.4" fill="#009af9" fill-rule="evenodd" fill-opacity="1" stroke="#000000" stroke-opacity="1" stroke-width="3.2"/>
<circle clip-path="url(#clip202)" cx="1199.98" cy="991.621" r="14.4" fill="#009af9" fill-rule="evenodd" fill-opacity="1" stroke="#000000" stroke-opacity="1" stroke-width="3.2"/>
<circle clip-path="url(#clip202)" cx="1214.36" cy="1023.95" r="14.4" fill="#009af9" fill-rule="evenodd" fill-opacity="1" stroke="#000000" stroke-opacity="1" stroke-width="3.2"/>
<circle clip-path="url(#clip202)" cx="1228.73" cy="1009.8" r="14.4" fill="#009af9" fill-rule="evenodd" fill-opacity="1" stroke="#000000" stroke-opacity="1" stroke-width="3.2"/>
<circle clip-path="url(#clip202)" cx="1243.11" cy="971.921" r="14.4" fill="#009af9" fill-rule="evenodd" fill-opacity="1" stroke="#000000" stroke-opacity="1" stroke-width="3.2"/>
<circle clip-path="url(#clip202)" cx="1257.49" cy="956.263" r="14.4" fill="#009af9" fill-rule="evenodd" fill-opacity="1" stroke="#000000" stroke-opacity="1" stroke-width="3.2"/>
<circle clip-path="url(#clip202)" cx="1271.87" cy="932.017" r="14.4" fill="#009af9" fill-rule="evenodd" fill-opacity="1" stroke="#000000" stroke-opacity="1" stroke-width="3.2"/>
<circle clip-path="url(#clip202)" cx="1286.25" cy="938.584" r="14.4" fill="#009af9" fill-rule="evenodd" fill-opacity="1" stroke="#000000" stroke-opacity="1" stroke-width="3.2"/>
<circle clip-path="url(#clip202)" cx="1300.63" cy="927.471" r="14.4" fill="#009af9" fill-rule="evenodd" fill-opacity="1" stroke="#000000" stroke-opacity="1" stroke-width="3.2"/>
<circle clip-path="url(#clip202)" cx="1315.01" cy="879.486" r="14.4" fill="#009af9" fill-rule="evenodd" fill-opacity="1" stroke="#000000" stroke-opacity="1" stroke-width="3.2"/>
<circle clip-path="url(#clip202)" cx="1329.39" cy="892.619" r="14.4" fill="#009af9" fill-rule="evenodd" fill-opacity="1" stroke="#000000" stroke-opacity="1" stroke-width="3.2"/>
<circle clip-path="url(#clip202)" cx="1343.77" cy="870.394" r="14.4" fill="#009af9" fill-rule="evenodd" fill-opacity="1" stroke="#000000" stroke-opacity="1" stroke-width="3.2"/>
<circle clip-path="url(#clip202)" cx="1358.15" cy="885.042" r="14.4" fill="#009af9" fill-rule="evenodd" fill-opacity="1" stroke="#000000" stroke-opacity="1" stroke-width="3.2"/>
<circle clip-path="url(#clip202)" cx="1372.53" cy="880.496" r="14.4" fill="#009af9" fill-rule="evenodd" fill-opacity="1" stroke="#000000" stroke-opacity="1" stroke-width="3.2"/>
<circle clip-path="url(#clip202)" cx="1386.91" cy="906.257" r="14.4" fill="#009af9" fill-rule="evenodd" fill-opacity="1" stroke="#000000" stroke-opacity="1" stroke-width="3.2"/>
<circle clip-path="url(#clip202)" cx="1401.28" cy="838.572" r="14.4" fill="#009af9" fill-rule="evenodd" fill-opacity="1" stroke="#000000" stroke-opacity="1" stroke-width="3.2"/>
<circle clip-path="url(#clip202)" cx="1415.66" cy="831.5" r="14.4" fill="#009af9" fill-rule="evenodd" fill-opacity="1" stroke="#000000" stroke-opacity="1" stroke-width="3.2"/>
<circle clip-path="url(#clip202)" cx="1430.04" cy="829.985" r="14.4" fill="#009af9" fill-rule="evenodd" fill-opacity="1" stroke="#000000" stroke-opacity="1" stroke-width="3.2"/>
<circle clip-path="url(#clip202)" cx="1444.42" cy="811.296" r="14.4" fill="#009af9" fill-rule="evenodd" fill-opacity="1" stroke="#000000" stroke-opacity="1" stroke-width="3.2"/>
<circle clip-path="url(#clip202)" cx="1458.8" cy="779.979" r="14.4" fill="#009af9" fill-rule="evenodd" fill-opacity="1" stroke="#000000" stroke-opacity="1" stroke-width="3.2"/>
<circle clip-path="url(#clip202)" cx="1473.18" cy="806.245" r="14.4" fill="#009af9" fill-rule="evenodd" fill-opacity="1" stroke="#000000" stroke-opacity="1" stroke-width="3.2"/>
<circle clip-path="url(#clip202)" cx="1487.56" cy="814.326" r="14.4" fill="#009af9" fill-rule="evenodd" fill-opacity="1" stroke="#000000" stroke-opacity="1" stroke-width="3.2"/>
<circle clip-path="url(#clip202)" cx="1501.94" cy="854.23" r="14.4" fill="#009af9" fill-rule="evenodd" fill-opacity="1" stroke="#000000" stroke-opacity="1" stroke-width="3.2"/>
<circle clip-path="url(#clip202)" cx="1516.32" cy="797.658" r="14.4" fill="#009af9" fill-rule="evenodd" fill-opacity="1" stroke="#000000" stroke-opacity="1" stroke-width="3.2"/>
<circle clip-path="url(#clip202)" cx="1530.7" cy="824.934" r="14.4" fill="#009af9" fill-rule="evenodd" fill-opacity="1" stroke="#000000" stroke-opacity="1" stroke-width="3.2"/>
<circle clip-path="url(#clip202)" cx="1545.08" cy="817.862" r="14.4" fill="#009af9" fill-rule="evenodd" fill-opacity="1" stroke="#000000" stroke-opacity="1" stroke-width="3.2"/>
<circle clip-path="url(#clip202)" cx="1559.46" cy="813.821" r="14.4" fill="#009af9" fill-rule="evenodd" fill-opacity="1" stroke="#000000" stroke-opacity="1" stroke-width="3.2"/>
<circle clip-path="url(#clip202)" cx="1573.83" cy="779.474" r="14.4" fill="#009af9" fill-rule="evenodd" fill-opacity="1" stroke="#000000" stroke-opacity="1" stroke-width="3.2"/>
<circle clip-path="url(#clip202)" cx="1588.21" cy="789.071" r="14.4" fill="#009af9" fill-rule="evenodd" fill-opacity="1" stroke="#000000" stroke-opacity="1" stroke-width="3.2"/>
<circle clip-path="url(#clip202)" cx="1602.59" cy="762.805" r="14.4" fill="#009af9" fill-rule="evenodd" fill-opacity="1" stroke="#000000" stroke-opacity="1" stroke-width="3.2"/>
<circle clip-path="url(#clip202)" cx="1616.97" cy="716.84" r="14.4" fill="#009af9" fill-rule="evenodd" fill-opacity="1" stroke="#000000" stroke-opacity="1" stroke-width="3.2"/>
<circle clip-path="url(#clip202)" cx="1631.35" cy="747.147" r="14.4" fill="#009af9" fill-rule="evenodd" fill-opacity="1" stroke="#000000" stroke-opacity="1" stroke-width="3.2"/>
<circle clip-path="url(#clip202)" cx="1645.73" cy="687.038" r="14.4" fill="#009af9" fill-rule="evenodd" fill-opacity="1" stroke="#000000" stroke-opacity="1" stroke-width="3.2"/>
<circle clip-path="url(#clip202)" cx="1660.11" cy="695.12" r="14.4" fill="#009af9" fill-rule="evenodd" fill-opacity="1" stroke="#000000" stroke-opacity="1" stroke-width="3.2"/>
<circle clip-path="url(#clip202)" cx="1674.49" cy="700.171" r="14.4" fill="#009af9" fill-rule="evenodd" fill-opacity="1" stroke="#000000" stroke-opacity="1" stroke-width="3.2"/>
<circle clip-path="url(#clip202)" cx="1688.87" cy="708.758" r="14.4" fill="#009af9" fill-rule="evenodd" fill-opacity="1" stroke="#000000" stroke-opacity="1" stroke-width="3.2"/>
<circle clip-path="url(#clip202)" cx="1703.25" cy="676.431" r="14.4" fill="#009af9" fill-rule="evenodd" fill-opacity="1" stroke="#000000" stroke-opacity="1" stroke-width="3.2"/>
<circle clip-path="url(#clip202)" cx="1717.63" cy="701.182" r="14.4" fill="#009af9" fill-rule="evenodd" fill-opacity="1" stroke="#000000" stroke-opacity="1" stroke-width="3.2"/>
<circle clip-path="url(#clip202)" cx="1732.01" cy="670.875" r="14.4" fill="#009af9" fill-rule="evenodd" fill-opacity="1" stroke="#000000" stroke-opacity="1" stroke-width="3.2"/>
<circle clip-path="url(#clip202)" cx="1746.39" cy="608.241" r="14.4" fill="#009af9" fill-rule="evenodd" fill-opacity="1" stroke="#000000" stroke-opacity="1" stroke-width="3.2"/>
<circle clip-path="url(#clip202)" cx="1760.76" cy="637.537" r="14.4" fill="#009af9" fill-rule="evenodd" fill-opacity="1" stroke="#000000" stroke-opacity="1" stroke-width="3.2"/>
<circle clip-path="url(#clip202)" cx="1775.14" cy="595.108" r="14.4" fill="#009af9" fill-rule="evenodd" fill-opacity="1" stroke="#000000" stroke-opacity="1" stroke-width="3.2"/>
<circle clip-path="url(#clip202)" cx="1789.52" cy="599.654" r="14.4" fill="#009af9" fill-rule="evenodd" fill-opacity="1" stroke="#000000" stroke-opacity="1" stroke-width="3.2"/>
<circle clip-path="url(#clip202)" cx="1803.9" cy="651.681" r="14.4" fill="#009af9" fill-rule="evenodd" fill-opacity="1" stroke="#000000" stroke-opacity="1" stroke-width="3.2"/>
<circle clip-path="url(#clip202)" cx="1818.28" cy="648.65" r="14.4" fill="#009af9" fill-rule="evenodd" fill-opacity="1" stroke="#000000" stroke-opacity="1" stroke-width="3.2"/>
<circle clip-path="url(#clip202)" cx="1832.66" cy="645.619" r="14.4" fill="#009af9" fill-rule="evenodd" fill-opacity="1" stroke="#000000" stroke-opacity="1" stroke-width="3.2"/>
<circle clip-path="url(#clip202)" cx="1847.04" cy="621.879" r="14.4" fill="#009af9" fill-rule="evenodd" fill-opacity="1" stroke="#000000" stroke-opacity="1" stroke-width="3.2"/>
<circle clip-path="url(#clip202)" cx="1861.42" cy="599.149" r="14.4" fill="#009af9" fill-rule="evenodd" fill-opacity="1" stroke="#000000" stroke-opacity="1" stroke-width="3.2"/>
<circle clip-path="url(#clip202)" cx="1875.8" cy="592.077" r="14.4" fill="#009af9" fill-rule="evenodd" fill-opacity="1" stroke="#000000" stroke-opacity="1" stroke-width="3.2"/>
<circle clip-path="url(#clip202)" cx="1890.18" cy="576.419" r="14.4" fill="#009af9" fill-rule="evenodd" fill-opacity="1" stroke="#000000" stroke-opacity="1" stroke-width="3.2"/>
<circle clip-path="url(#clip202)" cx="1904.56" cy="562.276" r="14.4" fill="#009af9" fill-rule="evenodd" fill-opacity="1" stroke="#000000" stroke-opacity="1" stroke-width="3.2"/>
<circle clip-path="url(#clip202)" cx="1918.94" cy="585.006" r="14.4" fill="#009af9" fill-rule="evenodd" fill-opacity="1" stroke="#000000" stroke-opacity="1" stroke-width="3.2"/>
<circle clip-path="url(#clip202)" cx="1933.31" cy="567.832" r="14.4" fill="#009af9" fill-rule="evenodd" fill-opacity="1" stroke="#000000" stroke-opacity="1" stroke-width="3.2"/>
<circle clip-path="url(#clip202)" cx="1947.69" cy="544.597" r="14.4" fill="#009af9" fill-rule="evenodd" fill-opacity="1" stroke="#000000" stroke-opacity="1" stroke-width="3.2"/>
<circle clip-path="url(#clip202)" cx="1962.07" cy="518.331" r="14.4" fill="#009af9" fill-rule="evenodd" fill-opacity="1" stroke="#000000" stroke-opacity="1" stroke-width="3.2"/>
<circle clip-path="url(#clip202)" cx="1976.45" cy="482.973" r="14.4" fill="#009af9" fill-rule="evenodd" fill-opacity="1" stroke="#000000" stroke-opacity="1" stroke-width="3.2"/>
<circle clip-path="url(#clip202)" cx="1990.83" cy="540.051" r="14.4" fill="#009af9" fill-rule="evenodd" fill-opacity="1" stroke="#000000" stroke-opacity="1" stroke-width="3.2"/>
<circle clip-path="url(#clip202)" cx="2005.21" cy="490.55" r="14.4" fill="#009af9" fill-rule="evenodd" fill-opacity="1" stroke="#000000" stroke-opacity="1" stroke-width="3.2"/>
<circle clip-path="url(#clip202)" cx="2019.59" cy="472.366" r="14.4" fill="#009af9" fill-rule="evenodd" fill-opacity="1" stroke="#000000" stroke-opacity="1" stroke-width="3.2"/>
<circle clip-path="url(#clip202)" cx="2033.97" cy="444.585" r="14.4" fill="#009af9" fill-rule="evenodd" fill-opacity="1" stroke="#000000" stroke-opacity="1" stroke-width="3.2"/>
<circle clip-path="url(#clip202)" cx="2048.35" cy="429.937" r="14.4" fill="#009af9" fill-rule="evenodd" fill-opacity="1" stroke="#000000" stroke-opacity="1" stroke-width="3.2"/>
<circle clip-path="url(#clip202)" cx="2062.73" cy="387.002" r="14.4" fill="#009af9" fill-rule="evenodd" fill-opacity="1" stroke="#000000" stroke-opacity="1" stroke-width="3.2"/>
<circle clip-path="url(#clip202)" cx="2077.11" cy="393.569" r="14.4" fill="#009af9" fill-rule="evenodd" fill-opacity="1" stroke="#000000" stroke-opacity="1" stroke-width="3.2"/>
<circle clip-path="url(#clip202)" cx="2091.49" cy="391.548" r="14.4" fill="#009af9" fill-rule="evenodd" fill-opacity="1" stroke="#000000" stroke-opacity="1" stroke-width="3.2"/>
<circle clip-path="url(#clip202)" cx="2105.87" cy="370.839" r="14.4" fill="#009af9" fill-rule="evenodd" fill-opacity="1" stroke="#000000" stroke-opacity="1" stroke-width="3.2"/>
<circle clip-path="url(#clip202)" cx="2120.24" cy="363.767" r="14.4" fill="#009af9" fill-rule="evenodd" fill-opacity="1" stroke="#000000" stroke-opacity="1" stroke-width="3.2"/>
<circle clip-path="url(#clip202)" cx="2134.62" cy="321.338" r="14.4" fill="#009af9" fill-rule="evenodd" fill-opacity="1" stroke="#000000" stroke-opacity="1" stroke-width="3.2"/>
<circle clip-path="url(#clip202)" cx="2149" cy="289.011" r="14.4" fill="#009af9" fill-rule="evenodd" fill-opacity="1" stroke="#000000" stroke-opacity="1" stroke-width="3.2"/>
<circle clip-path="url(#clip202)" cx="2163.38" cy="255.168" r="14.4" fill="#009af9" fill-rule="evenodd" fill-opacity="1" stroke="#000000" stroke-opacity="1" stroke-width="3.2"/>
<circle clip-path="url(#clip202)" cx="2177.76" cy="249.107" r="14.4" fill="#009af9" fill-rule="evenodd" fill-opacity="1" stroke="#000000" stroke-opacity="1" stroke-width="3.2"/>
<circle clip-path="url(#clip202)" cx="2192.14" cy="213.749" r="14.4" fill="#009af9" fill-rule="evenodd" fill-opacity="1" stroke="#000000" stroke-opacity="1" stroke-width="3.2"/>
<circle clip-path="url(#clip202)" cx="2206.52" cy="224.861" r="14.4" fill="#009af9" fill-rule="evenodd" fill-opacity="1" stroke="#000000" stroke-opacity="1" stroke-width="3.2"/>
<circle clip-path="url(#clip202)" cx="2220.9" cy="170.815" r="14.4" fill="#009af9" fill-rule="evenodd" fill-opacity="1" stroke="#000000" stroke-opacity="1" stroke-width="3.2"/>
<circle clip-path="url(#clip202)" cx="2235.28" cy="186.473" r="14.4" fill="#009af9" fill-rule="evenodd" fill-opacity="1" stroke="#000000" stroke-opacity="1" stroke-width="3.2"/>
<circle clip-path="url(#clip202)" cx="2249.66" cy="184.958" r="14.4" fill="#009af9" fill-rule="evenodd" fill-opacity="1" stroke="#000000" stroke-opacity="1" stroke-width="3.2"/>
<circle clip-path="url(#clip202)" cx="2264.04" cy="149.6" r="14.4" fill="#009af9" fill-rule="evenodd" fill-opacity="1" stroke="#000000" stroke-opacity="1" stroke-width="3.2"/>
<circle clip-path="url(#clip202)" cx="2278.42" cy="142.023" r="14.4" fill="#009af9" fill-rule="evenodd" fill-opacity="1" stroke="#000000" stroke-opacity="1" stroke-width="3.2"/>
<circle clip-path="url(#clip202)" cx="2292.79" cy="87.9763" r="14.4" fill="#009af9" fill-rule="evenodd" fill-opacity="1" stroke="#000000" stroke-opacity="1" stroke-width="3.2"/>
<path clip-path="url(#clip200)" d="M304.746 198.898 L1048.55 198.898 L1048.55 95.2176 L304.746 95.2176  Z" fill="#ffffff" fill-rule="evenodd" fill-opacity="1"/>
<polyline clip-path="url(#clip200)" style="stroke:#000000; stroke-linecap:round; stroke-linejoin:round; stroke-width:4; stroke-opacity:1; fill:none" points="304.746,198.898 1048.55,198.898 1048.55,95.2176 304.746,95.2176 304.746,198.898 "/>
<circle clip-path="url(#clip200)" cx="398.908" cy="147.058" r="23.04" fill="#009af9" fill-rule="evenodd" fill-opacity="1" stroke="#000000" stroke-opacity="1" stroke-width="5.12"/>
<path clip-path="url(#clip200)" d="M518.625 159.407 L518.625 150.125 L510.986 150.125 L510.986 146.282 L523.254 146.282 L523.254 161.12 Q520.546 163.041 517.282 164.037 Q514.018 165.009 510.314 165.009 Q502.213 165.009 497.629 160.287 Q493.069 155.541 493.069 147.092 Q493.069 138.62 497.629 133.898 Q502.213 129.153 510.314 129.153 Q513.694 129.153 516.726 129.986 Q519.782 130.819 522.351 132.44 L522.351 137.416 Q519.759 135.217 516.842 134.106 Q513.926 132.995 510.708 132.995 Q504.365 132.995 501.171 136.537 Q498 140.078 498 147.092 Q498 154.083 501.171 157.625 Q504.365 161.166 510.708 161.166 Q513.185 161.166 515.129 160.75 Q517.074 160.31 518.625 159.407 Z" fill="#000000" fill-rule="evenodd" fill-opacity="1" /><path clip-path="url(#clip200)" d="M531.611 128.319 L535.87 128.319 L535.87 164.338 L531.611 164.338 L531.611 128.319 Z" fill="#000000" fill-rule="evenodd" fill-opacity="1" /><path clip-path="url(#clip200)" d="M554.828 141.398 Q551.402 141.398 549.411 144.083 Q547.421 146.745 547.421 151.398 Q547.421 156.051 549.388 158.736 Q551.379 161.398 554.828 161.398 Q558.231 161.398 560.222 158.713 Q562.212 156.027 562.212 151.398 Q562.212 146.791 560.222 144.106 Q558.231 141.398 554.828 141.398 M554.828 137.787 Q560.384 137.787 563.555 141.398 Q566.726 145.009 566.726 151.398 Q566.726 157.764 563.555 161.398 Q560.384 165.009 554.828 165.009 Q549.249 165.009 546.078 161.398 Q542.93 157.764 542.93 151.398 Q542.93 145.009 546.078 141.398 Q549.249 137.787 554.828 137.787 Z" fill="#000000" fill-rule="evenodd" fill-opacity="1" /><path clip-path="url(#clip200)" d="M592.397 151.398 Q592.397 146.699 590.453 144.037 Q588.532 141.352 585.152 141.352 Q581.772 141.352 579.828 144.037 Q577.907 146.699 577.907 151.398 Q577.907 156.097 579.828 158.782 Q581.772 161.444 585.152 161.444 Q588.532 161.444 590.453 158.782 Q592.397 156.097 592.397 151.398 M577.907 142.347 Q579.249 140.032 581.286 138.921 Q583.346 137.787 586.194 137.787 Q590.916 137.787 593.856 141.537 Q596.819 145.287 596.819 151.398 Q596.819 157.509 593.856 161.259 Q590.916 165.009 586.194 165.009 Q583.346 165.009 581.286 163.898 Q579.249 162.763 577.907 160.449 L577.907 164.338 L573.624 164.338 L573.624 128.319 L577.907 128.319 L577.907 142.347 Z" fill="#000000" fill-rule="evenodd" fill-opacity="1" /><path clip-path="url(#clip200)" d="M615.661 151.305 Q610.499 151.305 608.508 152.486 Q606.518 153.666 606.518 156.514 Q606.518 158.782 607.999 160.125 Q609.504 161.444 612.073 161.444 Q615.615 161.444 617.744 158.944 Q619.897 156.421 619.897 152.254 L619.897 151.305 L615.661 151.305 M624.156 149.546 L624.156 164.338 L619.897 164.338 L619.897 160.402 Q618.439 162.763 616.263 163.898 Q614.087 165.009 610.939 165.009 Q606.957 165.009 604.596 162.787 Q602.258 160.541 602.258 156.791 Q602.258 152.416 605.175 150.194 Q608.115 147.972 613.925 147.972 L619.897 147.972 L619.897 147.555 Q619.897 144.615 617.953 143.018 Q616.031 141.398 612.536 141.398 Q610.314 141.398 608.207 141.93 Q606.101 142.463 604.157 143.527 L604.157 139.592 Q606.494 138.69 608.694 138.25 Q610.893 137.787 612.976 137.787 Q618.601 137.787 621.379 140.703 Q624.156 143.62 624.156 149.546 Z" fill="#000000" fill-rule="evenodd" fill-opacity="1" /><path clip-path="url(#clip200)" d="M632.93 128.319 L637.189 128.319 L637.189 164.338 L632.93 164.338 L632.93 128.319 Z" fill="#000000" fill-rule="evenodd" fill-opacity="1" /><path clip-path="url(#clip200)" d="M661.355 129.778 L668.323 129.778 L677.142 153.296 L686.008 129.778 L692.976 129.778 L692.976 164.338 L688.415 164.338 L688.415 133.99 L679.503 157.694 L674.804 157.694 L665.892 133.99 L665.892 164.338 L661.355 164.338 L661.355 129.778 Z" fill="#000000" fill-rule="evenodd" fill-opacity="1" /><path clip-path="url(#clip200)" d="M724.248 150.31 L724.248 152.393 L704.665 152.393 Q704.943 156.791 707.304 159.106 Q709.688 161.398 713.924 161.398 Q716.378 161.398 718.67 160.796 Q720.985 160.194 723.253 158.99 L723.253 163.018 Q720.961 163.99 718.554 164.5 Q716.147 165.009 713.67 165.009 Q707.466 165.009 703.832 161.398 Q700.221 157.787 700.221 151.629 Q700.221 145.264 703.647 141.537 Q707.096 137.787 712.929 137.787 Q718.161 137.787 721.193 141.166 Q724.248 144.523 724.248 150.31 M719.989 149.06 Q719.943 145.565 718.022 143.481 Q716.124 141.398 712.975 141.398 Q709.411 141.398 707.258 143.412 Q705.128 145.426 704.804 149.083 L719.989 149.06 Z" fill="#000000" fill-rule="evenodd" fill-opacity="1" /><path clip-path="url(#clip200)" d="M743.022 151.305 Q737.86 151.305 735.869 152.486 Q733.878 153.666 733.878 156.514 Q733.878 158.782 735.36 160.125 Q736.864 161.444 739.434 161.444 Q742.975 161.444 745.105 158.944 Q747.258 156.421 747.258 152.254 L747.258 151.305 L743.022 151.305 M751.517 149.546 L751.517 164.338 L747.258 164.338 L747.258 160.402 Q745.799 162.763 743.623 163.898 Q741.447 165.009 738.299 165.009 Q734.318 165.009 731.957 162.787 Q729.619 160.541 729.619 156.791 Q729.619 152.416 732.535 150.194 Q735.475 147.972 741.285 147.972 L747.258 147.972 L747.258 147.555 Q747.258 144.615 745.313 143.018 Q743.392 141.398 739.897 141.398 Q737.674 141.398 735.568 141.93 Q733.461 142.463 731.517 143.527 L731.517 139.592 Q733.855 138.69 736.054 138.25 Q738.253 137.787 740.336 137.787 Q745.961 137.787 748.739 140.703 Q751.517 143.62 751.517 149.546 Z" fill="#000000" fill-rule="evenodd" fill-opacity="1" /><path clip-path="url(#clip200)" d="M781.841 148.689 L781.841 164.338 L777.582 164.338 L777.582 148.828 Q777.582 145.148 776.146 143.319 Q774.711 141.49 771.841 141.49 Q768.392 141.49 766.401 143.69 Q764.41 145.889 764.41 149.685 L764.41 164.338 L760.128 164.338 L760.128 138.412 L764.41 138.412 L764.41 142.44 Q765.938 140.102 767.998 138.944 Q770.082 137.787 772.79 137.787 Q777.257 137.787 779.549 140.565 Q781.841 143.319 781.841 148.689 Z" fill="#000000" fill-rule="evenodd" fill-opacity="1" /><path clip-path="url(#clip200)" d="M826.308 130.912 L826.308 135.472 Q823.646 134.199 821.285 133.574 Q818.924 132.949 816.725 132.949 Q812.905 132.949 810.822 134.43 Q808.762 135.912 808.762 138.643 Q808.762 140.935 810.128 142.115 Q811.517 143.273 815.359 143.99 L818.183 144.569 Q823.415 145.565 825.891 148.088 Q828.391 150.588 828.391 154.801 Q828.391 159.824 825.012 162.416 Q821.655 165.009 815.151 165.009 Q812.697 165.009 809.919 164.453 Q807.165 163.898 804.202 162.81 L804.202 157.995 Q807.049 159.592 809.78 160.402 Q812.512 161.213 815.151 161.213 Q819.155 161.213 821.331 159.639 Q823.507 158.064 823.507 155.148 Q823.507 152.602 821.933 151.166 Q820.382 149.731 816.817 149.014 L813.97 148.458 Q808.739 147.416 806.401 145.194 Q804.063 142.972 804.063 139.014 Q804.063 134.43 807.28 131.791 Q810.521 129.153 816.192 129.153 Q818.623 129.153 821.146 129.592 Q823.669 130.032 826.308 130.912 Z" fill="#000000" fill-rule="evenodd" fill-opacity="1" /><path clip-path="url(#clip200)" d="M857.674 150.31 L857.674 152.393 L838.09 152.393 Q838.368 156.791 840.729 159.106 Q843.114 161.398 847.35 161.398 Q849.803 161.398 852.095 160.796 Q854.41 160.194 856.678 158.99 L856.678 163.018 Q854.387 163.99 851.979 164.5 Q849.572 165.009 847.095 165.009 Q840.891 165.009 837.257 161.398 Q833.646 157.787 833.646 151.629 Q833.646 145.264 837.072 141.537 Q840.521 137.787 846.354 137.787 Q851.586 137.787 854.618 141.166 Q857.674 144.523 857.674 150.31 M853.414 149.06 Q853.368 145.565 851.447 143.481 Q849.549 141.398 846.401 141.398 Q842.836 141.398 840.683 143.412 Q838.553 145.426 838.229 149.083 L853.414 149.06 Z" fill="#000000" fill-rule="evenodd" fill-opacity="1" /><path clip-path="url(#clip200)" d="M876.447 151.305 Q871.285 151.305 869.294 152.486 Q867.303 153.666 867.303 156.514 Q867.303 158.782 868.785 160.125 Q870.289 161.444 872.859 161.444 Q876.4 161.444 878.53 158.944 Q880.683 156.421 880.683 152.254 L880.683 151.305 L876.447 151.305 M884.942 149.546 L884.942 164.338 L880.683 164.338 L880.683 160.402 Q879.225 162.763 877.049 163.898 Q874.873 165.009 871.725 165.009 Q867.743 165.009 865.382 162.787 Q863.044 160.541 863.044 156.791 Q863.044 152.416 865.961 150.194 Q868.9 147.972 874.711 147.972 L880.683 147.972 L880.683 147.555 Q880.683 144.615 878.738 143.018 Q876.817 141.398 873.322 141.398 Q871.1 141.398 868.993 141.93 Q866.887 142.463 864.942 143.527 L864.942 139.592 Q867.28 138.69 869.479 138.25 Q871.678 137.787 873.762 137.787 Q879.387 137.787 882.164 140.703 Q884.942 143.62 884.942 149.546 Z" fill="#000000" fill-rule="evenodd" fill-opacity="1" /><path clip-path="url(#clip200)" d="M908.97 129.778 L913.646 129.778 L913.646 160.402 L930.474 160.402 L930.474 164.338 L908.97 164.338 L908.97 129.778 Z" fill="#000000" fill-rule="evenodd" fill-opacity="1" /><path clip-path="url(#clip200)" d="M956.539 150.31 L956.539 152.393 L936.956 152.393 Q937.233 156.791 939.595 159.106 Q941.979 161.398 946.215 161.398 Q948.669 161.398 950.96 160.796 Q953.275 160.194 955.544 158.99 L955.544 163.018 Q953.252 163.99 950.844 164.5 Q948.437 165.009 945.96 165.009 Q939.757 165.009 936.122 161.398 Q932.511 157.787 932.511 151.629 Q932.511 145.264 935.937 141.537 Q939.386 137.787 945.22 137.787 Q950.451 137.787 953.483 141.166 Q956.539 144.523 956.539 150.31 M952.28 149.06 Q952.233 145.565 950.312 143.481 Q948.414 141.398 945.266 141.398 Q941.701 141.398 939.548 143.412 Q937.419 145.426 937.095 149.083 L952.28 149.06 Z" fill="#000000" fill-rule="evenodd" fill-opacity="1" /><path clip-path="url(#clip200)" d="M960.474 138.412 L964.988 138.412 L973.09 160.171 L981.192 138.412 L985.705 138.412 L975.983 164.338 L970.196 164.338 L960.474 138.412 Z" fill="#000000" fill-rule="evenodd" fill-opacity="1" /><path clip-path="url(#clip200)" d="M1013.76 150.31 L1013.76 152.393 L994.178 152.393 Q994.455 156.791 996.816 159.106 Q999.201 161.398 1003.44 161.398 Q1005.89 161.398 1008.18 160.796 Q1010.5 160.194 1012.77 158.99 L1012.77 163.018 Q1010.47 163.99 1008.07 164.5 Q1005.66 165.009 1003.18 165.009 Q996.979 165.009 993.344 161.398 Q989.733 157.787 989.733 151.629 Q989.733 145.264 993.159 141.537 Q996.608 137.787 1002.44 137.787 Q1007.67 137.787 1010.71 141.166 Q1013.76 144.523 1013.76 150.31 M1009.5 149.06 Q1009.46 145.565 1007.53 143.481 Q1005.64 141.398 1002.49 141.398 Q998.923 141.398 996.77 143.412 Q994.641 145.426 994.316 149.083 L1009.5 149.06 Z" fill="#000000" fill-rule="evenodd" fill-opacity="1" /><path clip-path="url(#clip200)" d="M1020.75 128.319 L1025.01 128.319 L1025.01 164.338 L1020.75 164.338 L1020.75 128.319 Z" fill="#000000" fill-rule="evenodd" fill-opacity="1" /></svg>
