<?xml version="1.0" encoding="utf-8"?>
<svg xmlns="http://www.w3.org/2000/svg" xmlns:xlink="http://www.w3.org/1999/xlink" width="600" height="400" viewBox="0 0 2400 1600">
<defs>
  <clipPath id="clip970">
    <rect x="0" y="0" width="2400" height="1600"/>
  </clipPath>
</defs>
<path clip-path="url(#clip970)" d="
M0 1600 L2400 1600 L2400 0 L0 0  Z
  " fill="#ffffff" fill-rule="evenodd" fill-opacity="1"/>
<defs>
  <clipPath id="clip971">
    <rect x="480" y="0" width="1681" height="1600"/>
  </clipPath>
</defs>
<path clip-path="url(#clip970)" d="
M272.297 1423.18 L2352.76 1423.18 L2352.76 47.2441 L272.297 47.2441  Z
  " fill="#ffffff" fill-rule="evenodd" fill-opacity="1"/>
<defs>
  <clipPath id="clip972">
    <rect x="272" y="47" width="2081" height="1377"/>
  </clipPath>
</defs>
<polyline clip-path="url(#clip970)" style="stroke:#000000; stroke-linecap:butt; stroke-linejoin:round; stroke-width:4; stroke-opacity:1; fill:none" points="
  272.297,1423.18 2352.76,1423.18 
  "/>
<polyline clip-path="url(#clip970)" style="stroke:#000000; stroke-linecap:butt; stroke-linejoin:round; stroke-width:4; stroke-opacity:1; fill:none" points="
  618.941,1423.18 618.941,1404.28 
  "/>
<polyline clip-path="url(#clip970)" style="stroke:#000000; stroke-linecap:butt; stroke-linejoin:round; stroke-width:4; stroke-opacity:1; fill:none" points="
  987.869,1423.18 987.869,1404.28 
  "/>
<polyline clip-path="url(#clip970)" style="stroke:#000000; stroke-linecap:butt; stroke-linejoin:round; stroke-width:4; stroke-opacity:1; fill:none" points="
  1356.8,1423.18 1356.8,1404.28 
  "/>
<polyline clip-path="url(#clip970)" style="stroke:#000000; stroke-linecap:butt; stroke-linejoin:round; stroke-width:4; stroke-opacity:1; fill:none" points="
  1725.73,1423.18 1725.73,1404.28 
  "/>
<polyline clip-path="url(#clip970)" style="stroke:#000000; stroke-linecap:butt; stroke-linejoin:round; stroke-width:4; stroke-opacity:1; fill:none" points="
  2094.65,1423.18 2094.65,1404.28 
  "/>
<path clip-path="url(#clip970)" d="M563.467 1481.64 L571.106 1481.64 L571.106 1455.28 L562.796 1456.95 L562.796 1452.69 L571.06 1451.02 L575.736 1451.02 L575.736 1481.64 L583.374 1481.64 L583.374 1485.58 L563.467 1485.58 L563.467 1481.64 Z" fill="#000000" fill-rule="evenodd" fill-opacity="1" /><path clip-path="url(#clip970)" d="M592.958 1484.86 L592.958 1480.6 Q594.717 1481.44 596.523 1481.88 Q598.328 1482.32 600.064 1482.32 Q604.694 1482.32 607.124 1479.21 Q609.578 1476.09 609.925 1469.75 Q608.583 1471.74 606.522 1472.8 Q604.462 1473.87 601.962 1473.87 Q596.777 1473.87 593.745 1470.74 Q590.736 1467.59 590.736 1462.15 Q590.736 1456.83 593.884 1453.61 Q597.032 1450.39 602.263 1450.39 Q608.259 1450.39 611.407 1455 Q614.578 1459.58 614.578 1468.33 Q614.578 1476.51 610.689 1481.39 Q606.823 1486.25 600.273 1486.25 Q598.513 1486.25 596.708 1485.9 Q594.902 1485.56 592.958 1484.86 M602.263 1470.21 Q605.411 1470.21 607.24 1468.06 Q609.092 1465.9 609.092 1462.15 Q609.092 1458.43 607.24 1456.27 Q605.411 1454.1 602.263 1454.1 Q599.115 1454.1 597.263 1456.27 Q595.435 1458.43 595.435 1462.15 Q595.435 1465.9 597.263 1468.06 Q599.115 1470.21 602.263 1470.21 Z" fill="#000000" fill-rule="evenodd" fill-opacity="1" /><path clip-path="url(#clip970)" d="M632.981 1454.1 Q629.37 1454.1 627.541 1457.66 Q625.735 1461.2 625.735 1468.33 Q625.735 1475.44 627.541 1479.01 Q629.37 1482.55 632.981 1482.55 Q636.615 1482.55 638.42 1479.01 Q640.249 1475.44 640.249 1468.33 Q640.249 1461.2 638.42 1457.66 Q636.615 1454.1 632.981 1454.1 M632.981 1450.39 Q638.791 1450.39 641.846 1455 Q644.925 1459.58 644.925 1468.33 Q644.925 1477.06 641.846 1481.67 Q638.791 1486.25 632.981 1486.25 Q627.171 1486.25 624.092 1481.67 Q621.036 1477.06 621.036 1468.33 Q621.036 1459.58 624.092 1455 Q627.171 1450.39 632.981 1450.39 Z" fill="#000000" fill-rule="evenodd" fill-opacity="1" /><path clip-path="url(#clip970)" d="M663.143 1454.1 Q659.531 1454.1 657.703 1457.66 Q655.897 1461.2 655.897 1468.33 Q655.897 1475.44 657.703 1479.01 Q659.531 1482.55 663.143 1482.55 Q666.777 1482.55 668.582 1479.01 Q670.411 1475.44 670.411 1468.33 Q670.411 1461.2 668.582 1457.66 Q666.777 1454.1 663.143 1454.1 M663.143 1450.39 Q668.953 1450.39 672.008 1455 Q675.087 1459.58 675.087 1468.33 Q675.087 1477.06 672.008 1481.67 Q668.953 1486.25 663.143 1486.25 Q657.332 1486.25 654.254 1481.67 Q651.198 1477.06 651.198 1468.33 Q651.198 1459.58 654.254 1455 Q657.332 1450.39 663.143 1450.39 Z" fill="#000000" fill-rule="evenodd" fill-opacity="1" /><path clip-path="url(#clip970)" d="M932.893 1481.64 L940.532 1481.64 L940.532 1455.28 L932.222 1456.95 L932.222 1452.69 L940.485 1451.02 L945.161 1451.02 L945.161 1481.64 L952.8 1481.64 L952.8 1485.58 L932.893 1485.58 L932.893 1481.64 Z" fill="#000000" fill-rule="evenodd" fill-opacity="1" /><path clip-path="url(#clip970)" d="M962.384 1484.86 L962.384 1480.6 Q964.143 1481.44 965.948 1481.88 Q967.754 1482.32 969.49 1482.32 Q974.12 1482.32 976.55 1479.21 Q979.004 1476.09 979.351 1469.75 Q978.008 1471.74 975.948 1472.8 Q973.888 1473.87 971.388 1473.87 Q966.203 1473.87 963.171 1470.74 Q960.161 1467.59 960.161 1462.15 Q960.161 1456.83 963.309 1453.61 Q966.458 1450.39 971.689 1450.39 Q977.684 1450.39 980.832 1455 Q984.004 1459.58 984.004 1468.33 Q984.004 1476.51 980.115 1481.39 Q976.249 1486.25 969.698 1486.25 Q967.939 1486.25 966.133 1485.9 Q964.328 1485.56 962.384 1484.86 M971.689 1470.21 Q974.837 1470.21 976.666 1468.06 Q978.518 1465.9 978.518 1462.15 Q978.518 1458.43 976.666 1456.27 Q974.837 1454.1 971.689 1454.1 Q968.541 1454.1 966.689 1456.27 Q964.86 1458.43 964.86 1462.15 Q964.86 1465.9 966.689 1468.06 Q968.541 1470.21 971.689 1470.21 Z" fill="#000000" fill-rule="evenodd" fill-opacity="1" /><path clip-path="url(#clip970)" d="M996.434 1481.64 L1012.75 1481.64 L1012.75 1485.58 L990.809 1485.58 L990.809 1481.64 Q993.471 1478.89 998.055 1474.26 Q1002.66 1469.61 1003.84 1468.27 Q1006.09 1465.74 1006.97 1464.01 Q1007.87 1462.25 1007.87 1460.56 Q1007.87 1457.8 1005.92 1456.07 Q1004 1454.33 1000.9 1454.33 Q998.703 1454.33 996.249 1455.09 Q993.819 1455.86 991.041 1457.41 L991.041 1452.69 Q993.865 1451.55 996.319 1450.97 Q998.772 1450.39 1000.81 1450.39 Q1006.18 1450.39 1009.37 1453.08 Q1012.57 1455.77 1012.57 1460.26 Q1012.57 1462.39 1011.76 1464.31 Q1010.97 1466.2 1008.86 1468.8 Q1008.29 1469.47 1005.18 1472.69 Q1002.08 1475.88 996.434 1481.64 Z" fill="#000000" fill-rule="evenodd" fill-opacity="1" /><path clip-path="url(#clip970)" d="M1022.61 1451.02 L1040.97 1451.02 L1040.97 1454.96 L1026.9 1454.96 L1026.9 1463.43 Q1027.92 1463.08 1028.93 1462.92 Q1029.95 1462.73 1030.97 1462.73 Q1036.76 1462.73 1040.14 1465.9 Q1043.52 1469.08 1043.52 1474.49 Q1043.52 1480.07 1040.05 1483.17 Q1036.57 1486.25 1030.25 1486.25 Q1028.08 1486.25 1025.81 1485.88 Q1023.56 1485.51 1021.16 1484.77 L1021.16 1480.07 Q1023.24 1481.2 1025.46 1481.76 Q1027.68 1482.32 1030.16 1482.32 Q1034.17 1482.32 1036.5 1480.21 Q1038.84 1478.1 1038.84 1474.49 Q1038.84 1470.88 1036.5 1468.77 Q1034.17 1466.67 1030.16 1466.67 Q1028.29 1466.67 1026.41 1467.08 Q1024.56 1467.5 1022.61 1468.38 L1022.61 1451.02 Z" fill="#000000" fill-rule="evenodd" fill-opacity="1" /><path clip-path="url(#clip970)" d="M1301.32 1481.64 L1308.96 1481.64 L1308.96 1455.28 L1300.65 1456.95 L1300.65 1452.69 L1308.92 1451.02 L1313.59 1451.02 L1313.59 1481.64 L1321.23 1481.64 L1321.23 1485.58 L1301.32 1485.58 L1301.32 1481.64 Z" fill="#000000" fill-rule="evenodd" fill-opacity="1" /><path clip-path="url(#clip970)" d="M1330.81 1484.86 L1330.81 1480.6 Q1332.57 1481.44 1334.38 1481.88 Q1336.18 1482.32 1337.92 1482.32 Q1342.55 1482.32 1344.98 1479.21 Q1347.43 1476.09 1347.78 1469.75 Q1346.44 1471.74 1344.38 1472.8 Q1342.32 1473.87 1339.82 1473.87 Q1334.63 1473.87 1331.6 1470.74 Q1328.59 1467.59 1328.59 1462.15 Q1328.59 1456.83 1331.74 1453.61 Q1334.89 1450.39 1340.12 1450.39 Q1346.11 1450.39 1349.26 1455 Q1352.43 1459.58 1352.43 1468.33 Q1352.43 1476.51 1348.55 1481.39 Q1344.68 1486.25 1338.13 1486.25 Q1336.37 1486.25 1334.56 1485.9 Q1332.76 1485.56 1330.81 1484.86 M1340.12 1470.21 Q1343.27 1470.21 1345.1 1468.06 Q1346.95 1465.9 1346.95 1462.15 Q1346.95 1458.43 1345.1 1456.27 Q1343.27 1454.1 1340.12 1454.1 Q1336.97 1454.1 1335.12 1456.27 Q1333.29 1458.43 1333.29 1462.15 Q1333.29 1465.9 1335.12 1468.06 Q1336.97 1470.21 1340.12 1470.21 Z" fill="#000000" fill-rule="evenodd" fill-opacity="1" /><path clip-path="url(#clip970)" d="M1360.88 1451.02 L1379.24 1451.02 L1379.24 1454.96 L1365.17 1454.96 L1365.17 1463.43 Q1366.18 1463.08 1367.2 1462.92 Q1368.22 1462.73 1369.24 1462.73 Q1375.03 1462.73 1378.41 1465.9 Q1381.79 1469.08 1381.79 1474.49 Q1381.79 1480.07 1378.31 1483.17 Q1374.84 1486.25 1368.52 1486.25 Q1366.35 1486.25 1364.08 1485.88 Q1361.83 1485.51 1359.42 1484.77 L1359.42 1480.07 Q1361.51 1481.2 1363.73 1481.76 Q1365.95 1482.32 1368.43 1482.32 Q1372.43 1482.32 1374.77 1480.21 Q1377.11 1478.1 1377.11 1474.49 Q1377.11 1470.88 1374.77 1468.77 Q1372.43 1466.67 1368.43 1466.67 Q1366.55 1466.67 1364.68 1467.08 Q1362.83 1467.5 1360.88 1468.38 L1360.88 1451.02 Z" fill="#000000" fill-rule="evenodd" fill-opacity="1" /><path clip-path="url(#clip970)" d="M1401 1454.1 Q1397.39 1454.1 1395.56 1457.66 Q1393.75 1461.2 1393.75 1468.33 Q1393.75 1475.44 1395.56 1479.01 Q1397.39 1482.55 1401 1482.55 Q1404.63 1482.55 1406.44 1479.01 Q1408.27 1475.44 1408.27 1468.33 Q1408.27 1461.2 1406.44 1457.66 Q1404.63 1454.1 1401 1454.1 M1401 1450.39 Q1406.81 1450.39 1409.86 1455 Q1412.94 1459.58 1412.94 1468.33 Q1412.94 1477.06 1409.86 1481.67 Q1406.81 1486.25 1401 1486.25 Q1395.19 1486.25 1392.11 1481.67 Q1389.05 1477.06 1389.05 1468.33 Q1389.05 1459.58 1392.11 1455 Q1395.19 1450.39 1401 1450.39 Z" fill="#000000" fill-rule="evenodd" fill-opacity="1" /><path clip-path="url(#clip970)" d="M1670.75 1481.64 L1678.39 1481.64 L1678.39 1455.28 L1670.08 1456.95 L1670.08 1452.69 L1678.34 1451.02 L1683.02 1451.02 L1683.02 1481.64 L1690.66 1481.64 L1690.66 1485.58 L1670.75 1485.58 L1670.75 1481.64 Z" fill="#000000" fill-rule="evenodd" fill-opacity="1" /><path clip-path="url(#clip970)" d="M1700.24 1484.86 L1700.24 1480.6 Q1702 1481.44 1703.8 1481.88 Q1705.61 1482.32 1707.35 1482.32 Q1711.98 1482.32 1714.41 1479.21 Q1716.86 1476.09 1717.21 1469.75 Q1715.86 1471.74 1713.8 1472.8 Q1711.74 1473.87 1709.24 1473.87 Q1704.06 1473.87 1701.03 1470.74 Q1698.02 1467.59 1698.02 1462.15 Q1698.02 1456.83 1701.17 1453.61 Q1704.31 1450.39 1709.55 1450.39 Q1715.54 1450.39 1718.69 1455 Q1721.86 1459.58 1721.86 1468.33 Q1721.86 1476.51 1717.97 1481.39 Q1714.11 1486.25 1707.55 1486.25 Q1705.8 1486.25 1703.99 1485.9 Q1702.18 1485.56 1700.24 1484.86 M1709.55 1470.21 Q1712.69 1470.21 1714.52 1468.06 Q1716.37 1465.9 1716.37 1462.15 Q1716.37 1458.43 1714.52 1456.27 Q1712.69 1454.1 1709.55 1454.1 Q1706.4 1454.1 1704.55 1456.27 Q1702.72 1458.43 1702.72 1462.15 Q1702.72 1465.9 1704.55 1468.06 Q1706.4 1470.21 1709.55 1470.21 Z" fill="#000000" fill-rule="evenodd" fill-opacity="1" /><path clip-path="url(#clip970)" d="M1729.08 1451.02 L1751.3 1451.02 L1751.3 1453.01 L1738.76 1485.58 L1733.87 1485.58 L1745.68 1454.96 L1729.08 1454.96 L1729.08 1451.02 Z" fill="#000000" fill-rule="evenodd" fill-opacity="1" /><path clip-path="url(#clip970)" d="M1760.47 1451.02 L1778.83 1451.02 L1778.83 1454.96 L1764.75 1454.96 L1764.75 1463.43 Q1765.77 1463.08 1766.79 1462.92 Q1767.81 1462.73 1768.83 1462.73 Q1774.61 1462.73 1777.99 1465.9 Q1781.37 1469.08 1781.37 1474.49 Q1781.37 1480.07 1777.9 1483.17 Q1774.43 1486.25 1768.11 1486.25 Q1765.93 1486.25 1763.67 1485.88 Q1761.42 1485.51 1759.01 1484.77 L1759.01 1480.07 Q1761.1 1481.2 1763.32 1481.76 Q1765.54 1482.32 1768.02 1482.32 Q1772.02 1482.32 1774.36 1480.21 Q1776.7 1478.1 1776.7 1474.49 Q1776.7 1470.88 1774.36 1468.77 Q1772.02 1466.67 1768.02 1466.67 Q1766.14 1466.67 1764.27 1467.08 Q1762.42 1467.5 1760.47 1468.38 L1760.47 1451.02 Z" fill="#000000" fill-rule="evenodd" fill-opacity="1" /><path clip-path="url(#clip970)" d="M2043.27 1481.64 L2059.58 1481.64 L2059.58 1485.58 L2037.64 1485.58 L2037.64 1481.64 Q2040.3 1478.89 2044.89 1474.26 Q2049.49 1469.61 2050.67 1468.27 Q2052.92 1465.74 2053.8 1464.01 Q2054.7 1462.25 2054.7 1460.56 Q2054.7 1457.8 2052.76 1456.07 Q2050.83 1454.33 2047.73 1454.33 Q2045.53 1454.33 2043.08 1455.09 Q2040.65 1455.86 2037.87 1457.41 L2037.87 1452.69 Q2040.7 1451.55 2043.15 1450.97 Q2045.6 1450.39 2047.64 1450.39 Q2053.01 1450.39 2056.2 1453.08 Q2059.4 1455.77 2059.4 1460.26 Q2059.4 1462.39 2058.59 1464.31 Q2057.8 1466.2 2055.7 1468.8 Q2055.12 1469.47 2052.02 1472.69 Q2048.91 1475.88 2043.27 1481.64 Z" fill="#000000" fill-rule="evenodd" fill-opacity="1" /><path clip-path="url(#clip970)" d="M2079.4 1454.1 Q2075.79 1454.1 2073.96 1457.66 Q2072.15 1461.2 2072.15 1468.33 Q2072.15 1475.44 2073.96 1479.01 Q2075.79 1482.55 2079.4 1482.55 Q2083.03 1482.55 2084.84 1479.01 Q2086.67 1475.44 2086.67 1468.33 Q2086.67 1461.2 2084.84 1457.66 Q2083.03 1454.1 2079.4 1454.1 M2079.4 1450.39 Q2085.21 1450.39 2088.26 1455 Q2091.34 1459.58 2091.34 1468.33 Q2091.34 1477.06 2088.26 1481.67 Q2085.21 1486.25 2079.4 1486.25 Q2073.59 1486.25 2070.51 1481.67 Q2067.45 1477.06 2067.45 1468.33 Q2067.45 1459.58 2070.51 1455 Q2073.59 1450.39 2079.4 1450.39 Z" fill="#000000" fill-rule="evenodd" fill-opacity="1" /><path clip-path="url(#clip970)" d="M2109.56 1454.1 Q2105.95 1454.1 2104.12 1457.66 Q2102.32 1461.2 2102.32 1468.33 Q2102.32 1475.44 2104.12 1479.01 Q2105.95 1482.55 2109.56 1482.55 Q2113.2 1482.55 2115 1479.01 Q2116.83 1475.44 2116.83 1468.33 Q2116.83 1461.2 2115 1457.66 Q2113.2 1454.1 2109.56 1454.1 M2109.56 1450.39 Q2115.37 1450.39 2118.43 1455 Q2121.51 1459.58 2121.51 1468.33 Q2121.51 1477.06 2118.43 1481.67 Q2115.37 1486.25 2109.56 1486.25 Q2103.75 1486.25 2100.67 1481.67 Q2097.62 1477.06 2097.62 1468.33 Q2097.62 1459.58 2100.67 1455 Q2103.75 1450.39 2109.56 1450.39 Z" fill="#000000" fill-rule="evenodd" fill-opacity="1" /><path clip-path="url(#clip970)" d="M2139.72 1454.1 Q2136.11 1454.1 2134.28 1457.66 Q2132.48 1461.2 2132.48 1468.33 Q2132.48 1475.44 2134.28 1479.01 Q2136.11 1482.55 2139.72 1482.55 Q2143.36 1482.55 2145.16 1479.01 Q2146.99 1475.44 2146.99 1468.33 Q2146.99 1461.2 2145.16 1457.66 Q2143.36 1454.1 2139.72 1454.1 M2139.72 1450.39 Q2145.53 1450.39 2148.59 1455 Q2151.67 1459.58 2151.67 1468.33 Q2151.67 1477.06 2148.59 1481.67 Q2145.53 1486.25 2139.72 1486.25 Q2133.91 1486.25 2130.83 1481.67 Q2127.78 1477.06 2127.78 1468.33 Q2127.78 1459.58 2130.83 1455 Q2133.91 1450.39 2139.72 1450.39 Z" fill="#000000" fill-rule="evenodd" fill-opacity="1" /><path clip-path="url(#clip970)" d="M1243.46 1520.52 L1250.37 1520.52 L1263.54 1540.07 L1276.62 1520.52 L1283.53 1520.52 L1266.72 1545.41 L1266.72 1568.04 L1260.26 1568.04 L1260.26 1545.41 L1243.46 1520.52 Z" fill="#000000" fill-rule="evenodd" fill-opacity="1" /><path clip-path="url(#clip970)" d="M1311.38 1548.76 L1311.38 1551.62 L1284.45 1551.62 Q1284.84 1557.67 1288.08 1560.85 Q1291.36 1564 1297.18 1564 Q1300.56 1564 1303.71 1563.17 Q1306.89 1562.35 1310.01 1560.69 L1310.01 1566.23 Q1306.86 1567.57 1303.55 1568.27 Q1300.24 1568.97 1296.83 1568.97 Q1288.3 1568.97 1283.31 1564 Q1278.34 1559.04 1278.34 1550.57 Q1278.34 1541.82 1283.05 1536.69 Q1287.8 1531.54 1295.82 1531.54 Q1303.01 1531.54 1307.18 1536.18 Q1311.38 1540.8 1311.38 1548.76 M1305.52 1547.04 Q1305.46 1542.23 1302.82 1539.37 Q1300.21 1536.5 1295.88 1536.5 Q1290.98 1536.5 1288.02 1539.27 Q1285.09 1542.04 1284.64 1547.07 L1305.52 1547.04 Z" fill="#000000" fill-rule="evenodd" fill-opacity="1" /><path clip-path="url(#clip970)" d="M1337.19 1550.12 Q1330.1 1550.12 1327.36 1551.75 Q1324.62 1553.37 1324.62 1557.29 Q1324.62 1560.4 1326.66 1562.25 Q1328.73 1564.07 1332.26 1564.07 Q1337.13 1564.07 1340.06 1560.63 Q1343.02 1557.16 1343.02 1551.43 L1343.02 1550.12 L1337.19 1550.12 M1348.87 1547.71 L1348.87 1568.04 L1343.02 1568.04 L1343.02 1562.63 Q1341.01 1565.88 1338.02 1567.44 Q1335.03 1568.97 1330.7 1568.97 Q1325.23 1568.97 1321.98 1565.91 Q1318.76 1562.82 1318.76 1557.67 Q1318.76 1551.65 1322.78 1548.6 Q1326.82 1545.54 1334.81 1545.54 L1343.02 1545.54 L1343.02 1544.97 Q1343.02 1540.93 1340.34 1538.73 Q1337.7 1536.5 1332.9 1536.5 Q1329.84 1536.5 1326.94 1537.23 Q1324.05 1537.97 1321.37 1539.43 L1321.37 1534.02 Q1324.59 1532.78 1327.61 1532.17 Q1330.64 1531.54 1333.5 1531.54 Q1341.24 1531.54 1345.05 1535.55 Q1348.87 1539.56 1348.87 1547.71 Z" fill="#000000" fill-rule="evenodd" fill-opacity="1" /><path clip-path="url(#clip970)" d="M1381.59 1537.87 Q1380.61 1537.3 1379.43 1537.04 Q1378.28 1536.76 1376.88 1536.76 Q1371.92 1536.76 1369.24 1540 Q1366.6 1543.22 1366.6 1549.27 L1366.6 1568.04 L1360.71 1568.04 L1360.71 1532.4 L1366.6 1532.4 L1366.6 1537.93 Q1368.45 1534.69 1371.41 1533.13 Q1374.37 1531.54 1378.6 1531.54 Q1379.21 1531.54 1379.94 1531.63 Q1380.67 1531.7 1381.56 1531.85 L1381.59 1537.87 Z" fill="#000000" fill-rule="evenodd" fill-opacity="1" /><polyline clip-path="url(#clip970)" style="stroke:#000000; stroke-linecap:butt; stroke-linejoin:round; stroke-width:4; stroke-opacity:1; fill:none" points="
  272.297,1423.18 272.297,47.2441 
  "/>
<polyline clip-path="url(#clip970)" style="stroke:#000000; stroke-linecap:butt; stroke-linejoin:round; stroke-width:4; stroke-opacity:1; fill:none" points="
  272.297,1279.23 291.194,1279.23 
  "/>
<polyline clip-path="url(#clip970)" style="stroke:#000000; stroke-linecap:butt; stroke-linejoin:round; stroke-width:4; stroke-opacity:1; fill:none" points="
  272.297,1015.4 291.194,1015.4 
  "/>
<polyline clip-path="url(#clip970)" style="stroke:#000000; stroke-linecap:butt; stroke-linejoin:round; stroke-width:4; stroke-opacity:1; fill:none" points="
  272.297,751.57 291.194,751.57 
  "/>
<polyline clip-path="url(#clip970)" style="stroke:#000000; stroke-linecap:butt; stroke-linejoin:round; stroke-width:4; stroke-opacity:1; fill:none" points="
  272.297,487.738 291.194,487.738 
  "/>
<polyline clip-path="url(#clip970)" style="stroke:#000000; stroke-linecap:butt; stroke-linejoin:round; stroke-width:4; stroke-opacity:1; fill:none" points="
  272.297,223.906 291.194,223.906 
  "/>
<path clip-path="url(#clip970)" d="M114.26 1279.68 L143.936 1279.68 L143.936 1283.62 L114.26 1283.62 L114.26 1279.68 Z" fill="#000000" fill-rule="evenodd" fill-opacity="1" /><path clip-path="url(#clip970)" d="M154.839 1292.58 L162.477 1292.58 L162.477 1266.21 L154.167 1267.88 L154.167 1263.62 L162.431 1261.95 L167.107 1261.95 L167.107 1292.58 L174.746 1292.58 L174.746 1296.51 L154.839 1296.51 L154.839 1292.58 Z" fill="#000000" fill-rule="evenodd" fill-opacity="1" /><path clip-path="url(#clip970)" d="M184.237 1261.95 L202.593 1261.95 L202.593 1265.89 L188.519 1265.89 L188.519 1274.36 Q189.538 1274.01 190.556 1273.85 Q191.575 1273.67 192.593 1273.67 Q198.38 1273.67 201.76 1276.84 Q205.139 1280.01 205.139 1285.43 Q205.139 1291 201.667 1294.11 Q198.195 1297.18 191.875 1297.18 Q189.7 1297.18 187.431 1296.81 Q185.186 1296.44 182.778 1295.7 L182.778 1291 Q184.862 1292.14 187.084 1292.69 Q189.306 1293.25 191.783 1293.25 Q195.787 1293.25 198.125 1291.14 Q200.463 1289.04 200.463 1285.43 Q200.463 1281.81 198.125 1279.71 Q195.787 1277.6 191.783 1277.6 Q189.908 1277.6 188.033 1278.02 Q186.181 1278.43 184.237 1279.31 L184.237 1261.95 Z" fill="#000000" fill-rule="evenodd" fill-opacity="1" /><path clip-path="url(#clip970)" d="M224.352 1265.03 Q220.741 1265.03 218.912 1268.6 Q217.107 1272.14 217.107 1279.27 Q217.107 1286.37 218.912 1289.94 Q220.741 1293.48 224.352 1293.48 Q227.986 1293.48 229.792 1289.94 Q231.621 1286.37 231.621 1279.27 Q231.621 1272.14 229.792 1268.6 Q227.986 1265.03 224.352 1265.03 M224.352 1261.33 Q230.162 1261.33 233.218 1265.93 Q236.297 1270.52 236.297 1279.27 Q236.297 1287.99 233.218 1292.6 Q230.162 1297.18 224.352 1297.18 Q218.542 1297.18 215.463 1292.6 Q212.408 1287.99 212.408 1279.27 Q212.408 1270.52 215.463 1265.93 Q218.542 1261.33 224.352 1261.33 Z" fill="#000000" fill-rule="evenodd" fill-opacity="1" /><path clip-path="url(#clip970)" d="M114.26 1015.85 L143.936 1015.85 L143.936 1019.79 L114.26 1019.79 L114.26 1015.85 Z" fill="#000000" fill-rule="evenodd" fill-opacity="1" /><path clip-path="url(#clip970)" d="M154.839 1028.75 L162.477 1028.75 L162.477 1002.38 L154.167 1004.05 L154.167 999.788 L162.431 998.121 L167.107 998.121 L167.107 1028.75 L174.746 1028.75 L174.746 1032.68 L154.839 1032.68 L154.839 1028.75 Z" fill="#000000" fill-rule="evenodd" fill-opacity="1" /><path clip-path="url(#clip970)" d="M194.19 1001.2 Q190.579 1001.2 188.75 1004.76 Q186.945 1008.31 186.945 1015.44 Q186.945 1022.54 188.75 1026.11 Q190.579 1029.65 194.19 1029.65 Q197.825 1029.65 199.63 1026.11 Q201.459 1022.54 201.459 1015.44 Q201.459 1008.31 199.63 1004.76 Q197.825 1001.2 194.19 1001.2 M194.19 997.496 Q200 997.496 203.056 1002.1 Q206.135 1006.69 206.135 1015.44 Q206.135 1024.16 203.056 1028.77 Q200 1033.35 194.19 1033.35 Q188.38 1033.35 185.301 1028.77 Q182.246 1024.16 182.246 1015.44 Q182.246 1006.69 185.301 1002.1 Q188.38 997.496 194.19 997.496 Z" fill="#000000" fill-rule="evenodd" fill-opacity="1" /><path clip-path="url(#clip970)" d="M224.352 1001.2 Q220.741 1001.2 218.912 1004.76 Q217.107 1008.31 217.107 1015.44 Q217.107 1022.54 218.912 1026.11 Q220.741 1029.65 224.352 1029.65 Q227.986 1029.65 229.792 1026.11 Q231.621 1022.54 231.621 1015.44 Q231.621 1008.31 229.792 1004.76 Q227.986 1001.2 224.352 1001.2 M224.352 997.496 Q230.162 997.496 233.218 1002.1 Q236.297 1006.69 236.297 1015.44 Q236.297 1024.16 233.218 1028.77 Q230.162 1033.35 224.352 1033.35 Q218.542 1033.35 215.463 1028.77 Q212.408 1024.16 212.408 1015.44 Q212.408 1006.69 215.463 1002.1 Q218.542 997.496 224.352 997.496 Z" fill="#000000" fill-rule="evenodd" fill-opacity="1" /><path clip-path="url(#clip970)" d="M144.422 752.021 L174.098 752.021 L174.098 755.956 L144.422 755.956 L144.422 752.021 Z" fill="#000000" fill-rule="evenodd" fill-opacity="1" /><path clip-path="url(#clip970)" d="M184.237 734.29 L202.593 734.29 L202.593 738.225 L188.519 738.225 L188.519 746.697 Q189.538 746.35 190.556 746.188 Q191.575 746.002 192.593 746.002 Q198.38 746.002 201.76 749.174 Q205.139 752.345 205.139 757.762 Q205.139 763.34 201.667 766.442 Q198.195 769.521 191.875 769.521 Q189.7 769.521 187.431 769.15 Q185.186 768.78 182.778 768.039 L182.778 763.34 Q184.862 764.475 187.084 765.03 Q189.306 765.586 191.783 765.586 Q195.787 765.586 198.125 763.479 Q200.463 761.373 200.463 757.762 Q200.463 754.151 198.125 752.044 Q195.787 749.938 191.783 749.938 Q189.908 749.938 188.033 750.354 Q186.181 750.771 184.237 751.651 L184.237 734.29 Z" fill="#000000" fill-rule="evenodd" fill-opacity="1" /><path clip-path="url(#clip970)" d="M224.352 737.368 Q220.741 737.368 218.912 740.933 Q217.107 744.475 217.107 751.604 Q217.107 758.711 218.912 762.276 Q220.741 765.817 224.352 765.817 Q227.986 765.817 229.792 762.276 Q231.621 758.711 231.621 751.604 Q231.621 744.475 229.792 740.933 Q227.986 737.368 224.352 737.368 M224.352 733.665 Q230.162 733.665 233.218 738.271 Q236.297 742.854 236.297 751.604 Q236.297 760.331 233.218 764.938 Q230.162 769.521 224.352 769.521 Q218.542 769.521 215.463 764.938 Q212.408 760.331 212.408 751.604 Q212.408 742.854 215.463 738.271 Q218.542 733.665 224.352 733.665 Z" fill="#000000" fill-rule="evenodd" fill-opacity="1" /><path clip-path="url(#clip970)" d="M224.352 473.536 Q220.741 473.536 218.912 477.101 Q217.107 480.643 217.107 487.772 Q217.107 494.879 218.912 498.444 Q220.741 501.985 224.352 501.985 Q227.986 501.985 229.792 498.444 Q231.621 494.879 231.621 487.772 Q231.621 480.643 229.792 477.101 Q227.986 473.536 224.352 473.536 M224.352 469.833 Q230.162 469.833 233.218 474.439 Q236.297 479.022 236.297 487.772 Q236.297 496.499 233.218 501.106 Q230.162 505.689 224.352 505.689 Q218.542 505.689 215.463 501.106 Q212.408 496.499 212.408 487.772 Q212.408 479.022 215.463 474.439 Q218.542 469.833 224.352 469.833 Z" fill="#000000" fill-rule="evenodd" fill-opacity="1" /><path clip-path="url(#clip970)" d="M184.237 206.626 L202.593 206.626 L202.593 210.561 L188.519 210.561 L188.519 219.033 Q189.538 218.686 190.556 218.524 Q191.575 218.339 192.593 218.339 Q198.38 218.339 201.76 221.51 Q205.139 224.681 205.139 230.098 Q205.139 235.677 201.667 238.778 Q198.195 241.857 191.875 241.857 Q189.7 241.857 187.431 241.487 Q185.186 241.116 182.778 240.376 L182.778 235.677 Q184.862 236.811 187.084 237.366 Q189.306 237.922 191.783 237.922 Q195.787 237.922 198.125 235.816 Q200.463 233.709 200.463 230.098 Q200.463 226.487 198.125 224.38 Q195.787 222.274 191.783 222.274 Q189.908 222.274 188.033 222.691 Q186.181 223.107 184.237 223.987 L184.237 206.626 Z" fill="#000000" fill-rule="evenodd" fill-opacity="1" /><path clip-path="url(#clip970)" d="M224.352 209.705 Q220.741 209.705 218.912 213.269 Q217.107 216.811 217.107 223.941 Q217.107 231.047 218.912 234.612 Q220.741 238.153 224.352 238.153 Q227.986 238.153 229.792 234.612 Q231.621 231.047 231.621 223.941 Q231.621 216.811 229.792 213.269 Q227.986 209.705 224.352 209.705 M224.352 206.001 Q230.162 206.001 233.218 210.607 Q236.297 215.191 236.297 223.941 Q236.297 232.667 233.218 237.274 Q230.162 241.857 224.352 241.857 Q218.542 241.857 215.463 237.274 Q212.408 232.667 212.408 223.941 Q212.408 215.191 215.463 210.607 Q218.542 206.001 224.352 206.001 Z" fill="#000000" fill-rule="evenodd" fill-opacity="1" /><path clip-path="url(#clip970)" d="M18.0438 1110.79 L24.314 1110.79 Q22.5634 1114.45 21.704 1117.7 Q20.8447 1120.94 20.8447 1123.97 Q20.8447 1129.22 22.8817 1132.08 Q24.9187 1134.91 28.6745 1134.91 Q31.8255 1134.91 33.4488 1133.04 Q35.0402 1131.13 36.0269 1125.84 L36.8226 1121.96 Q38.1912 1114.77 41.6605 1111.36 Q45.098 1107.92 50.8908 1107.92 Q57.7976 1107.92 61.3624 1112.57 Q64.9272 1117.19 64.9272 1126.13 Q64.9272 1129.5 64.1633 1133.32 Q63.3994 1137.11 61.9035 1141.18 L55.2831 1141.18 Q57.4793 1137.27 58.5933 1133.51 Q59.7073 1129.76 59.7073 1126.13 Q59.7073 1120.62 57.543 1117.63 Q55.3786 1114.64 51.3682 1114.64 Q47.8671 1114.64 45.8937 1116.8 Q43.9204 1118.94 42.9337 1123.84 L42.1698 1127.75 Q40.7375 1134.95 37.682 1138.16 Q34.6264 1141.38 29.1837 1141.38 Q22.8817 1141.38 19.2532 1136.95 Q15.6248 1132.5 15.6248 1124.7 Q15.6248 1121.36 16.2295 1117.89 Q16.8343 1114.42 18.0438 1110.79 Z" fill="#000000" fill-rule="evenodd" fill-opacity="1" /><path clip-path="url(#clip970)" d="M44.7161 1067.66 L47.5806 1067.66 L47.5806 1094.59 Q53.6281 1094.21 56.8109 1090.96 Q59.9619 1087.68 59.9619 1081.86 Q59.9619 1078.48 59.1344 1075.33 Q58.3069 1072.15 56.6518 1069.03 L62.1899 1069.03 Q63.5267 1072.18 64.227 1075.49 Q64.9272 1078.8 64.9272 1082.21 Q64.9272 1090.74 59.9619 1095.73 Q54.9967 1100.7 46.5303 1100.7 Q37.7774 1100.7 32.6531 1095.99 Q27.4968 1091.25 27.4968 1083.23 Q27.4968 1076.03 32.1438 1071.86 Q36.7589 1067.66 44.7161 1067.66 M42.9973 1073.52 Q38.1912 1073.58 35.3266 1076.22 Q32.4621 1078.83 32.4621 1083.16 Q32.4621 1088.06 35.2312 1091.02 Q38.0002 1093.95 43.0292 1094.4 L42.9973 1073.52 Z" fill="#000000" fill-rule="evenodd" fill-opacity="1" /><path clip-path="url(#clip970)" d="M46.0847 1041.85 Q46.0847 1048.95 47.7079 1051.68 Q49.3312 1054.42 53.2461 1054.42 Q56.3653 1054.42 58.2114 1052.38 Q60.0256 1050.31 60.0256 1046.78 Q60.0256 1041.91 56.5881 1038.98 Q53.1188 1036.02 47.3897 1036.02 L46.0847 1036.02 L46.0847 1041.85 M43.6657 1030.17 L64.0042 1030.17 L64.0042 1036.02 L58.5933 1036.02 Q61.8398 1038.03 63.3994 1041.02 Q64.9272 1044.01 64.9272 1048.34 Q64.9272 1053.82 61.8716 1057.06 Q58.7843 1060.28 53.6281 1060.28 Q47.6125 1060.28 44.5569 1056.27 Q41.5014 1052.22 41.5014 1044.24 L41.5014 1036.02 L40.9285 1036.02 Q36.8862 1036.02 34.6901 1038.7 Q32.4621 1041.34 32.4621 1046.14 Q32.4621 1049.2 33.1941 1052.1 Q33.9262 1054.99 35.3903 1057.67 L29.9795 1057.67 Q28.7381 1054.45 28.1334 1051.43 Q27.4968 1048.4 27.4968 1045.54 Q27.4968 1037.81 31.5072 1033.99 Q35.5176 1030.17 43.6657 1030.17 Z" fill="#000000" fill-rule="evenodd" fill-opacity="1" /><path clip-path="url(#clip970)" d="M43.5384 1021.06 L43.5384 1003.91 L48.7583 1003.91 L48.7583 1021.06 L43.5384 1021.06 Z" fill="#000000" fill-rule="evenodd" fill-opacity="1" /><path clip-path="url(#clip970)" d="M16.4842 994.328 L16.4842 987.899 L58.5933 987.899 L58.5933 964.759 L64.0042 964.759 L64.0042 994.328 L16.4842 994.328 Z" fill="#000000" fill-rule="evenodd" fill-opacity="1" /><path clip-path="url(#clip970)" d="M44.7161 928.92 L47.5806 928.92 L47.5806 955.847 Q53.6281 955.465 56.8109 952.219 Q59.9619 948.941 59.9619 943.116 Q59.9619 939.742 59.1344 936.591 Q58.3069 933.408 56.6518 930.289 L62.1899 930.289 Q63.5267 933.44 64.227 936.75 Q64.9272 940.06 64.9272 943.466 Q64.9272 951.996 59.9619 956.993 Q54.9967 961.958 46.5303 961.958 Q37.7774 961.958 32.6531 957.248 Q27.4968 952.505 27.4968 944.485 Q27.4968 937.291 32.1438 933.122 Q36.7589 928.92 44.7161 928.92 M42.9973 934.777 Q38.1912 934.841 35.3266 937.482 Q32.4621 940.092 32.4621 944.421 Q32.4621 949.323 35.2312 952.283 Q38.0002 955.211 43.0292 955.656 L42.9973 934.777 Z" fill="#000000" fill-rule="evenodd" fill-opacity="1" /><path clip-path="url(#clip970)" d="M28.3562 923.51 L28.3562 917.303 L58.275 906.163 L28.3562 895.023 L28.3562 888.816 L64.0042 902.184 L64.0042 910.142 L28.3562 923.51 Z" fill="#000000" fill-rule="evenodd" fill-opacity="1" /><path clip-path="url(#clip970)" d="M44.7161 850.24 L47.5806 850.24 L47.5806 877.167 Q53.6281 876.785 56.8109 873.539 Q59.9619 870.26 59.9619 864.436 Q59.9619 861.062 59.1344 857.911 Q58.3069 854.728 56.6518 851.609 L62.1899 851.609 Q63.5267 854.76 64.227 858.07 Q64.9272 861.38 64.9272 864.786 Q64.9272 873.316 59.9619 878.313 Q54.9967 883.278 46.5303 883.278 Q37.7774 883.278 32.6531 878.568 Q27.4968 873.825 27.4968 865.804 Q27.4968 858.611 32.1438 854.442 Q36.7589 850.24 44.7161 850.24 M42.9973 856.097 Q38.1912 856.16 35.3266 858.802 Q32.4621 861.412 32.4621 865.741 Q32.4621 870.642 35.2312 873.602 Q38.0002 876.531 43.0292 876.976 L42.9973 856.097 Z" fill="#000000" fill-rule="evenodd" fill-opacity="1" /><path clip-path="url(#clip970)" d="M14.479 840.628 L14.479 834.772 L64.0042 834.772 L64.0042 840.628 L14.479 840.628 Z" fill="#000000" fill-rule="evenodd" fill-opacity="1" /><path clip-path="url(#clip970)" d="M22.818 785.66 L46.4666 794.381 L46.4666 776.907 L22.818 785.66 M16.4842 789.289 L16.4842 782 L64.0042 763.889 L64.0042 770.573 L51.8138 774.902 L51.8138 796.323 L64.0042 800.651 L64.0042 807.431 L16.4842 789.289 Z" fill="#000000" fill-rule="evenodd" fill-opacity="1" /><path clip-path="url(#clip970)" d="M42.4881 727.573 L64.0042 727.573 L64.0042 733.43 L42.679 733.43 Q37.6183 733.43 35.1038 735.403 Q32.5894 737.376 32.5894 741.323 Q32.5894 746.065 35.6131 748.803 Q38.6368 751.54 43.8567 751.54 L64.0042 751.54 L64.0042 757.428 L28.3562 757.428 L28.3562 751.54 L33.8944 751.54 Q30.6797 749.439 29.0883 746.607 Q27.4968 743.742 27.4968 740.018 Q27.4968 733.875 31.3163 730.724 Q35.1038 727.573 42.4881 727.573 Z" fill="#000000" fill-rule="evenodd" fill-opacity="1" /><path clip-path="url(#clip970)" d="M32.4621 702.078 Q32.4621 706.789 36.1542 709.526 Q39.8145 712.264 46.212 712.264 Q52.6095 712.264 56.3017 709.558 Q59.9619 706.821 59.9619 702.078 Q59.9619 697.4 56.2698 694.662 Q52.5777 691.925 46.212 691.925 Q39.8781 691.925 36.186 694.662 Q32.4621 697.4 32.4621 702.078 M27.4968 702.078 Q27.4968 694.44 32.4621 690.079 Q37.4273 685.719 46.212 685.719 Q54.9649 685.719 59.9619 690.079 Q64.9272 694.44 64.9272 702.078 Q64.9272 709.749 59.9619 714.11 Q54.9649 718.438 46.212 718.438 Q37.4273 718.438 32.4621 714.11 Q27.4968 709.749 27.4968 702.078 Z" fill="#000000" fill-rule="evenodd" fill-opacity="1" /><path clip-path="url(#clip970)" d="M35.1993 648.256 Q31.2526 646.06 29.3747 643.005 Q27.4968 639.949 27.4968 635.811 Q27.4968 630.241 31.4117 627.218 Q35.2948 624.194 42.4881 624.194 L64.0042 624.194 L64.0042 630.082 L42.679 630.082 Q37.5546 630.082 35.072 631.897 Q32.5894 633.711 32.5894 637.435 Q32.5894 641.986 35.6131 644.628 Q38.6368 647.27 43.8567 647.27 L64.0042 647.27 L64.0042 653.158 L42.679 653.158 Q37.5228 653.158 35.072 654.972 Q32.5894 656.786 32.5894 660.574 Q32.5894 665.062 35.6449 667.704 Q38.6686 670.345 43.8567 670.345 L64.0042 670.345 L64.0042 676.234 L28.3562 676.234 L28.3562 670.345 L33.8944 670.345 Q30.616 668.34 29.0564 665.539 Q27.4968 662.738 27.4968 658.887 Q27.4968 655.004 29.4702 652.299 Q31.4436 649.561 35.1993 648.256 Z" fill="#000000" fill-rule="evenodd" fill-opacity="1" /><path clip-path="url(#clip970)" d="M46.0847 596.312 Q46.0847 603.41 47.7079 606.147 Q49.3312 608.885 53.2461 608.885 Q56.3653 608.885 58.2114 606.847 Q60.0256 604.779 60.0256 601.246 Q60.0256 596.376 56.5881 593.448 Q53.1188 590.488 47.3897 590.488 L46.0847 590.488 L46.0847 596.312 M43.6657 584.631 L64.0042 584.631 L64.0042 590.488 L58.5933 590.488 Q61.8398 592.493 63.3994 595.485 Q64.9272 598.477 64.9272 602.805 Q64.9272 608.28 61.8716 611.526 Q58.7843 614.741 53.6281 614.741 Q47.6125 614.741 44.5569 610.731 Q41.5014 606.688 41.5014 598.699 L41.5014 590.488 L40.9285 590.488 Q36.8862 590.488 34.6901 593.161 Q32.4621 595.803 32.4621 600.609 Q32.4621 603.665 33.1941 606.561 Q33.9262 609.457 35.3903 612.131 L29.9795 612.131 Q28.7381 608.916 28.1334 605.893 Q27.4968 602.869 27.4968 600.004 Q27.4968 592.27 31.5072 588.451 Q35.5176 584.631 43.6657 584.631 Z" fill="#000000" fill-rule="evenodd" fill-opacity="1" /><path clip-path="url(#clip970)" d="M14.479 572.568 L14.479 566.712 L64.0042 566.712 L64.0042 572.568 L14.479 572.568 Z" fill="#000000" fill-rule="evenodd" fill-opacity="1" /><path clip-path="url(#clip970)" d="M67.3143 539.626 Q73.68 542.108 75.6216 544.464 Q77.5631 546.819 77.5631 550.766 L77.5631 555.444 L72.6615 555.444 L72.6615 552.007 Q72.6615 549.588 71.5157 548.251 Q70.3699 546.914 66.1048 545.291 L63.4312 544.241 L28.3562 558.659 L28.3562 552.453 L56.238 541.313 L28.3562 530.173 L28.3562 523.966 L67.3143 539.626 Z" fill="#000000" fill-rule="evenodd" fill-opacity="1" /><path clip-path="url(#clip970)" d="M14.5426 481.093 Q21.8632 485.358 29.0246 487.427 Q36.186 489.496 43.5384 489.496 Q50.8908 489.496 58.1159 487.427 Q65.3091 485.326 72.5979 481.093 L72.5979 486.186 Q65.1182 490.96 57.8931 493.347 Q50.668 495.702 43.5384 495.702 Q36.4406 495.702 29.2474 493.347 Q22.0542 490.992 14.5426 486.186 L14.5426 481.093 Z" fill="#000000" fill-rule="evenodd" fill-opacity="1" /><path clip-path="url(#clip970)" d="M35.1993 441.976 Q31.2526 439.78 29.3747 436.724 Q27.4968 433.668 27.4968 429.531 Q27.4968 423.961 31.4117 420.937 Q35.2948 417.913 42.4881 417.913 L64.0042 417.913 L64.0042 423.802 L42.679 423.802 Q37.5546 423.802 35.072 425.616 Q32.5894 427.43 32.5894 431.154 Q32.5894 435.705 35.6131 438.347 Q38.6368 440.989 43.8567 440.989 L64.0042 440.989 L64.0042 446.877 L42.679 446.877 Q37.5228 446.877 35.072 448.692 Q32.5894 450.506 32.5894 454.293 Q32.5894 458.781 35.6449 461.423 Q38.6686 464.065 43.8567 464.065 L64.0042 464.065 L64.0042 469.953 L28.3562 469.953 L28.3562 464.065 L33.8944 464.065 Q30.616 462.059 29.0564 459.259 Q27.4968 456.458 27.4968 452.606 Q27.4968 448.723 29.4702 446.018 Q31.4436 443.281 35.1993 441.976 Z" fill="#000000" fill-rule="evenodd" fill-opacity="1" /><path clip-path="url(#clip970)" d="M35.1993 378.478 Q31.2526 376.282 29.3747 373.226 Q27.4968 370.171 27.4968 366.033 Q27.4968 360.463 31.4117 357.439 Q35.2948 354.415 42.4881 354.415 L64.0042 354.415 L64.0042 360.304 L42.679 360.304 Q37.5546 360.304 35.072 362.118 Q32.5894 363.932 32.5894 367.656 Q32.5894 372.208 35.6131 374.849 Q38.6368 377.491 43.8567 377.491 L64.0042 377.491 L64.0042 383.379 L42.679 383.379 Q37.5228 383.379 35.072 385.194 Q32.5894 387.008 32.5894 390.795 Q32.5894 395.283 35.6449 397.925 Q38.6686 400.567 43.8567 400.567 L64.0042 400.567 L64.0042 406.455 L28.3562 406.455 L28.3562 400.567 L33.8944 400.567 Q30.616 398.562 29.0564 395.761 Q27.4968 392.96 27.4968 389.108 Q27.4968 385.225 29.4702 382.52 Q31.4436 379.783 35.1993 378.478 Z" fill="#000000" fill-rule="evenodd" fill-opacity="1" /><path clip-path="url(#clip970)" d="M14.5426 343.657 L14.5426 338.565 Q22.0542 333.791 29.2474 331.435 Q36.4406 329.048 43.5384 329.048 Q50.668 329.048 57.8931 331.435 Q65.1182 333.791 72.5979 338.565 L72.5979 343.657 Q65.3091 339.424 58.1159 337.355 Q50.8908 335.255 43.5384 335.255 Q36.186 335.255 29.0246 337.355 Q21.8632 339.424 14.5426 343.657 Z" fill="#000000" fill-rule="evenodd" fill-opacity="1" /><circle clip-path="url(#clip972)" cx="331.177" cy="1325.14" r="10" fill="#000000" fill-rule="evenodd" fill-opacity="1" stroke="none"/>
<circle clip-path="url(#clip972)" cx="345.935" cy="1295.59" r="10" fill="#000000" fill-rule="evenodd" fill-opacity="1" stroke="none"/>
<circle clip-path="url(#clip972)" cx="360.692" cy="1384.24" r="10" fill="#000000" fill-rule="evenodd" fill-opacity="1" stroke="none"/>
<circle clip-path="url(#clip972)" cx="375.449" cy="1356.27" r="10" fill="#000000" fill-rule="evenodd" fill-opacity="1" stroke="none"/>
<circle clip-path="url(#clip972)" cx="390.206" cy="1245.99" r="10" fill="#000000" fill-rule="evenodd" fill-opacity="1" stroke="none"/>
<circle clip-path="url(#clip972)" cx="404.963" cy="1253.91" r="10" fill="#000000" fill-rule="evenodd" fill-opacity="1" stroke="none"/>
<circle clip-path="url(#clip972)" cx="419.72" cy="1266.57" r="10" fill="#000000" fill-rule="evenodd" fill-opacity="1" stroke="none"/>
<circle clip-path="url(#clip972)" cx="434.477" cy="1296.12" r="10" fill="#000000" fill-rule="evenodd" fill-opacity="1" stroke="none"/>
<circle clip-path="url(#clip972)" cx="449.234" cy="1285.04" r="10" fill="#000000" fill-rule="evenodd" fill-opacity="1" stroke="none"/>
<circle clip-path="url(#clip972)" cx="463.992" cy="1276.59" r="10" fill="#000000" fill-rule="evenodd" fill-opacity="1" stroke="none"/>
<circle clip-path="url(#clip972)" cx="478.749" cy="1266.04" r="10" fill="#000000" fill-rule="evenodd" fill-opacity="1" stroke="none"/>
<circle clip-path="url(#clip972)" cx="493.506" cy="1275.01" r="10" fill="#000000" fill-rule="evenodd" fill-opacity="1" stroke="none"/>
<circle clip-path="url(#clip972)" cx="508.263" cy="1258.13" r="10" fill="#000000" fill-rule="evenodd" fill-opacity="1" stroke="none"/>
<circle clip-path="url(#clip972)" cx="523.02" cy="1233.33" r="10" fill="#000000" fill-rule="evenodd" fill-opacity="1" stroke="none"/>
<circle clip-path="url(#clip972)" cx="537.777" cy="1284.51" r="10" fill="#000000" fill-rule="evenodd" fill-opacity="1" stroke="none"/>
<circle clip-path="url(#clip972)" cx="552.534" cy="1222.25" r="10" fill="#000000" fill-rule="evenodd" fill-opacity="1" stroke="none"/>
<circle clip-path="url(#clip972)" cx="567.291" cy="1262.35" r="10" fill="#000000" fill-rule="evenodd" fill-opacity="1" stroke="none"/>
<circle clip-path="url(#clip972)" cx="582.049" cy="1234.91" r="10" fill="#000000" fill-rule="evenodd" fill-opacity="1" stroke="none"/>
<circle clip-path="url(#clip972)" cx="596.806" cy="1185.31" r="10" fill="#000000" fill-rule="evenodd" fill-opacity="1" stroke="none"/>
<circle clip-path="url(#clip972)" cx="611.563" cy="1145.73" r="10" fill="#000000" fill-rule="evenodd" fill-opacity="1" stroke="none"/>
<circle clip-path="url(#clip972)" cx="626.32" cy="1174.23" r="10" fill="#000000" fill-rule="evenodd" fill-opacity="1" stroke="none"/>
<circle clip-path="url(#clip972)" cx="641.077" cy="1176.34" r="10" fill="#000000" fill-rule="evenodd" fill-opacity="1" stroke="none"/>
<circle clip-path="url(#clip972)" cx="655.834" cy="1152.07" r="10" fill="#000000" fill-rule="evenodd" fill-opacity="1" stroke="none"/>
<circle clip-path="url(#clip972)" cx="670.591" cy="1109.85" r="10" fill="#000000" fill-rule="evenodd" fill-opacity="1" stroke="none"/>
<circle clip-path="url(#clip972)" cx="685.348" cy="1164.2" r="10" fill="#000000" fill-rule="evenodd" fill-opacity="1" stroke="none"/>
<circle clip-path="url(#clip972)" cx="700.106" cy="1193.22" r="10" fill="#000000" fill-rule="evenodd" fill-opacity="1" stroke="none"/>
<circle clip-path="url(#clip972)" cx="714.863" cy="1157.34" r="10" fill="#000000" fill-rule="evenodd" fill-opacity="1" stroke="none"/>
<circle clip-path="url(#clip972)" cx="729.62" cy="1164.73" r="10" fill="#000000" fill-rule="evenodd" fill-opacity="1" stroke="none"/>
<circle clip-path="url(#clip972)" cx="744.377" cy="1177.92" r="10" fill="#000000" fill-rule="evenodd" fill-opacity="1" stroke="none"/>
<circle clip-path="url(#clip972)" cx="759.134" cy="1154.18" r="10" fill="#000000" fill-rule="evenodd" fill-opacity="1" stroke="none"/>
<circle clip-path="url(#clip972)" cx="773.891" cy="1154.7" r="10" fill="#000000" fill-rule="evenodd" fill-opacity="1" stroke="none"/>
<circle clip-path="url(#clip972)" cx="788.648" cy="1110.91" r="10" fill="#000000" fill-rule="evenodd" fill-opacity="1" stroke="none"/>
<circle clip-path="url(#clip972)" cx="803.405" cy="1127.27" r="10" fill="#000000" fill-rule="evenodd" fill-opacity="1" stroke="none"/>
<circle clip-path="url(#clip972)" cx="818.163" cy="1117.77" r="10" fill="#000000" fill-rule="evenodd" fill-opacity="1" stroke="none"/>
<circle clip-path="url(#clip972)" cx="832.92" cy="1084.53" r="10" fill="#000000" fill-rule="evenodd" fill-opacity="1" stroke="none"/>
<circle clip-path="url(#clip972)" cx="847.677" cy="1042.84" r="10" fill="#000000" fill-rule="evenodd" fill-opacity="1" stroke="none"/>
<circle clip-path="url(#clip972)" cx="862.434" cy="1052.87" r="10" fill="#000000" fill-rule="evenodd" fill-opacity="1" stroke="none"/>
<circle clip-path="url(#clip972)" cx="877.191" cy="1076.61" r="10" fill="#000000" fill-rule="evenodd" fill-opacity="1" stroke="none"/>
<circle clip-path="url(#clip972)" cx="891.948" cy="1085.05" r="10" fill="#000000" fill-rule="evenodd" fill-opacity="1" stroke="none"/>
<circle clip-path="url(#clip972)" cx="906.705" cy="1076.61" r="10" fill="#000000" fill-rule="evenodd" fill-opacity="1" stroke="none"/>
<circle clip-path="url(#clip972)" cx="921.462" cy="1069.75" r="10" fill="#000000" fill-rule="evenodd" fill-opacity="1" stroke="none"/>
<circle clip-path="url(#clip972)" cx="936.22" cy="1058.67" r="10" fill="#000000" fill-rule="evenodd" fill-opacity="1" stroke="none"/>
<circle clip-path="url(#clip972)" cx="950.977" cy="1063.42" r="10" fill="#000000" fill-rule="evenodd" fill-opacity="1" stroke="none"/>
<circle clip-path="url(#clip972)" cx="965.734" cy="1057.09" r="10" fill="#000000" fill-rule="evenodd" fill-opacity="1" stroke="none"/>
<circle clip-path="url(#clip972)" cx="980.491" cy="1095.61" r="10" fill="#000000" fill-rule="evenodd" fill-opacity="1" stroke="none"/>
<circle clip-path="url(#clip972)" cx="995.248" cy="1085.05" r="10" fill="#000000" fill-rule="evenodd" fill-opacity="1" stroke="none"/>
<circle clip-path="url(#clip972)" cx="1010.01" cy="1050.75" r="10" fill="#000000" fill-rule="evenodd" fill-opacity="1" stroke="none"/>
<circle clip-path="url(#clip972)" cx="1024.76" cy="1056.56" r="10" fill="#000000" fill-rule="evenodd" fill-opacity="1" stroke="none"/>
<circle clip-path="url(#clip972)" cx="1039.52" cy="1077.14" r="10" fill="#000000" fill-rule="evenodd" fill-opacity="1" stroke="none"/>
<circle clip-path="url(#clip972)" cx="1054.28" cy="1069.75" r="10" fill="#000000" fill-rule="evenodd" fill-opacity="1" stroke="none"/>
<circle clip-path="url(#clip972)" cx="1069.03" cy="1048.64" r="10" fill="#000000" fill-rule="evenodd" fill-opacity="1" stroke="none"/>
<circle clip-path="url(#clip972)" cx="1083.79" cy="1050.75" r="10" fill="#000000" fill-rule="evenodd" fill-opacity="1" stroke="none"/>
<circle clip-path="url(#clip972)" cx="1098.55" cy="1020.68" r="10" fill="#000000" fill-rule="evenodd" fill-opacity="1" stroke="none"/>
<circle clip-path="url(#clip972)" cx="1113.31" cy="997.988" r="10" fill="#000000" fill-rule="evenodd" fill-opacity="1" stroke="none"/>
<circle clip-path="url(#clip972)" cx="1128.06" cy="1026.48" r="10" fill="#000000" fill-rule="evenodd" fill-opacity="1" stroke="none"/>
<circle clip-path="url(#clip972)" cx="1142.82" cy="996.933" r="10" fill="#000000" fill-rule="evenodd" fill-opacity="1" stroke="none"/>
<circle clip-path="url(#clip972)" cx="1157.58" cy="1017.51" r="10" fill="#000000" fill-rule="evenodd" fill-opacity="1" stroke="none"/>
<circle clip-path="url(#clip972)" cx="1172.33" cy="987.435" r="10" fill="#000000" fill-rule="evenodd" fill-opacity="1" stroke="none"/>
<circle clip-path="url(#clip972)" cx="1187.09" cy="973.716" r="10" fill="#000000" fill-rule="evenodd" fill-opacity="1" stroke="none"/>
<circle clip-path="url(#clip972)" cx="1201.85" cy="946.277" r="10" fill="#000000" fill-rule="evenodd" fill-opacity="1" stroke="none"/>
<circle clip-path="url(#clip972)" cx="1216.6" cy="974.244" r="10" fill="#000000" fill-rule="evenodd" fill-opacity="1" stroke="none"/>
<circle clip-path="url(#clip972)" cx="1231.36" cy="909.869" r="10" fill="#000000" fill-rule="evenodd" fill-opacity="1" stroke="none"/>
<circle clip-path="url(#clip972)" cx="1246.12" cy="909.869" r="10" fill="#000000" fill-rule="evenodd" fill-opacity="1" stroke="none"/>
<circle clip-path="url(#clip972)" cx="1260.88" cy="909.869" r="10" fill="#000000" fill-rule="evenodd" fill-opacity="1" stroke="none"/>
<circle clip-path="url(#clip972)" cx="1275.63" cy="943.639" r="10" fill="#000000" fill-rule="evenodd" fill-opacity="1" stroke="none"/>
<circle clip-path="url(#clip972)" cx="1290.39" cy="928.865" r="10" fill="#000000" fill-rule="evenodd" fill-opacity="1" stroke="none"/>
<circle clip-path="url(#clip972)" cx="1305.15" cy="889.29" r="10" fill="#000000" fill-rule="evenodd" fill-opacity="1" stroke="none"/>
<circle clip-path="url(#clip972)" cx="1319.9" cy="872.932" r="10" fill="#000000" fill-rule="evenodd" fill-opacity="1" stroke="none"/>
<circle clip-path="url(#clip972)" cx="1334.66" cy="847.604" r="10" fill="#000000" fill-rule="evenodd" fill-opacity="1" stroke="none"/>
<circle clip-path="url(#clip972)" cx="1349.42" cy="854.464" r="10" fill="#000000" fill-rule="evenodd" fill-opacity="1" stroke="none"/>
<circle clip-path="url(#clip972)" cx="1364.18" cy="842.855" r="10" fill="#000000" fill-rule="evenodd" fill-opacity="1" stroke="none"/>
<circle clip-path="url(#clip972)" cx="1378.93" cy="792.727" r="10" fill="#000000" fill-rule="evenodd" fill-opacity="1" stroke="none"/>
<circle clip-path="url(#clip972)" cx="1393.69" cy="806.447" r="10" fill="#000000" fill-rule="evenodd" fill-opacity="1" stroke="none"/>
<circle clip-path="url(#clip972)" cx="1408.45" cy="783.229" r="10" fill="#000000" fill-rule="evenodd" fill-opacity="1" stroke="none"/>
<circle clip-path="url(#clip972)" cx="1423.2" cy="798.532" r="10" fill="#000000" fill-rule="evenodd" fill-opacity="1" stroke="none"/>
<circle clip-path="url(#clip972)" cx="1437.96" cy="793.783" r="10" fill="#000000" fill-rule="evenodd" fill-opacity="1" stroke="none"/>
<circle clip-path="url(#clip972)" cx="1452.72" cy="820.693" r="10" fill="#000000" fill-rule="evenodd" fill-opacity="1" stroke="none"/>
<circle clip-path="url(#clip972)" cx="1467.48" cy="749.987" r="10" fill="#000000" fill-rule="evenodd" fill-opacity="1" stroke="none"/>
<circle clip-path="url(#clip972)" cx="1482.23" cy="742.599" r="10" fill="#000000" fill-rule="evenodd" fill-opacity="1" stroke="none"/>
<circle clip-path="url(#clip972)" cx="1496.99" cy="741.016" r="10" fill="#000000" fill-rule="evenodd" fill-opacity="1" stroke="none"/>
<circle clip-path="url(#clip972)" cx="1511.75" cy="721.493" r="10" fill="#000000" fill-rule="evenodd" fill-opacity="1" stroke="none"/>
<circle clip-path="url(#clip972)" cx="1526.5" cy="688.778" r="10" fill="#000000" fill-rule="evenodd" fill-opacity="1" stroke="none"/>
<circle clip-path="url(#clip972)" cx="1541.26" cy="716.216" r="10" fill="#000000" fill-rule="evenodd" fill-opacity="1" stroke="none"/>
<circle clip-path="url(#clip972)" cx="1556.02" cy="724.659" r="10" fill="#000000" fill-rule="evenodd" fill-opacity="1" stroke="none"/>
<circle clip-path="url(#clip972)" cx="1570.78" cy="766.344" r="10" fill="#000000" fill-rule="evenodd" fill-opacity="1" stroke="none"/>
<circle clip-path="url(#clip972)" cx="1585.53" cy="707.246" r="10" fill="#000000" fill-rule="evenodd" fill-opacity="1" stroke="none"/>
<circle clip-path="url(#clip972)" cx="1600.29" cy="735.74" r="10" fill="#000000" fill-rule="evenodd" fill-opacity="1" stroke="none"/>
<circle clip-path="url(#clip972)" cx="1615.05" cy="728.352" r="10" fill="#000000" fill-rule="evenodd" fill-opacity="1" stroke="none"/>
<circle clip-path="url(#clip972)" cx="1629.8" cy="724.131" r="10" fill="#000000" fill-rule="evenodd" fill-opacity="1" stroke="none"/>
<circle clip-path="url(#clip972)" cx="1644.56" cy="688.25" r="10" fill="#000000" fill-rule="evenodd" fill-opacity="1" stroke="none"/>
<circle clip-path="url(#clip972)" cx="1659.32" cy="698.276" r="10" fill="#000000" fill-rule="evenodd" fill-opacity="1" stroke="none"/>
<circle clip-path="url(#clip972)" cx="1674.08" cy="670.837" r="10" fill="#000000" fill-rule="evenodd" fill-opacity="1" stroke="none"/>
<circle clip-path="url(#clip972)" cx="1688.83" cy="622.82" r="10" fill="#000000" fill-rule="evenodd" fill-opacity="1" stroke="none"/>
<circle clip-path="url(#clip972)" cx="1703.59" cy="654.479" r="10" fill="#000000" fill-rule="evenodd" fill-opacity="1" stroke="none"/>
<circle clip-path="url(#clip972)" cx="1718.35" cy="591.687" r="10" fill="#000000" fill-rule="evenodd" fill-opacity="1" stroke="none"/>
<circle clip-path="url(#clip972)" cx="1733.1" cy="600.13" r="10" fill="#000000" fill-rule="evenodd" fill-opacity="1" stroke="none"/>
<circle clip-path="url(#clip972)" cx="1747.86" cy="605.407" r="10" fill="#000000" fill-rule="evenodd" fill-opacity="1" stroke="none"/>
<circle clip-path="url(#clip972)" cx="1762.62" cy="614.377" r="10" fill="#000000" fill-rule="evenodd" fill-opacity="1" stroke="none"/>
<circle clip-path="url(#clip972)" cx="1777.38" cy="580.607" r="10" fill="#000000" fill-rule="evenodd" fill-opacity="1" stroke="none"/>
<circle clip-path="url(#clip972)" cx="1792.13" cy="606.462" r="10" fill="#000000" fill-rule="evenodd" fill-opacity="1" stroke="none"/>
<circle clip-path="url(#clip972)" cx="1806.89" cy="574.802" r="10" fill="#000000" fill-rule="evenodd" fill-opacity="1" stroke="none"/>
<circle clip-path="url(#clip972)" cx="1821.65" cy="509.372" r="10" fill="#000000" fill-rule="evenodd" fill-opacity="1" stroke="none"/>
<circle clip-path="url(#clip972)" cx="1836.4" cy="539.976" r="10" fill="#000000" fill-rule="evenodd" fill-opacity="1" stroke="none"/>
<circle clip-path="url(#clip972)" cx="1851.16" cy="495.653" r="10" fill="#000000" fill-rule="evenodd" fill-opacity="1" stroke="none"/>
<circle clip-path="url(#clip972)" cx="1865.92" cy="500.402" r="10" fill="#000000" fill-rule="evenodd" fill-opacity="1" stroke="none"/>
<circle clip-path="url(#clip972)" cx="1880.68" cy="554.751" r="10" fill="#000000" fill-rule="evenodd" fill-opacity="1" stroke="none"/>
<circle clip-path="url(#clip972)" cx="1895.43" cy="551.585" r="10" fill="#000000" fill-rule="evenodd" fill-opacity="1" stroke="none"/>
<circle clip-path="url(#clip972)" cx="1910.19" cy="548.419" r="10" fill="#000000" fill-rule="evenodd" fill-opacity="1" stroke="none"/>
<circle clip-path="url(#clip972)" cx="1924.95" cy="523.619" r="10" fill="#000000" fill-rule="evenodd" fill-opacity="1" stroke="none"/>
<circle clip-path="url(#clip972)" cx="1939.7" cy="499.874" r="10" fill="#000000" fill-rule="evenodd" fill-opacity="1" stroke="none"/>
<circle clip-path="url(#clip972)" cx="1954.46" cy="487.738" r="10" fill="#000000" fill-rule="evenodd" fill-opacity="1" stroke="none"/>
<circle clip-path="url(#clip972)" cx="1969.22" cy="474.546" r="10" fill="#000000" fill-rule="evenodd" fill-opacity="1" stroke="none"/>
<circle clip-path="url(#clip972)" cx="1983.98" cy="470.852" r="10" fill="#000000" fill-rule="evenodd" fill-opacity="1" stroke="none"/>
<circle clip-path="url(#clip972)" cx="1998.73" cy="480.35" r="10" fill="#000000" fill-rule="evenodd" fill-opacity="1" stroke="none"/>
<circle clip-path="url(#clip972)" cx="2013.49" cy="452.912" r="10" fill="#000000" fill-rule="evenodd" fill-opacity="1" stroke="none"/>
<circle clip-path="url(#clip972)" cx="2028.25" cy="437.61" r="10" fill="#000000" fill-rule="evenodd" fill-opacity="1" stroke="none"/>
<circle clip-path="url(#clip972)" cx="2043" cy="415.975" r="10" fill="#000000" fill-rule="evenodd" fill-opacity="1" stroke="none"/>
<circle clip-path="url(#clip972)" cx="2057.76" cy="379.039" r="10" fill="#000000" fill-rule="evenodd" fill-opacity="1" stroke="none"/>
<circle clip-path="url(#clip972)" cx="2072.52" cy="431.278" r="10" fill="#000000" fill-rule="evenodd" fill-opacity="1" stroke="none"/>
<circle clip-path="url(#clip972)" cx="2087.28" cy="386.426" r="10" fill="#000000" fill-rule="evenodd" fill-opacity="1" stroke="none"/>
<circle clip-path="url(#clip972)" cx="2102.03" cy="379.567" r="10" fill="#000000" fill-rule="evenodd" fill-opacity="1" stroke="none"/>
<circle clip-path="url(#clip972)" cx="2116.79" cy="350.545" r="10" fill="#000000" fill-rule="evenodd" fill-opacity="1" stroke="none"/>
<circle clip-path="url(#clip972)" cx="2131.55" cy="337.881" r="10" fill="#000000" fill-rule="evenodd" fill-opacity="1" stroke="none"/>
<circle clip-path="url(#clip972)" cx="2146.3" cy="289.336" r="10" fill="#000000" fill-rule="evenodd" fill-opacity="1" stroke="none"/>
<circle clip-path="url(#clip972)" cx="2161.06" cy="291.447" r="10" fill="#000000" fill-rule="evenodd" fill-opacity="1" stroke="none"/>
<circle clip-path="url(#clip972)" cx="2175.82" cy="290.919" r="10" fill="#000000" fill-rule="evenodd" fill-opacity="1" stroke="none"/>
<circle clip-path="url(#clip972)" cx="2190.58" cy="268.23" r="10" fill="#000000" fill-rule="evenodd" fill-opacity="1" stroke="none"/>
<circle clip-path="url(#clip972)" cx="2205.33" cy="258.204" r="10" fill="#000000" fill-rule="evenodd" fill-opacity="1" stroke="none"/>
<circle clip-path="url(#clip972)" cx="2220.09" cy="212.297" r="10" fill="#000000" fill-rule="evenodd" fill-opacity="1" stroke="none"/>
<circle clip-path="url(#clip972)" cx="2234.85" cy="181.693" r="10" fill="#000000" fill-rule="evenodd" fill-opacity="1" stroke="none"/>
<circle clip-path="url(#clip972)" cx="2249.6" cy="141.063" r="10" fill="#000000" fill-rule="evenodd" fill-opacity="1" stroke="none"/>
<circle clip-path="url(#clip972)" cx="2264.36" cy="132.62" r="10" fill="#000000" fill-rule="evenodd" fill-opacity="1" stroke="none"/>
<circle clip-path="url(#clip972)" cx="2279.12" cy="86.1857" r="10" fill="#000000" fill-rule="evenodd" fill-opacity="1" stroke="none"/>
<circle clip-path="url(#clip972)" cx="2293.87" cy="130.509" r="10" fill="#000000" fill-rule="evenodd" fill-opacity="1" stroke="none"/>
<path clip-path="url(#clip970)" d="
M341.645 196.789 L1231.95 196.789 L1231.95 93.1086 L341.645 93.1086  Z
  " fill="#ffffff" fill-rule="evenodd" fill-opacity="1"/>
<polyline clip-path="url(#clip970)" style="stroke:#000000; stroke-linecap:butt; stroke-linejoin:round; stroke-width:4; stroke-opacity:1; fill:none" points="
  341.645,196.789 1231.95,196.789 1231.95,93.1086 341.645,93.1086 341.645,196.789 
  "/>
<circle clip-path="url(#clip970)" cx="434.11" cy="144.949" r="23" fill="#000000" fill-rule="evenodd" fill-opacity="1" stroke="none"/>
<path clip-path="url(#clip970)" d="M542.964 146.025 Q544.468 146.534 545.88 148.201 Q547.316 149.868 548.751 152.784 L553.496 162.229 L548.473 162.229 L544.052 153.363 Q542.339 149.891 540.718 148.756 Q539.121 147.622 536.343 147.622 L531.251 147.622 L531.251 162.229 L526.575 162.229 L526.575 127.669 L537.13 127.669 Q543.056 127.669 545.973 130.145 Q548.89 132.622 548.89 137.622 Q548.89 140.886 547.362 143.039 Q545.857 145.192 542.964 146.025 M531.251 131.511 L531.251 143.78 L537.13 143.78 Q540.51 143.78 542.223 142.229 Q543.959 140.655 543.959 137.622 Q543.959 134.59 542.223 133.062 Q540.51 131.511 537.13 131.511 L531.251 131.511 Z" fill="#000000" fill-rule="evenodd" fill-opacity="1" /><path clip-path="url(#clip970)" d="M579.376 148.201 L579.376 150.284 L559.792 150.284 Q560.07 154.682 562.431 156.997 Q564.815 159.289 569.052 159.289 Q571.505 159.289 573.797 158.687 Q576.112 158.085 578.38 156.881 L578.38 160.909 Q576.089 161.881 573.681 162.391 Q571.274 162.9 568.797 162.9 Q562.593 162.9 558.959 159.289 Q555.348 155.678 555.348 149.52 Q555.348 143.155 558.774 139.428 Q562.223 135.678 568.056 135.678 Q573.288 135.678 576.32 139.057 Q579.376 142.414 579.376 148.201 M575.116 146.951 Q575.07 143.456 573.149 141.372 Q571.251 139.289 568.102 139.289 Q564.538 139.289 562.385 141.303 Q560.255 143.317 559.931 146.974 L575.116 146.951 Z" fill="#000000" fill-rule="evenodd" fill-opacity="1" /><path clip-path="url(#clip970)" d="M605.024 137.298 L605.024 141.28 Q603.218 140.284 601.389 139.798 Q599.584 139.289 597.732 139.289 Q593.588 139.289 591.297 141.928 Q589.005 144.544 589.005 149.289 Q589.005 154.034 591.297 156.673 Q593.588 159.289 597.732 159.289 Q599.584 159.289 601.389 158.803 Q603.218 158.293 605.024 157.298 L605.024 161.233 Q603.241 162.067 601.32 162.483 Q599.422 162.9 597.269 162.9 Q591.413 162.9 587.963 159.219 Q584.514 155.539 584.514 149.289 Q584.514 142.946 587.987 139.312 Q591.482 135.678 597.547 135.678 Q599.514 135.678 601.389 136.095 Q603.264 136.488 605.024 137.298 Z" fill="#000000" fill-rule="evenodd" fill-opacity="1" /><path clip-path="url(#clip970)" d="M622.477 139.289 Q619.051 139.289 617.061 141.974 Q615.07 144.636 615.07 149.289 Q615.07 153.942 617.037 156.627 Q619.028 159.289 622.477 159.289 Q625.88 159.289 627.871 156.604 Q629.861 153.918 629.861 149.289 Q629.861 144.682 627.871 141.997 Q625.88 139.289 622.477 139.289 M622.477 135.678 Q628.033 135.678 631.204 139.289 Q634.375 142.9 634.375 149.289 Q634.375 155.655 631.204 159.289 Q628.033 162.9 622.477 162.9 Q616.898 162.9 613.727 159.289 Q610.579 155.655 610.579 149.289 Q610.579 142.9 613.727 139.289 Q616.898 135.678 622.477 135.678 Z" fill="#000000" fill-rule="evenodd" fill-opacity="1" /><path clip-path="url(#clip970)" d="M662.986 146.581 L662.986 162.229 L658.727 162.229 L658.727 146.719 Q658.727 143.039 657.292 141.21 Q655.857 139.382 652.986 139.382 Q649.537 139.382 647.546 141.581 Q645.556 143.78 645.556 147.576 L645.556 162.229 L641.273 162.229 L641.273 136.303 L645.556 136.303 L645.556 140.331 Q647.084 137.993 649.144 136.835 Q651.227 135.678 653.935 135.678 Q658.403 135.678 660.695 138.456 Q662.986 141.21 662.986 146.581 Z" fill="#000000" fill-rule="evenodd" fill-opacity="1" /><path clip-path="url(#clip970)" d="M688.009 137.067 L688.009 141.094 Q686.204 140.169 684.259 139.706 Q682.315 139.243 680.231 139.243 Q677.06 139.243 675.463 140.215 Q673.889 141.187 673.889 143.131 Q673.889 144.613 675.023 145.469 Q676.157 146.303 679.583 147.067 L681.042 147.391 Q685.579 148.363 687.477 150.145 Q689.398 151.905 689.398 155.076 Q689.398 158.687 686.528 160.793 Q683.681 162.9 678.681 162.9 Q676.597 162.9 674.329 162.483 Q672.083 162.09 669.583 161.28 L669.583 156.881 Q671.944 158.108 674.236 158.733 Q676.528 159.335 678.773 159.335 Q681.782 159.335 683.403 158.317 Q685.023 157.275 685.023 155.4 Q685.023 153.664 683.843 152.738 Q682.685 151.812 678.727 150.956 L677.245 150.608 Q673.287 149.775 671.528 148.062 Q669.769 146.326 669.769 143.317 Q669.769 139.659 672.361 137.669 Q674.954 135.678 679.722 135.678 Q682.083 135.678 684.167 136.025 Q686.25 136.372 688.009 137.067 Z" fill="#000000" fill-rule="evenodd" fill-opacity="1" /><path clip-path="url(#clip970)" d="M700.393 128.942 L700.393 136.303 L709.167 136.303 L709.167 139.613 L700.393 139.613 L700.393 153.687 Q700.393 156.858 701.25 157.761 Q702.13 158.664 704.792 158.664 L709.167 158.664 L709.167 162.229 L704.792 162.229 Q699.861 162.229 697.986 160.4 Q696.111 158.548 696.111 153.687 L696.111 139.613 L692.986 139.613 L692.986 136.303 L696.111 136.303 L696.111 128.942 L700.393 128.942 Z" fill="#000000" fill-rule="evenodd" fill-opacity="1" /><path clip-path="url(#clip970)" d="M729.791 140.284 Q729.074 139.868 728.217 139.682 Q727.384 139.474 726.366 139.474 Q722.754 139.474 720.81 141.835 Q718.889 144.173 718.889 148.571 L718.889 162.229 L714.606 162.229 L714.606 136.303 L718.889 136.303 L718.889 140.331 Q720.231 137.969 722.384 136.835 Q724.537 135.678 727.615 135.678 Q728.055 135.678 728.588 135.747 Q729.12 135.794 729.768 135.909 L729.791 140.284 Z" fill="#000000" fill-rule="evenodd" fill-opacity="1" /><path clip-path="url(#clip970)" d="M733.819 151.997 L733.819 136.303 L738.078 136.303 L738.078 151.835 Q738.078 155.516 739.514 157.368 Q740.949 159.196 743.819 159.196 Q747.268 159.196 749.259 156.997 Q751.273 154.798 751.273 151.002 L751.273 136.303 L755.532 136.303 L755.532 162.229 L751.273 162.229 L751.273 158.247 Q749.722 160.608 747.662 161.766 Q745.625 162.9 742.916 162.9 Q738.449 162.9 736.134 160.122 Q733.819 157.344 733.819 151.997 M744.537 135.678 L744.537 135.678 Z" fill="#000000" fill-rule="evenodd" fill-opacity="1" /><path clip-path="url(#clip970)" d="M782.962 137.298 L782.962 141.28 Q781.157 140.284 779.328 139.798 Q777.523 139.289 775.671 139.289 Q771.527 139.289 769.236 141.928 Q766.944 144.544 766.944 149.289 Q766.944 154.034 769.236 156.673 Q771.527 159.289 775.671 159.289 Q777.523 159.289 779.328 158.803 Q781.157 158.293 782.962 157.298 L782.962 161.233 Q781.18 162.067 779.259 162.483 Q777.361 162.9 775.208 162.9 Q769.351 162.9 765.902 159.219 Q762.453 155.539 762.453 149.289 Q762.453 142.946 765.925 139.312 Q769.421 135.678 775.486 135.678 Q777.453 135.678 779.328 136.095 Q781.203 136.488 782.962 137.298 Z" fill="#000000" fill-rule="evenodd" fill-opacity="1" /><path clip-path="url(#clip970)" d="M794.583 128.942 L794.583 136.303 L803.356 136.303 L803.356 139.613 L794.583 139.613 L794.583 153.687 Q794.583 156.858 795.439 157.761 Q796.319 158.664 798.981 158.664 L803.356 158.664 L803.356 162.229 L798.981 162.229 Q794.05 162.229 792.175 160.4 Q790.3 158.548 790.3 153.687 L790.3 139.613 L787.175 139.613 L787.175 136.303 L790.3 136.303 L790.3 128.942 L794.583 128.942 Z" fill="#000000" fill-rule="evenodd" fill-opacity="1" /><path clip-path="url(#clip970)" d="M831.133 148.201 L831.133 150.284 L811.55 150.284 Q811.828 154.682 814.189 156.997 Q816.573 159.289 820.809 159.289 Q823.263 159.289 825.555 158.687 Q827.87 158.085 830.138 156.881 L830.138 160.909 Q827.846 161.881 825.439 162.391 Q823.032 162.9 820.555 162.9 Q814.351 162.9 810.717 159.289 Q807.106 155.678 807.106 149.52 Q807.106 143.155 810.532 139.428 Q813.981 135.678 819.814 135.678 Q825.046 135.678 828.078 139.057 Q831.133 142.414 831.133 148.201 M826.874 146.951 Q826.828 143.456 824.907 141.372 Q823.009 139.289 819.86 139.289 Q816.296 139.289 814.143 141.303 Q812.013 143.317 811.689 146.974 L826.874 146.951 Z" fill="#000000" fill-rule="evenodd" fill-opacity="1" /><path clip-path="url(#clip970)" d="M855.184 140.238 L855.184 126.21 L859.443 126.21 L859.443 162.229 L855.184 162.229 L855.184 158.34 Q853.842 160.655 851.781 161.789 Q849.744 162.9 846.874 162.9 Q842.175 162.9 839.212 159.15 Q836.272 155.4 836.272 149.289 Q836.272 143.178 839.212 139.428 Q842.175 135.678 846.874 135.678 Q849.744 135.678 851.781 136.812 Q853.842 137.923 855.184 140.238 M840.67 149.289 Q840.67 153.988 842.592 156.673 Q844.536 159.335 847.916 159.335 Q851.295 159.335 853.24 156.673 Q855.184 153.988 855.184 149.289 Q855.184 144.59 853.24 141.928 Q851.295 139.243 847.916 139.243 Q844.536 139.243 842.592 141.928 Q840.67 144.59 840.67 149.289 Z" fill="#000000" fill-rule="evenodd" fill-opacity="1" /><path clip-path="url(#clip970)" d="M895.068 149.196 Q889.906 149.196 887.916 150.377 Q885.925 151.557 885.925 154.405 Q885.925 156.673 887.406 158.016 Q888.911 159.335 891.48 159.335 Q895.022 159.335 897.152 156.835 Q899.304 154.312 899.304 150.145 L899.304 149.196 L895.068 149.196 M903.564 147.437 L903.564 162.229 L899.304 162.229 L899.304 158.293 Q897.846 160.655 895.67 161.789 Q893.494 162.9 890.346 162.9 Q886.365 162.9 884.004 160.678 Q881.666 158.432 881.666 154.682 Q881.666 150.307 884.582 148.085 Q887.522 145.863 893.332 145.863 L899.304 145.863 L899.304 145.446 Q899.304 142.507 897.36 140.909 Q895.439 139.289 891.943 139.289 Q889.721 139.289 887.615 139.821 Q885.508 140.354 883.564 141.419 L883.564 137.483 Q885.902 136.581 888.101 136.141 Q890.3 135.678 892.383 135.678 Q898.008 135.678 900.786 138.594 Q903.564 141.511 903.564 147.437 Z" fill="#000000" fill-rule="evenodd" fill-opacity="1" /><path clip-path="url(#clip970)" d="M933.888 146.581 L933.888 162.229 L929.628 162.229 L929.628 146.719 Q929.628 143.039 928.193 141.21 Q926.758 139.382 923.888 139.382 Q920.439 139.382 918.448 141.581 Q916.457 143.78 916.457 147.576 L916.457 162.229 L912.175 162.229 L912.175 136.303 L916.457 136.303 L916.457 140.331 Q917.985 137.993 920.045 136.835 Q922.128 135.678 924.837 135.678 Q929.304 135.678 931.596 138.456 Q933.888 141.21 933.888 146.581 Z" fill="#000000" fill-rule="evenodd" fill-opacity="1" /><path clip-path="url(#clip970)" d="M963.934 146.581 L963.934 162.229 L959.674 162.229 L959.674 146.719 Q959.674 143.039 958.239 141.21 Q956.804 139.382 953.934 139.382 Q950.485 139.382 948.494 141.581 Q946.503 143.78 946.503 147.576 L946.503 162.229 L942.221 162.229 L942.221 136.303 L946.503 136.303 L946.503 140.331 Q948.031 137.993 950.091 136.835 Q952.174 135.678 954.883 135.678 Q959.35 135.678 961.642 138.456 Q963.934 141.21 963.934 146.581 Z" fill="#000000" fill-rule="evenodd" fill-opacity="1" /><path clip-path="url(#clip970)" d="M971.989 151.997 L971.989 136.303 L976.248 136.303 L976.248 151.835 Q976.248 155.516 977.684 157.368 Q979.119 159.196 981.989 159.196 Q985.438 159.196 987.429 156.997 Q989.443 154.798 989.443 151.002 L989.443 136.303 L993.702 136.303 L993.702 162.229 L989.443 162.229 L989.443 158.247 Q987.892 160.608 985.832 161.766 Q983.795 162.9 981.086 162.9 Q976.619 162.9 974.304 160.122 Q971.989 157.344 971.989 151.997 M982.707 135.678 L982.707 135.678 Z" fill="#000000" fill-rule="evenodd" fill-opacity="1" /><path clip-path="url(#clip970)" d="M1014.26 149.196 Q1009.1 149.196 1007.1 150.377 Q1005.11 151.557 1005.11 154.405 Q1005.11 156.673 1006.6 158.016 Q1008.1 159.335 1010.67 159.335 Q1014.21 159.335 1016.34 156.835 Q1018.49 154.312 1018.49 150.145 L1018.49 149.196 L1014.26 149.196 M1022.75 147.437 L1022.75 162.229 L1018.49 162.229 L1018.49 158.293 Q1017.04 160.655 1014.86 161.789 Q1012.68 162.9 1009.54 162.9 Q1005.55 162.9 1003.19 160.678 Q1000.85 158.432 1000.85 154.682 Q1000.85 150.307 1003.77 148.085 Q1006.71 145.863 1012.52 145.863 L1018.49 145.863 L1018.49 145.446 Q1018.49 142.507 1016.55 140.909 Q1014.63 139.289 1011.13 139.289 Q1008.91 139.289 1006.8 139.821 Q1004.7 140.354 1002.75 141.419 L1002.75 137.483 Q1005.09 136.581 1007.29 136.141 Q1009.49 135.678 1011.57 135.678 Q1017.2 135.678 1019.98 138.594 Q1022.75 141.511 1022.75 147.437 Z" fill="#000000" fill-rule="evenodd" fill-opacity="1" /><path clip-path="url(#clip970)" d="M1031.53 126.21 L1035.79 126.21 L1035.79 162.229 L1031.53 162.229 L1031.53 126.21 Z" fill="#000000" fill-rule="evenodd" fill-opacity="1" /><path clip-path="url(#clip970)" d="M1079.95 141.28 Q1081.55 138.409 1083.77 137.044 Q1085.99 135.678 1089 135.678 Q1093.05 135.678 1095.25 138.525 Q1097.45 141.349 1097.45 146.581 L1097.45 162.229 L1093.17 162.229 L1093.17 146.719 Q1093.17 142.993 1091.85 141.187 Q1090.53 139.382 1087.82 139.382 Q1084.51 139.382 1082.59 141.581 Q1080.67 143.78 1080.67 147.576 L1080.67 162.229 L1076.39 162.229 L1076.39 146.719 Q1076.39 142.969 1075.07 141.187 Q1073.75 139.382 1070.99 139.382 Q1067.73 139.382 1065.81 141.604 Q1063.89 143.803 1063.89 147.576 L1063.89 162.229 L1059.6 162.229 L1059.6 136.303 L1063.89 136.303 L1063.89 140.331 Q1065.35 137.946 1067.38 136.812 Q1069.42 135.678 1072.22 135.678 Q1075.04 135.678 1077.01 137.113 Q1079 138.548 1079.95 141.28 Z" fill="#000000" fill-rule="evenodd" fill-opacity="1" /><path clip-path="url(#clip970)" d="M1128.12 148.201 L1128.12 150.284 L1108.54 150.284 Q1108.82 154.682 1111.18 156.997 Q1113.56 159.289 1117.8 159.289 Q1120.25 159.289 1122.54 158.687 Q1124.86 158.085 1127.13 156.881 L1127.13 160.909 Q1124.84 161.881 1122.43 162.391 Q1120.02 162.9 1117.54 162.9 Q1111.34 162.9 1107.71 159.289 Q1104.09 155.678 1104.09 149.52 Q1104.09 143.155 1107.52 139.428 Q1110.97 135.678 1116.8 135.678 Q1122.03 135.678 1125.07 139.057 Q1128.12 142.414 1128.12 148.201 M1123.86 146.951 Q1123.82 143.456 1121.9 141.372 Q1120 139.289 1116.85 139.289 Q1113.28 139.289 1111.13 141.303 Q1109 143.317 1108.68 146.974 L1123.86 146.951 Z" fill="#000000" fill-rule="evenodd" fill-opacity="1" /><path clip-path="url(#clip970)" d="M1146.9 149.196 Q1141.73 149.196 1139.74 150.377 Q1137.75 151.557 1137.75 154.405 Q1137.75 156.673 1139.23 158.016 Q1140.74 159.335 1143.31 159.335 Q1146.85 159.335 1148.98 156.835 Q1151.13 154.312 1151.13 150.145 L1151.13 149.196 L1146.9 149.196 M1155.39 147.437 L1155.39 162.229 L1151.13 162.229 L1151.13 158.293 Q1149.67 160.655 1147.5 161.789 Q1145.32 162.9 1142.17 162.9 Q1138.19 162.9 1135.83 160.678 Q1133.49 158.432 1133.49 154.682 Q1133.49 150.307 1136.41 148.085 Q1139.35 145.863 1145.16 145.863 L1151.13 145.863 L1151.13 145.446 Q1151.13 142.507 1149.19 140.909 Q1147.27 139.289 1143.77 139.289 Q1141.55 139.289 1139.44 139.821 Q1137.34 140.354 1135.39 141.419 L1135.39 137.483 Q1137.73 136.581 1139.93 136.141 Q1142.13 135.678 1144.21 135.678 Q1149.84 135.678 1152.61 138.594 Q1155.39 141.511 1155.39 147.437 Z" fill="#000000" fill-rule="evenodd" fill-opacity="1" /><path clip-path="url(#clip970)" d="M1185.71 146.581 L1185.71 162.229 L1181.46 162.229 L1181.46 146.719 Q1181.46 143.039 1180.02 141.21 Q1178.59 139.382 1175.71 139.382 Q1172.27 139.382 1170.28 141.581 Q1168.28 143.78 1168.28 147.576 L1168.28 162.229 L1164 162.229 L1164 136.303 L1168.28 136.303 L1168.28 140.331 Q1169.81 137.993 1171.87 136.835 Q1173.96 135.678 1176.66 135.678 Q1181.13 135.678 1183.42 138.456 Q1185.71 141.21 1185.71 146.581 Z" fill="#000000" fill-rule="evenodd" fill-opacity="1" /></svg>
